Russolo-24ptRegular.ufo
<glyph name="exclam" format="2">
  <advance width="499.646511627907"/>
  <unicode hex="0021"/>
  <note>
exclam
</note>
  <outline>
    <contour>
      <point x="222.72558139534885" y="315.1496124031008" type="curve"/>
      <point x="278.00852713178296" y="315.1496124031008" type="line"/>
      <point x="273.63953488372096" y="770.8868217054263"/>
      <point x="348.0728682170543" y="1067.7302325581395"/>
      <point x="348.0728682170543" y="1214.1930232558138" type="curve" smooth="yes"/>
      <point x="348.0728682170543" y="1302.2697674418605"/>
      <point x="277.3077519379845" y="1309.3100775193798"/>
      <point x="291.715503875969" y="1463.0875968992248" type="curve"/>
      <point x="208.92480620155038" y="1463.0875968992248" type="line"/>
      <point x="223.33255813953488" y="1309.3100775193798"/>
      <point x="151.9674418604651" y="1302.2697674418605"/>
      <point x="151.9674418604651" y="1214.1930232558138" type="curve" smooth="yes"/>
      <point x="151.9674418604651" y="1067.7302325581395"/>
      <point x="226.40077519379844" y="770.8868217054263"/>
    </contour>
    <contour>
      <point x="250.0201550387597" y="-18.068992248062017" type="curve" smooth="yes"/>
      <point x="299.02713178294573" y="-18.068992248062017"/>
      <point x="335.346511627907" y="25.788372093023256"/>
      <point x="335.346511627907" y="80.74573643410852" type="curve" smooth="yes"/>
      <point x="335.346511627907" y="135.00930232558142"/>
      <point x="298.32713178294574" y="177.5604651162791"/>
      <point x="250.0201550387597" y="177.5604651162791" type="curve" smooth="yes"/>
      <point x="201.71317829457365" y="177.5604651162791"/>
      <point x="164.69379844961242" y="135.00930232558142"/>
      <point x="164.69379844961242" y="80.74573643410852" type="curve" smooth="yes"/>
      <point x="164.69379844961242" y="25.788372093023256"/>
      <point x="201.01317829457363" y="-18.068992248062017"/>
    </contour>
  </outline>
</glyph>
<glyph name="quotedbl" format="2">
  <advance width="573.1875968992248"/>
  <unicode hex="0022"/>
  <note>
quotedbl
</note>
  <outline>
    <contour>
      <point x="343.7782945736434" y="824.8798449612403" type="line"/>
      <point x="418.8937984496124" y="824.8798449612403" type="line"/>
      <point x="439.5751937984496" y="1358.368992248062" type="line"/>
      <point x="326.8782945736434" y="1358.368992248062" type="line"/>
    </contour>
    <contour>
      <point x="151.9062015503876" y="824.8798449612403" type="line"/>
      <point x="225.6341085271318" y="824.8798449612403" type="line"/>
      <point x="246.615503875969" y="1358.368992248062" type="line"/>
      <point x="134.6124031007752" y="1358.368992248062" type="line"/>
    </contour>
  </outline>
</glyph>
<glyph name="numbersign" format="2">
  <advance width="1311.0100775193798"/>
  <unicode hex="0023"/>
  <note>
numbersign
</note>
  <outline>
    <contour>
      <point x="710.562015503876" y="0.0" type="line"/>
      <point x="833.0031007751938" y="0.0" type="line"/>
      <point x="1114.8666666666666" y="1432.0813953488373" type="line"/>
      <point x="992.4255813953489" y="1432.0813953488373" type="line"/>
    </contour>
    <contour>
      <point x="102.3062015503876" y="476.2674418604651" type="line"/>
      <point x="1145.5914728682171" y="476.2674418604651" type="line"/>
      <point x="1145.5914728682171" y="550.6387596899225" type="line"/>
      <point x="102.3062015503876" y="550.6387596899225" type="line"/>
    </contour>
    <contour>
      <point x="208.66744186046512" y="0.0" type="line"/>
      <point x="331.5023255813953" y="0.0" type="line"/>
      <point x="614.3596899224806" y="1432.0813953488373" type="line"/>
      <point x="491.9186046511628" y="1432.0813953488373" type="line"/>
    </contour>
    <contour>
      <point x="162.6248062015504" y="887.7302325581395" type="line"/>
      <point x="1206.6038759689923" y="887.7302325581395" type="line"/>
      <point x="1206.6038759689923" y="962.7953488372093" type="line"/>
      <point x="162.6248062015504" y="962.7953488372093" type="line"/>
    </contour>
  </outline>
</glyph>
<glyph name="percent" format="2">
  <advance width="1622.0255813953488"/>
  <unicode hex="0025"/>
  <note>
percent
</note>
  <outline>
    <contour>
      <point x="260.31007751937983" y="-32.05581395348837" type="line"/>
      <point x="380.0333333333333" y="-32.05581395348837" type="line"/>
      <point x="1339.253488372093" y="1446.031007751938" type="line"/>
      <point x="1219.8302325581396" y="1446.031007751938" type="line"/>
    </contour>
    <contour>
      <point x="1191.1868217054264" y="-23.856589147286822" type="curve" smooth="yes"/>
      <point x="1375.6627906976744" y="-23.856589147286822"/>
      <point x="1489.8069767441862" y="148.85581395348837"/>
      <point x="1489.8069767441862" y="381.331007751938" type="curve" smooth="yes"/>
      <point x="1489.8069767441862" y="613.6124031007752"/>
      <point x="1370.5751937984496" y="786.9062015503876"/>
      <point x="1191.1868217054264" y="786.9062015503876" type="curve" smooth="yes"/>
      <point x="1013.4860465116279" y="786.9062015503876"/>
      <point x="893.5666666666667" y="612.6186046511627"/>
      <point x="893.5666666666667" y="381.331007751938" type="curve" smooth="yes"/>
      <point x="893.5666666666667" y="150.25581395348837"/>
      <point x="1007.3108527131783" y="-23.856589147286822"/>
    </contour>
    <contour>
      <point x="1191.1868217054264" y="44.81472868217055" type="curve" smooth="yes"/>
      <point x="1082.5325581395348" y="44.81472868217055"/>
      <point x="1020.1023255813953" y="176.34496124031008"/>
      <point x="1020.1023255813953" y="381.331007751938" type="curve" smooth="yes"/>
      <point x="1020.1023255813953" y="587.7046511627907"/>
      <point x="1082.5325581395348" y="719.5410852713178"/>
      <point x="1191.1868217054264" y="719.5410852713178" type="curve" smooth="yes"/>
      <point x="1300.5348837209303" y="719.5410852713178"/>
      <point x="1363.9651162790697" y="587.3170542635659"/>
      <point x="1363.9651162790697" y="381.331007751938" type="curve" smooth="yes"/>
      <point x="1363.9651162790697" y="176.34496124031008"/>
      <point x="1301.5348837209303" y="44.81472868217055"/>
    </contour>
    <contour>
      <point x="430.5325581395349" y="653.8806201550387" type="curve" smooth="yes"/>
      <point x="614.708527131783" y="653.8806201550387"/>
      <point x="729.546511627907" y="826.293023255814"/>
      <point x="729.546511627907" y="1059.4558139534884" type="curve" smooth="yes"/>
      <point x="729.546511627907" y="1291.0496124031008"/>
      <point x="609.2271317829458" y="1465.0372093023257"/>
      <point x="430.5325581395349" y="1465.0372093023257" type="curve" smooth="yes"/>
      <point x="251.83798449612402" y="1465.0372093023257"/>
      <point x="132.2186046511628" y="1290.3558139534885"/>
      <point x="132.2186046511628" y="1059.4558139534884" type="curve" smooth="yes"/>
      <point x="132.2186046511628" y="827.9930232558139"/>
      <point x="245.96279069767442" y="653.8806201550387"/>
    </contour>
    <contour>
      <point x="430.5325581395349" y="722.2457364341085" type="curve" smooth="yes"/>
      <point x="321.8782945736434" y="722.2457364341085"/>
      <point x="259.44806201550387" y="853.7821705426356"/>
      <point x="259.44806201550387" y="1059.4558139534884" type="curve" smooth="yes"/>
      <point x="259.44806201550387" y="1266.8294573643411"/>
      <point x="321.8782945736434" y="1396.672093023256"/>
      <point x="430.5325581395349" y="1396.672093023256" type="curve" smooth="yes"/>
      <point x="539.1868217054264" y="1396.672093023256"/>
      <point x="602.6170542635659" y="1265.4480620155039"/>
      <point x="602.6170542635659" y="1059.4558139534884" type="curve" smooth="yes"/>
      <point x="602.6170542635659" y="855.5635658914729"/>
      <point x="539.8868217054263" y="722.2457364341085"/>
    </contour>
  </outline>
</glyph>
<glyph name="ampersand" format="2">
  <advance width="1316.113953488372"/>
  <unicode hex="0026"/>
  <note>
ampersand
</note>
  <outline>
    <contour>
      <point x="579.4720930232559" y="-29.781395348837208" type="curve" smooth="yes"/>
      <point x="717.7170542635658" y="-29.781395348837208"/>
      <point x="849.753488372093" y="-8.412403100775194"/>
      <point x="922.9542635658914" y="38.906976744186046" type="curve"/>
      <point x="872.4829457364341" y="111.24651162790698" type="line"/>
      <point x="824.908527131783" y="71.95271317829457"/>
      <point x="662.7333333333333" y="46.20852713178295"/>
      <point x="573.4720930232559" y="46.20852713178295" type="curve" smooth="yes"/>
      <point x="355.21782945736436" y="46.20852713178295"/>
      <point x="295.7248062015504" y="202.6891472868217"/>
      <point x="295.7248062015504" y="395.2317829457364" type="curve" smooth="yes"/>
      <point x="295.7248062015504" y="617.05503875969"/>
      <point x="406.4612403100775" y="742.1798449612403"/>
      <point x="593.7286821705426" y="741.0922480620155" type="curve"/>
      <point x="599.1348837209302" y="820.4759689922481" type="line"/>
      <point x="440.45503875968996" y="817.1007751937984"/>
      <point x="374.32480620155036" y="943.5937984496124"/>
      <point x="374.32480620155036" y="1088.4744186046512" type="curve" smooth="yes"/>
      <point x="374.32480620155036" y="1254.4108527131782"/>
      <point x="465.8860465116279" y="1385.0976744186046"/>
      <point x="623.6217054263566" y="1385.0976744186046" type="curve" smooth="yes"/>
      <point x="793.1860465116279" y="1385.0976744186046" type="line"/>
      <point x="793.1860465116279" y="1461.0875968992248" type="line"/>
      <point x="619.6217054263566" y="1461.0875968992248" type="line" smooth="yes"/>
      <point x="362.1565891472868" y="1461.0875968992248"/>
      <point x="226.3" y="1306.006976744186"/>
      <point x="226.3" y="1087.7744186046511" type="curve" smooth="yes"/>
      <point x="226.3" y="952.3"/>
      <point x="285.2806201550388" y="835.2751937984497"/>
      <point x="420.4046511627907" y="786.6" type="curve"/>
      <point x="261.4240310077519" y="742.7744186046511"/>
      <point x="134.3248062015504" y="603.4178294573643"/>
      <point x="134.3248062015504" y="389.2317829457364" type="curve" smooth="yes"/>
      <point x="134.3248062015504" y="136.9062015503876"/>
      <point x="282.68992248062017" y="-29.781395348837208"/>
    </contour>
    <contour>
      <point x="1010.1612403100776" y="-27.781395348837208" type="curve" smooth="yes"/>
      <point x="1079.3255813953488" y="-27.781395348837208"/>
      <point x="1151.594573643411" y="-14.0"/>
      <point x="1197.3077519379844" y="12.150387596899225" type="curve"/>
      <point x="1197.3077519379844" y="115.61627906976744" type="line"/>
      <point x="1126.386046511628" y="67.02713178294573"/>
      <point x="1081.193023255814" y="53.90232558139535"/>
      <point x="1042.843410852713" y="53.90232558139535" type="curve" smooth="yes"/>
      <point x="1001.9131782945736" y="53.90232558139535"/>
      <point x="1005.4325581395349" y="175.08992248062015"/>
      <point x="1005.4325581395349" y="282.86434108527135" type="curve" smooth="yes"/>
      <point x="1005.4325581395349" y="741.0922480620155" type="line"/>
      <point x="1147.3263565891473" y="741.0922480620155" type="line"/>
      <point x="1147.3263565891473" y="819.7821705426356" type="line"/>
      <point x="1005.4325581395349" y="819.7821705426356" type="line"/>
      <point x="1005.4325581395349" y="1102.113953488372" type="line"/>
      <point x="916.9348837209302" y="1102.113953488372" type="line"/>
      <point x="929.029457364341" y="863.9341085271318"/>
      <point x="888.3271317829457" y="819.7821705426356"/>
      <point x="734.4697674418604" y="819.7821705426356" type="curve" smooth="yes"/>
      <point x="578.7968992248062" y="819.7821705426356" type="line"/>
      <point x="568.4093023255814" y="741.0922480620155" type="line"/>
      <point x="854.9511627906977" y="741.0922480620155" type="line"/>
      <point x="854.9511627906977" y="206.80077519379844" type="line" smooth="yes"/>
      <point x="854.9511627906977" y="37.3124031007752"/>
      <point x="895.1162790697674" y="-27.781395348837208"/>
    </contour>
  </outline>
</glyph>
<glyph name="quotesingle" format="2">
  <advance width="379.53410852713176"/>
  <unicode hex="0027"/>
  <note>
quotesingle
</note>
  <outline>
    <contour>
      <point x="151.9062015503876" y="824.8798449612403" type="line"/>
      <point x="225.6341085271318" y="824.8798449612403" type="line"/>
      <point x="246.615503875969" y="1358.368992248062" type="line"/>
      <point x="134.6124031007752" y="1358.368992248062" type="line"/>
    </contour>
  </outline>
</glyph>
<glyph name="parenleft" format="2">
  <advance width="581.0031007751938"/>
  <unicode hex="0028"/>
  <note>
parenleft
</note>
  <outline>
    <contour>
      <point x="445.40697674418607" y="-392.6372093023256" type="curve"/>
      <point x="500.8658914728682" y="-357.71860465116276" type="line"/>
      <point x="355.2968992248062" y="-115.98527131782946"/>
      <point x="228.52868217054262" y="230.01937984496124"/>
      <point x="228.52868217054262" y="565.675968992248" type="curve" smooth="yes"/>
      <point x="228.52868217054262" y="902.4635658914729"/>
      <point x="357.7217054263566" y="1260.0674418604651"/>
      <point x="503.384496124031" y="1504.151937984496" type="curve"/>
      <point x="443.59457364341085" y="1530.9767441860465" type="line"/>
      <point x="202.72558139534883" y="1192.315503875969"/>
      <point x="99.6186046511628" y="915.4643410852714"/>
      <point x="99.6186046511628" y="569.1449612403101" type="curve" smooth="yes"/>
      <point x="99.6186046511628" y="222.16976744186047"/>
      <point x="202.85658914728683" y="-63.33100775193799"/>
    </contour>
  </outline>
</glyph>
<glyph name="parenright" format="2">
  <advance width="581.3968992248062"/>
  <unicode hex="0029"/>
  <note>
parenright
</note>
  <outline>
    <contour>
      <point x="136.28992248062016" y="-392.6372093023256" type="line"/>
      <point x="379.62790697674416" y="-62.937209302325584"/>
      <point x="481.7782945736434" y="222.16976744186047"/>
      <point x="481.7782945736434" y="569.1449612403101" type="curve" smooth="yes"/>
      <point x="481.7782945736434" y="914.7705426356589"/>
      <point x="379.36511627906975" y="1192.315503875969"/>
      <point x="137.80232558139534" y="1531.2767441860465" type="curve"/>
      <point x="77.6186046511628" y="1504.151937984496" type="line"/>
      <point x="224.2751937984496" y="1260.55503875969"/>
      <point x="353.56201550387595" y="901.675968992248"/>
      <point x="353.56201550387595" y="565.675968992248" type="curve" smooth="yes"/>
      <point x="353.56201550387595" y="229.32558139534882"/>
      <point x="225.70620155038762" y="-117.46666666666667"/>
      <point x="80.13720930232557" y="-357.71860465116276" type="curve"/>
    </contour>
  </outline>
</glyph>
<glyph name="asterisk" format="2">
  <advance width="770.0527131782945"/>
  <unicode hex="002A"/>
  <note>
asterisk
</note>
  <outline>
    <contour>
      <point x="385.78914728682173" y="1122.35503875969" type="line"/>
      <point x="499.3403100775194" y="1188.2248062015503"/>
      <point x="566.4899224806202" y="1189.224031007752"/>
      <point x="604.646511627907" y="1210.5992248062016" type="curve" smooth="yes"/>
      <point x="621.0720930232558" y="1220.1558139534884"/>
      <point x="612.4147286821706" y="1252.7558139534883"/>
      <point x="646.5341085271318" y="1272.812403100775" type="curve"/>
      <point x="630.8651162790698" y="1300.0565891472868" type="line"/>
      <point x="597.1395348837209" y="1280.7"/>
      <point x="582.6651162790698" y="1306.9821705426357"/>
      <point x="557.0457364341086" y="1292.125581395349" type="curve" smooth="yes"/>
      <point x="515.3891472868218" y="1267.9503875968992"/>
      <point x="483.477519379845" y="1214.8503875968993"/>
      <point x="370.26356589147287" y="1148.7186046511629" type="curve"/>
    </contour>
    <contour>
      <point x="125.18759689922481" y="971.7170542635658" type="line"/>
      <point x="158.61317829457366" y="990.7736434108527"/>
      <point x="181.48139534883722" y="967.691472868217"/>
      <point x="199.30697674418604" y="977.6480620155039" type="curve" smooth="yes"/>
      <point x="239.56356589147288" y="1000.4232558139535"/>
      <point x="272.668992248062" y="1056.617054263566"/>
      <point x="385.78914728682173" y="1122.35503875969" type="curve"/>
      <point x="370.26356589147287" y="1148.7186046511629" type="line"/>
      <point x="256.3186046511628" y="1083.8488372093022"/>
      <point x="191.56279069767442" y="1081.2558139534883"/>
      <point x="152.4062015503876" y="1059.1744186046512" type="curve" smooth="yes"/>
      <point x="134.78682170542635" y="1048.824031007752"/>
      <point x="143.24418604651163" y="1018.3178294573644"/>
      <point x="109.51860465116279" y="998.9612403100775" type="curve"/>
    </contour>
    <contour>
      <point x="361.65736434108527" y="833.791472868217" type="curve"/>
      <point x="393.3953488372093" y="833.791472868217" type="line"/>
      <point x="393.3953488372093" y="872.9046511627907"/>
      <point x="425.62713178294575" y="880.322480620155"/>
      <point x="425.62713178294575" y="901.2356589147287" type="curve" smooth="yes"/>
      <point x="425.62713178294575" y="942.0984496124031"/>
      <point x="393.2829457364341" y="1003.9790697674418"/>
      <point x="393.24573643410855" y="1134.8868217054264" type="curve"/>
      <point x="361.80697674418604" y="1134.8868217054264" type="line"/>
      <point x="361.7697674418605" y="1003.8852713178295"/>
      <point x="331.42558139534884" y="942.1922480620156"/>
      <point x="331.42558139534884" y="901.2356589147287" type="curve" smooth="yes"/>
      <point x="331.42558139534884" y="880.0224806201551"/>
      <point x="361.65736434108527" y="872.5108527131783"/>
    </contour>
    <contour>
      <point x="369.56976744186045" y="1122.35503875969" type="curve"/>
      <point x="385.78914728682173" y="1148.7186046511629" type="line"/>
      <point x="272.5751937984496" y="1214.8503875968993"/>
      <point x="240.66356589147287" y="1268.6503875968992"/>
      <point x="199.00697674418603" y="1292.125581395349" type="curve" smooth="yes"/>
      <point x="185.2875968992248" y="1299.9821705426357"/>
      <point x="158.21937984496125" y="1280.0"/>
      <point x="124.4937984496124" y="1299.3627906976744" type="curve"/>
      <point x="109.51860465116279" y="1272.1124031007753" type="line"/>
      <point x="142.94418604651162" y="1252.7558139534883"/>
      <point x="136.38062015503877" y="1220.1558139534884"/>
      <point x="152.1062015503876" y="1210.5992248062016" type="curve" smooth="yes"/>
      <point x="193.06279069767442" y="1186.4240310077519"/>
      <point x="256.71860465116276" y="1186.831007751938"/>
    </contour>
    <contour>
      <point x="556.7457364341085" y="977.6480620155039" type="curve" smooth="yes"/>
      <point x="576.6713178294574" y="966.291472868217"/>
      <point x="597.439534883721" y="990.7736434108527"/>
      <point x="630.8651162790698" y="971.0170542635659" type="curve"/>
      <point x="646.5341085271318" y="998.2674418604652" type="line"/>
      <point x="612.808527131783" y="1017.6240310077519"/>
      <point x="628.9658914728682" y="1043.9240310077519"/>
      <point x="603.646511627907" y="1058.4744186046512" type="curve" smooth="yes"/>
      <point x="571.4899224806202" y="1075.6558139534884"/>
      <point x="499.4341085271318" y="1083.8488372093022"/>
      <point x="385.78914728682173" y="1148.7186046511629" type="curve"/>
      <point x="369.56976744186045" y="1122.35503875969" type="line"/>
      <point x="484.0837209302326" y="1055.9232558139536"/>
      <point x="517.8891472868218" y="1000.4232558139535"/>
    </contour>
    <contour>
      <point x="361.80697674418604" y="1134.8868217054264" type="curve"/>
      <point x="393.24573643410855" y="1134.8868217054264" type="line"/>
      <point x="393.2829457364341" y="1266.4945736434108"/>
      <point x="425.62713178294575" y="1327.6813953488372"/>
      <point x="425.62713178294575" y="1368.537984496124" type="curve" smooth="yes"/>
      <point x="425.62713178294575" y="1389.4511627906977"/>
      <point x="393.3953488372093" y="1396.868992248062"/>
      <point x="393.3953488372093" y="1435.9821705426357" type="curve"/>
      <point x="361.65736434108527" y="1435.9821705426357" type="line"/>
      <point x="361.65736434108527" y="1396.568992248062"/>
      <point x="331.42558139534884" y="1389.0573643410853"/>
      <point x="331.42558139534884" y="1368.537984496124" type="curve" smooth="yes"/>
      <point x="331.42558139534884" y="1328.2813953488371"/>
      <point x="361.7697674418605" y="1266.5883720930233"/>
    </contour>
  </outline>
</glyph>
<glyph name="plus" format="2">
  <advance width="1056.2147286821705"/>
  <unicode hex="002B"/>
  <note>
plus
</note>
  <outline>
    <contour>
      <point x="121.18759689922481" y="608.6658914728682" type="line"/>
      <point x="935.0271317829457" y="608.6658914728682" type="line"/>
      <point x="935.0271317829457" y="726.846511627907" type="line"/>
      <point x="121.18759689922481" y="726.846511627907" type="line"/>
    </contour>
    <contour>
      <point x="484.2806201550388" y="260.83643410852716" type="line"/>
      <point x="571.9341085271318" y="260.83643410852716" type="line"/>
      <point x="571.9341085271318" y="1074.675968992248" type="line"/>
      <point x="484.2806201550388" y="1074.675968992248" type="line"/>
    </contour>
  </outline>
</glyph>
<glyph name="comma" format="2">
  <advance width="508.27364341085274"/>
  <unicode hex="002C"/>
  <note>
comma
</note>
  <outline>
    <contour>
      <point x="134.8248062015504" y="-148.1201550387597" type="curve"/>
      <point x="251.37209302325581" y="-148.1201550387597" type="line"/>
      <point x="306.3914728682171" y="-48.406976744186046"/>
      <point x="353.0612403100775" y="70.62635658914729"/>
      <point x="379.24883720930234" y="171.16434108527133" type="curve"/>
      <point x="227.25736434108526" y="171.16434108527133" type="line"/>
      <point x="191.22558139534883" y="91.00697674418605"/>
      <point x="150.868992248062" y="-54.16201550387597"/>
    </contour>
  </outline>
</glyph>
<glyph name="hyphen" format="2">
  <advance width="624.0193798449612"/>
  <unicode hex="002D"/>
  <note>
hyphen
</note>
  <outline>
    <contour>
      <point x="73.03720930232558" y="445.9046511627907" type="line"/>
      <point x="501.5922480620155" y="445.9046511627907" type="line"/>
      <point x="551.675968992248" y="580.1217054263566" type="line"/>
      <point x="121.73333333333333" y="580.1217054263566" type="line"/>
    </contour>
  </outline>
</glyph>
<glyph name="period" format="2">
  <advance width="468.34883720930236"/>
  <unicode hex="002E"/>
  <note>
period
</note>
  <outline>
    <contour>
      <point x="233.97751937984498" y="-9.049612403100776" type="curve" smooth="yes"/>
      <point x="290.31627906976746" y="-9.049612403100776"/>
      <point x="337.73643410852713" y="32.42635658914729"/>
      <point x="337.73643410852713" y="95.315503875969" type="curve" smooth="yes"/>
      <point x="337.73643410852713" y="158.5984496124031"/>
      <point x="289.6162790697674" y="199.06821705426358"/>
      <point x="233.97751937984498" y="199.06821705426358" type="curve" smooth="yes"/>
      <point x="178.7325581395349" y="199.06821705426358"/>
      <point x="130.6124031007752" y="158.2046511627907"/>
      <point x="130.6124031007752" y="95.315503875969" type="curve" smooth="yes"/>
      <point x="130.6124031007752" y="32.72635658914729"/>
      <point x="177.33875968992248" y="-9.049612403100776"/>
    </contour>
  </outline>
</glyph>
<glyph name="slash" format="2">
  <advance width="679.5968992248062"/>
  <unicode hex="002F"/>
  <note>
slash
</note>
  <outline>
    <contour>
      <point x="47.71240310077519" y="-399.4186046511628" type="line"/>
      <point x="142.37751937984495" y="-399.4186046511628" type="line"/>
      <point x="631.884496124031" y="1497.1" type="line"/>
      <point x="537.5193798449612" y="1497.1" type="line"/>
    </contour>
  </outline>
</glyph>
<glyph name="zero" format="2">
  <advance width="1308.0248062015503"/>
  <unicode hex="0030"/>
  <note>
zero
</note>
  <anchor x="646.877519379845" y="715.7" name="center"/>
  <outline>
    <contour>
      <point x="653.815503875969" y="-26.68139534883721" type="curve" smooth="yes"/>
      <point x="986.6232558139535" y="-26.68139534883721"/>
      <point x="1215.8062015503876" y="274.8565891472868"/>
      <point x="1215.8062015503876" y="715.7" type="curve" smooth="yes"/>
      <point x="1215.8062015503876" y="1147.9178294573644"/>
      <point x="978.691472868217" y="1457.7751937984497"/>
      <point x="653.815503875969" y="1457.7751937984497" type="curve" smooth="yes"/>
      <point x="327.6457364341085" y="1457.7751937984497"/>
      <point x="92.21860465116279" y="1148.9116279069767"/>
      <point x="92.21860465116279" y="715.7" type="curve" smooth="yes"/>
      <point x="92.21860465116279" y="277.63178294573646"/>
      <point x="323.4829457364341" y="-26.68139534883721"/>
    </contour>
    <contour>
      <point x="653.815503875969" y="51.70232558139536" type="curve" smooth="yes"/>
      <point x="414.5612403100775" y="51.70232558139536"/>
      <point x="253.26201550387597" y="318.44573643410854"/>
      <point x="253.26201550387597" y="715.7" type="curve" smooth="yes"/>
      <point x="253.26201550387597" y="1112.260465116279"/>
      <point x="414.5612403100775" y="1379.691472868217"/>
      <point x="653.815503875969" y="1379.691472868217" type="curve" smooth="yes"/>
      <point x="893.4635658914729" y="1379.691472868217"/>
      <point x="1054.8565891472867" y="1111.2666666666667"/>
      <point x="1054.8565891472867" y="715.7" type="curve" smooth="yes"/>
      <point x="1054.8565891472867" y="319.8333333333333"/>
      <point x="894.1573643410853" y="51.70232558139536"/>
    </contour>
  </outline>
</glyph>
<glyph name="one" format="2">
  <advance width="582.9751937984496"/>
  <unicode hex="0031"/>
  <note>
one
</note>
  <outline>
    <contour>
      <point x="275.40697674418607" y="-0.30000000000000004" type="line"/>
      <point x="427.0627906976744" y="-0.30000000000000004" type="line"/>
      <point x="427.0627906976744" y="1427.2248062015503" type="line"/>
      <point x="360.75348837209305" y="1427.2248062015503" type="line"/>
      <point x="46.2124031007752" y="975.3341085271318" type="line"/>
      <point x="83.79457364341086" y="943.5581395348837" type="line"/>
      <point x="297.53178294573644" y="1237.5178294573643" type="line"/>
      <point x="275.40697674418607" y="1256.268992248062" type="line"/>
    </contour>
  </outline>
</glyph>
<glyph name="two" format="2">
  <advance width="1084.6178294573645"/>
  <unicode hex="0032"/>
  <note>
two
</note>
  <outline>
    <contour>
      <point x="57.4124031007752" y="0.0" type="line"/>
      <point x="1009.7054263565891" y="0.0" type="line"/>
      <point x="1009.7054263565891" y="125.57286821705426" type="line"/>
      <point x="218.9232558139535" y="126.27286821705427" type="line"/>
      <point x="203.9232558139535" y="75.05891472868217" type="line"/>
      <point x="370.884496124031" y="217.31782945736433"/>
      <point x="632.231007751938" y="486.96279069767445"/>
      <point x="740.3054263565891" y="611.1744186046511" type="curve" smooth="yes"/>
      <point x="874.0201550387596" y="764.3821705426357"/>
      <point x="975.1674418604651" y="893.1131782945737"/>
      <point x="975.1674418604651" y="1071.8666666666666" type="curve" smooth="yes"/>
      <point x="975.1674418604651" y="1289.5736434108528"/>
      <point x="831.8426356589148" y="1461.0875968992248"/>
      <point x="561.5341085271318" y="1461.0875968992248" type="curve" smooth="yes"/>
      <point x="305.22635658914726" y="1461.0875968992248"/>
      <point x="126.15658914728682" y="1278.2372093023255"/>
      <point x="126.15658914728682" y="1044.9372093023255" type="curve" smooth="yes"/>
      <point x="126.15658914728682" y="1023.3496124031008"/>
      <point x="126.85038759689922" y="1012.4937984496124"/>
      <point x="130.43798449612405" y="988.5744186046512" type="curve"/>
      <point x="261.24883720930234" y="990.6558139534884" type="line"/>
      <point x="261.24883720930234" y="1022.2434108527132" type="line" smooth="yes"/>
      <point x="261.24883720930234" y="1227.922480620155"/>
      <point x="360.6720930232558" y="1392.848062015504"/>
      <point x="542.6899224806201" y="1392.848062015504" type="curve" smooth="yes"/>
      <point x="655.4937984496124" y="1392.848062015504"/>
      <point x="824.4372093023255" y="1351.0186046511628"/>
      <point x="824.4372093023255" y="1096.2" type="curve" smooth="yes"/>
      <point x="824.4372093023255" y="864.146511627907"/>
      <point x="676.5968992248062" y="661.7573643410852"/>
      <point x="430.7527131782946" y="397.0077519379845" type="curve" smooth="yes"/>
    </contour>
  </outline>
</glyph>
<glyph name="three" format="2">
  <advance width="1049.0054263565892"/>
  <unicode hex="0033"/>
  <note>
three
</note>
  <outline>
    <contour>
      <point x="497.3837209302326" y="-29.531007751937985" type="curve" smooth="yes"/>
      <point x="786.6046511627907" y="-29.531007751937985"/>
      <point x="956.3806201550387" y="145.9875968992248"/>
      <point x="956.3806201550387" y="388.3503875968992" type="curve" smooth="yes"/>
      <point x="956.3806201550387" y="606.3875968992248"/>
      <point x="818.0496124031008" y="745.2"/>
      <point x="616.2674418604652" y="780.6635658914729" type="curve"/>
      <point x="605.1341085271317" y="735.4744186046512" type="line"/>
      <point x="768.4248062015504" y="754.2627906976744"/>
      <point x="923.0426356589147" y="872.6813953488372"/>
      <point x="923.0426356589147" y="1089.8558139534885" type="curve" smooth="yes"/>
      <point x="923.0426356589147" y="1298.031007751938"/>
      <point x="788.3232558139534" y="1457.7751937984497"/>
      <point x="531.6837209302325" y="1457.7751937984497" type="curve" smooth="yes"/>
      <point x="278.56899224806205" y="1457.7751937984497"/>
      <point x="112.3" y="1306.962015503876"/>
      <point x="100.6062015503876" y="1076.8503875968993" type="curve"/>
      <point x="230.3108527131783" y="1076.156589147287" type="line"/>
      <point x="229.78604651162792" y="1254.1713178294574"/>
      <point x="340.4899224806202" y="1386.6418604651162"/>
      <point x="527.3837209302326" y="1386.6418604651162" type="curve" smooth="yes"/>
      <point x="721.913953488372" y="1386.6418604651162"/>
      <point x="790.1627906976744" y="1247.4418604651162"/>
      <point x="790.1627906976744" y="1087.2806201550388" type="curve" smooth="yes"/>
      <point x="790.1627906976744" y="886.8062015503876"/>
      <point x="682.7697674418605" y="787.1131782945737"/>
      <point x="482.9899224806202" y="787.1131782945737" type="curve" smooth="yes"/>
      <point x="291.1317829457364" y="787.1131782945737" type="line"/>
      <point x="291.1317829457364" y="727.7744186046511" type="line"/>
      <point x="486.9899224806202" y="727.7744186046511" type="line" smooth="yes"/>
      <point x="681.1007751937984" y="727.7744186046511"/>
      <point x="804.9751937984496" y="600.7558139534884"/>
      <point x="804.9751937984496" y="387.03178294573644" type="curve" smooth="yes"/>
      <point x="804.9751937984496" y="179.85193798449612"/>
      <point x="684.6201550387597" y="39.52093023255814"/>
      <point x="503.3837209302326" y="39.52093023255814" type="curve" smooth="yes"/>
      <point x="326.522480620155" y="39.52093023255814"/>
      <point x="215.56124031007752" y="172.7077519379845"/>
      <point x="215.56124031007752" y="354.0627906976744" type="curve" smooth="yes"/>
      <point x="215.56124031007752" y="369.0937984496124" type="line"/>
      <point x="73.21860465116279" y="369.0937984496124" type="line"/>
      <point x="73.21860465116279" y="346.1441860465116" type="line" smooth="yes"/>
      <point x="73.21860465116279" y="109.28139534883721"/>
      <point x="237.54418604651164" y="-29.531007751937985"/>
    </contour>
  </outline>
</glyph>
<glyph name="four" format="2">
  <advance width="1043.687596899225"/>
  <unicode hex="0034"/>
  <note>
four
</note>
  <outline>
    <contour>
      <point x="712.8953488372093" y="0.0" type="line"/>
      <point x="816.431007751938" y="0.0" type="line"/>
      <point x="816.431007751938" y="450.5627906976744" type="line"/>
      <point x="722.6984496124031" y="368.3612403100775" type="line"/>
      <point x="991.9875968992249" y="368.3612403100775" type="line"/>
      <point x="991.9875968992249" y="484.83953488372094" type="line"/>
      <point x="722.6984496124031" y="484.83953488372094" type="line"/>
      <point x="816.431007751938" y="390.6922480620155" type="line"/>
      <point x="816.431007751938" y="870.9906976744186" type="line"/>
      <point x="712.8953488372093" y="870.9906976744186" type="line"/>
      <point x="712.8953488372093" y="390.6922480620155" type="line"/>
      <point x="794.9093023255814" y="484.83953488372094" type="line"/>
      <point x="158.4341085271318" y="484.83953488372094" type="line"/>
      <point x="207.14186046511628" y="435.3" type="line"/>
      <point x="368.13488372093025" y="725.0193798449612"/>
      <point x="543.9046511627907" y="1073.6403100775194"/>
      <point x="680.3682170542636" y="1446.706976744186" type="curve"/>
      <point x="575.1829457364341" y="1446.706976744186" type="line"/>
      <point x="418.1813953488372" y="1042.0519379844961"/>
      <point x="228.56744186046512" y="676.6302325581396"/>
      <point x="45.11860465116279" y="368.3612403100775" type="curve"/>
      <point x="794.9093023255814" y="368.3612403100775" type="line"/>
      <point x="712.8953488372093" y="450.5627906976744" type="line"/>
    </contour>
  </outline>
</glyph>
<glyph name="five" format="2">
  <advance width="975.6232558139535"/>
  <unicode hex="0035"/>
  <note>
five
</note>
  <outline>
    <contour>
      <point x="393.09767441860464" y="-26.968992248062015" type="curve" smooth="yes"/>
      <point x="683.424031007752" y="-26.968992248062015"/>
      <point x="900.0046511627907" y="181.72558139534883"/>
      <point x="900.0046511627907" y="455.2" type="curve" smooth="yes"/>
      <point x="900.0046511627907" y="734.8503875968993"/>
      <point x="695.046511627907" y="870.5441860465116"/>
      <point x="463.1403100775194" y="870.5441860465116" type="curve" smooth="yes"/>
      <point x="352.5077519379845" y="870.5441860465116"/>
      <point x="248.65193798449613" y="834.8744186046512"/>
      <point x="178.4519379844961" y="779.8922480620155" type="curve"/>
      <point x="212.83410852713178" y="779.1426356589147" type="line"/>
      <point x="335.72093023255815" y="1350.391472868217" type="line"/>
      <point x="248.83023255813953" y="1295.0837209302326" type="line"/>
      <point x="812.3286821705426" y="1295.0837209302326" type="line"/>
      <point x="812.3286821705426" y="1430.0" type="line"/>
      <point x="262.3682170542636" y="1430.0" type="line"/>
      <point x="119.01860465116279" y="751.6054263565892" type="line"/>
      <point x="164.27131782945736" y="725.7286821705426" type="line"/>
      <point x="245.86511627906978" y="771.0790697674419"/>
      <point x="359.015503875969" y="791.5038759689922"/>
      <point x="425.65193798449616" y="791.5038759689922" type="curve" smooth="yes"/>
      <point x="635.3015503875969" y="791.5038759689922"/>
      <point x="757.1434108527131" y="664.1860465116279"/>
      <point x="757.1434108527131" y="445.48682170542634" type="curve" smooth="yes"/>
      <point x="757.1434108527131" y="210.4875968992248"/>
      <point x="599.8581395348838" y="54.87751937984497"/>
      <point x="392.24108527131784" y="54.87751937984497" type="curve" smooth="yes"/>
      <point x="269.146511627907" y="54.87751937984497"/>
      <point x="151.48217054263566" y="107.6968992248062"/>
      <point x="91.75038759689923" y="159.7906976744186" type="curve"/>
      <point x="58.1124031007752" y="96.25736434108528" type="line"/>
      <point x="140.4062015503876" y="31.844961240310077"/>
      <point x="241.2953488372093" y="-26.968992248062015"/>
    </contour>
  </outline>
</glyph>
<glyph name="six" format="2">
  <advance width="1072.5410852713178"/>
  <unicode hex="0036"/>
  <note>
six
</note>
  <outline>
    <contour>
      <point x="529.0837209302325" y="-33.0" type="curve" smooth="yes"/>
      <point x="825.6720930232558" y="-36.31240310077519"/>
      <point x="1002.5286821705427" y="166.8372093023256"/>
      <point x="1002.5286821705427" y="440.0875968992248" type="curve" smooth="yes"/>
      <point x="1002.5286821705427" y="705.2193798449613"/>
      <point x="831.9162790697675" y="896.1821705426356"/>
      <point x="563.008527131783" y="896.1821705426356" type="curve" smooth="yes"/>
      <point x="382.93565891472866" y="896.1821705426356"/>
      <point x="238.5604651162791" y="794.1713178294574"/>
      <point x="164.4519379844961" y="607.284496124031" type="curve"/>
      <point x="219.15426356589148" y="633.1658914728682" type="line"/>
      <point x="223.1170542635659" y="722.2705426356589"/>
      <point x="234.5542635658915" y="792.4984496124031"/>
      <point x="277.02093023255816" y="898.8658914728683" type="curve" smooth="yes"/>
      <point x="365.5023255813953" y="1126.1612403100776"/>
      <point x="542.1767441860466" y="1292.0232558139535"/>
      <point x="775.1449612403101" y="1347.6162790697674" type="curve"/>
      <point x="773.7573643410852" y="1449.5635658914728" type="line"/>
      <point x="499.79147286821706" y="1403.832558139535"/>
      <point x="334.08527131782944" y="1242.074418604651"/>
      <point x="224.59767441860464" y="1055.6852713178296" type="curve" smooth="yes"/>
      <point x="128.1627906976744" y="887.4542635658914"/>
      <point x="86.9186046511628" y="705.9186046511628"/>
      <point x="86.9186046511628" y="520.4496124031008" type="curve" smooth="yes"/>
      <point x="86.9186046511628" y="141.17596899224804"/>
      <point x="260.2627906976744" y="-29.993798449612402"/>
    </contour>
    <contour>
      <point x="542.9209302325581" y="50.615503875969" type="curve" smooth="yes"/>
      <point x="322.13565891472865" y="53.62170542635659"/>
      <point x="233.05503875968992" y="244.79457364341084"/>
      <point x="235.66744186046512" y="460.61240310077517" type="curve" smooth="yes"/>
      <point x="237.57984496124033" y="639.2736434108527"/>
      <point x="368.64728682170545" y="807.3976744186047"/>
      <point x="567.1581395348837" y="807.3976744186047" type="curve" smooth="yes"/>
      <point x="786.1364341085272" y="807.3976744186047"/>
      <point x="859.55503875969" y="596.1007751937984"/>
      <point x="859.55503875969" y="429.63178294573646" type="curve" smooth="yes"/>
      <point x="859.55503875969" y="235.0891472868217"/>
      <point x="761.2627906976744" y="47.6031007751938"/>
    </contour>
  </outline>
</glyph>
<glyph name="seven" format="2">
  <advance width="959.2434108527132"/>
  <unicode hex="0037"/>
  <note>
seven
</note>
  <outline>
    <contour>
      <point x="236.5077519379845" y="0.0" type="curve"/>
      <point x="362.8813953488372" y="0.0" type="line"/>
      <point x="477.25116279069766" y="550.8937984496124"/>
      <point x="674.0767441860465" y="1051.6263565891472"/>
      <point x="913.031007751938" y="1418.0813953488373" type="curve"/>
      <point x="50.6" y="1418.0813953488373" type="line"/>
      <point x="50.6" y="1278.1775193798449" type="line"/>
      <point x="780.4775193798449" y="1278.1775193798449" type="line"/>
      <point x="747.1387596899225" y="1339.4860465116278" type="line"/>
      <point x="548.4782945736434" y="1033.4023255813954"/>
      <point x="360.184496124031" y="549.8449612403101"/>
    </contour>
  </outline>
</glyph>
<glyph name="eight" format="2">
  <advance width="1044.7922480620155"/>
  <unicode hex="0038"/>
  <note>
eight
</note>
  <outline>
    <contour>
      <point x="512.7953488372093" y="-31.393798449612405" type="curve" smooth="yes"/>
      <point x="785.5286821705427" y="-31.393798449612405"/>
      <point x="958.9798449612404" y="126.18139534883721"/>
      <point x="958.9798449612404" y="385.90077519379844" type="curve" smooth="yes"/>
      <point x="958.9798449612404" y="584.1635658914729"/>
      <point x="853.0480620155039" y="732.5697674418604"/>
      <point x="609.9527131782945" y="821.5263565891473" type="curve" smooth="yes"/>
      <point x="369.1868217054264" y="916.3503875968993"/>
      <point x="291.3046511627907" y="995.6062015503876"/>
      <point x="291.3046511627907" y="1111.8062015503876" type="curve" smooth="yes"/>
      <point x="291.3046511627907" y="1263.6488372093024"/>
      <point x="390.99147286821704" y="1376.7170542635658"/>
      <point x="543.4720930232559" y="1376.7170542635658" type="curve" smooth="yes"/>
      <point x="685.8217054263566" y="1376.7170542635658"/>
      <point x="803.5325581395349" y="1249.8922480620156"/>
      <point x="803.5325581395349" y="1109.1248062015504" type="curve" smooth="yes"/>
      <point x="803.5325581395349" y="996.3441860465116"/>
      <point x="740.0279069767441" y="867.6379844961241"/>
      <point x="519.8410852713179" y="799.437984496124" type="curve"/>
      <point x="641.484496124031" y="771.8992248062016" type="line"/>
      <point x="788.7542635658915" y="833.05503875969"/>
      <point x="891.0728682170543" y="967.5046511627907"/>
      <point x="891.0728682170543" y="1112.3992248062016" type="curve" smooth="yes"/>
      <point x="891.0728682170543" y="1303.6744186046512"/>
      <point x="729.8914728682171" y="1444.3751937984496"/>
      <point x="532.5651162790698" y="1444.3751937984496" type="curve" smooth="yes"/>
      <point x="318.17596899224804" y="1443.6813953488372"/>
      <point x="157.41240310077518" y="1316.9434108527132"/>
      <point x="157.41240310077518" y="1096.7178294573644" type="curve" smooth="yes"/>
      <point x="157.41240310077518" y="929.9232558139535"/>
      <point x="256.0" y="800.5410852713178"/>
      <point x="432.12015503875966" y="732.3782945736434" type="curve" smooth="yes"/>
      <point x="753.4558139534884" y="600.1790697674419"/>
      <point x="816.0062015503876" y="500.09302325581393"/>
      <point x="816.0062015503876" y="368.6" type="curve" smooth="yes"/>
      <point x="816.0062015503876" y="180.39457364341087"/>
      <point x="704.6565891472868" y="50.251937984496124"/>
      <point x="504.2449612403101" y="46.751937984496124" type="curve" smooth="yes"/>
      <point x="275.9643410852713" y="43.251937984496124"/>
      <point x="183.6031007751938" y="210.81395348837208"/>
      <point x="183.6031007751938" y="371.6372093023256" type="curve" smooth="yes"/>
      <point x="182.9093023255814" y="527.8550387596899"/>
      <point x="258.4015503875969" y="662.6922480620156"/>
      <point x="467.5968992248062" y="767.0806201550388" type="curve"/>
      <point x="390.5875968992248" y="790.5875968992248" type="line"/>
      <point x="191.2124031007752" y="704.9255813953488"/>
      <point x="80.21240310077519" y="561.3131782945736"/>
      <point x="80.21240310077519" y="369.54418604651164" type="curve" smooth="yes"/>
      <point x="80.21240310077519" y="149.52480620155038"/>
      <point x="225.3434108527132" y="-31.393798449612405"/>
    </contour>
  </outline>
</glyph>
<glyph name="nine" format="2">
  <advance width="1075.0348837209303"/>
  <unicode hex="0039"/>
  <note>
nine
</note>
  <outline>
    <contour>
      <point x="274.6062015503876" y="-34.350387596899225" type="line"/>
      <point x="464.7519379844961" y="-4.006976744186048"/>
      <point x="610.9697674418604" y="58.86589147286821"/>
      <point x="711.9767441860465" y="158.62248062015505" type="curve" smooth="yes"/>
      <point x="768.0899224806202" y="211.37906976744188"/>
      <point x="817.6279069767442" y="280.86744186046514"/>
      <point x="859.7093023255813" y="357.4488372093023" type="curve" smooth="yes"/>
      <point x="946.2410852713178" y="512.2868217054264"/>
      <point x="987.0224806201551" y="693.5503875968992"/>
      <point x="987.0224806201551" y="881.4635658914729" type="curve" smooth="yes"/>
      <point x="987.0224806201551" y="1243.9372093023255"/>
      <point x="825.584496124031" y="1446.606976744186"/>
      <point x="537.8573643410853" y="1446.8131782945736" type="curve" smooth="yes"/>
      <point x="252.38217054263566" y="1446.625581395349"/>
      <point x="70.0124031007752" y="1241.375968992248"/>
      <point x="70.0124031007752" y="973.7503875968993" type="curve" smooth="yes"/>
      <point x="70.0124031007752" y="699.5744186046512"/>
      <point x="252.46899224806202" y="508.61162790697676"/>
      <point x="509.5387596899225" y="508.61162790697676" type="curve" smooth="yes"/>
      <point x="689.6054263565892" y="508.61162790697676"/>
      <point x="821.4612403100775" y="630.8790697674418"/>
      <point x="902.4891472868217" y="796.0224806201551" type="curve"/>
      <point x="850.6178294573643" y="820.5472868217055" type="line"/>
      <point x="866.924031007752" y="588.5248062015504"/>
      <point x="758.0875968992248" y="414.7217054263566"/>
      <point x="714.2209302325581" y="342.64806201550385" type="curve" smooth="yes"/>
      <point x="615.2395348837209" y="186.75271317829458"/>
      <point x="491.04651162790697" y="112.5906976744186"/>
      <point x="286.40077519379844" y="73.76666666666667" type="curve"/>
    </contour>
    <contour>
      <point x="510.9829457364341" y="605.0527131782945" type="curve" smooth="yes"/>
      <point x="289.1984496124031" y="605.0527131782945"/>
      <point x="215.7612403100775" y="819.1124031007752"/>
      <point x="215.7612403100775" y="983.5062015503876" type="curve" smooth="yes"/>
      <point x="215.7612403100775" y="1177.336434108527"/>
      <point x="319.6658914728682" y="1357.122480620155"/>
      <point x="524.7201550387597" y="1356.9162790697674" type="curve" smooth="yes"/>
      <point x="735.0178294573643" y="1357.4038759689922"/>
      <point x="836.7170542635658" y="1164.874418604651"/>
      <point x="836.9046511627907" y="982.6255813953488" type="curve" smooth="yes"/>
      <point x="837.0922480620155" y="774.5767441860465"/>
      <point x="706.7186046511628" y="605.0527131782945"/>
    </contour>
  </outline>
</glyph>
<glyph name="greater" format="2">
  <advance width="1056.2147286821705"/>
  <unicode hex="003E"/>
  <note>
greater
</note>
  <outline>
    <contour>
      <point x="121.18759689922481" y="308.6643410852713" type="line"/>
      <point x="902.6860465116279" y="644.2604651162791" type="line"/>
      <point x="902.6860465116279" y="721.9581395348837" type="line"/>
      <point x="121.18759689922481" y="1055.8542635658914" type="line"/>
      <point x="121.18759689922481" y="946.6937984496124" type="line"/>
      <point x="740.9186046511628" y="682.6062015503876" type="line"/>
      <point x="121.18759689922481" y="417.82480620155036" type="line"/>
    </contour>
  </outline>
</glyph>
<glyph name="question" format="2">
  <advance width="935.1480620155039"/>
  <unicode hex="003F"/>
  <note>
question
</note>
  <outline>
    <contour>
      <point x="382.59457364341085" y="407.9751937984496" type="curve"/>
      <point x="470.777519379845" y="407.9751937984496" type="line"/>
      <point x="450.7527131782946" y="459.11472868217055"/>
      <point x="430.43333333333334" y="552.284496124031"/>
      <point x="430.43333333333334" y="605.9891472868217" type="curve" smooth="yes"/>
      <point x="430.43333333333334" y="939.446511627907"/>
      <point x="828.1046511627907" y="856.731007751938"/>
      <point x="828.1046511627907" y="1172.1116279069768" type="curve" smooth="yes"/>
      <point x="828.1046511627907" y="1380.9372093023255"/>
      <point x="663.4968992248062" y="1462.0"/>
      <point x="427.1325581395349" y="1462.0" type="curve" smooth="yes"/>
      <point x="162.2124031007752" y="1462.0"/>
      <point x="59.23720930232558" y="1357.0"/>
      <point x="59.23720930232558" y="1169.9558139534884" type="curve" smooth="yes"/>
      <point x="59.23720930232558" y="1158.1620155038759"/>
      <point x="59.23720930232558" y="1148.2434108527132"/>
      <point x="59.23720930232558" y="1118.3736434108528" type="curve"/>
      <point x="194.22248062015507" y="1118.3736434108528" type="line"/>
      <point x="185.46589147286824" y="1159.0565891472868"/>
      <point x="183.67829457364343" y="1190.1697674418604"/>
      <point x="183.67829457364343" y="1193.9" type="curve" smooth="yes"/>
      <point x="183.67829457364343" y="1317.9240310077519"/>
      <point x="280.0527131782946" y="1383.5162790697675"/>
      <point x="424.8263565891473" y="1383.5162790697675" type="curve" smooth="yes"/>
      <point x="571.4062015503876" y="1383.5162790697675"/>
      <point x="676.6558139534884" y="1316.8976744186045"/>
      <point x="676.6558139534884" y="1165.7496124031009" type="curve" smooth="yes"/>
      <point x="676.6558139534884" y="894.070542635659"/>
      <point x="354.6317829457364" y="1009.5798449612403"/>
      <point x="354.6317829457364" y="594.2891472868217" type="curve" smooth="yes"/>
      <point x="354.6317829457364" y="545.0023255813953"/>
      <point x="359.6565891472868" y="484.722480620155"/>
    </contour>
    <contour>
      <point x="430.8201550387597" y="-18.068992248062017" type="curve" smooth="yes"/>
      <point x="479.82713178294574" y="-18.068992248062017"/>
      <point x="516.146511627907" y="25.788372093023256"/>
      <point x="516.146511627907" y="80.74573643410852" type="curve" smooth="yes"/>
      <point x="516.146511627907" y="135.00930232558142"/>
      <point x="479.12713178294575" y="177.5604651162791"/>
      <point x="430.8201550387597" y="177.5604651162791" type="curve" smooth="yes"/>
      <point x="382.51317829457366" y="177.5604651162791"/>
      <point x="345.4937984496124" y="135.00930232558142"/>
      <point x="345.4937984496124" y="80.74573643410852" type="curve" smooth="yes"/>
      <point x="345.4937984496124" y="25.788372093023256"/>
      <point x="381.8131782945736" y="-18.068992248062017"/>
    </contour>
  </outline>
</glyph>
<glyph name="at" format="2">
  <advance width="1746.0426356589148"/>
  <unicode hex="0040"/>
  <note>
at
</note>
  <outline>
    <contour>
      <point x="914.6333333333333" y="-34.16279069767442" type="curve" smooth="yes"/>
      <point x="1210.141085271318" y="-34.16279069767442"/>
      <point x="1473.6488372093024" y="127.63178294573643"/>
      <point x="1607.893023255814" y="376.68992248062017" type="curve"/>
      <point x="1507.7271317829457" y="375.1519379844961" type="line"/>
      <point x="1384.9147286821706" y="176.15193798449613"/>
      <point x="1165.5209302325582" y="48.11472868217055"/>
      <point x="914.4271317829457" y="48.11472868217055" type="curve" smooth="yes"/>
      <point x="533.677519379845" y="48.11472868217055"/>
      <point x="223.25271317829458" y="347.0449612403101"/>
      <point x="223.25271317829458" y="713.9186046511628" type="curve" smooth="yes"/>
      <point x="223.25271317829458" y="1080.1798449612404"/>
      <point x="533.677519379845" y="1379.11007751938"/>
      <point x="914.4271317829457" y="1379.11007751938" type="curve" smooth="yes"/>
      <point x="1249.770542635659" y="1379.11007751938"/>
      <point x="1498.6263565891472" y="1150.898449612403"/>
      <point x="1498.6263565891472" y="836.731007751938" type="curve" smooth="yes"/>
      <point x="1498.6263565891472" y="742.2372093023256"/>
      <point x="1472.3201550387596" y="649.6937984496124"/>
      <point x="1424.4387596899226" y="576.2627906976744" type="curve" smooth="yes"/>
      <point x="1380.3457364341086" y="505.0829457364341"/>
      <point x="1308.5651162790698" y="435.3139534883721"/>
      <point x="1227.5914728682171" y="414.5" type="curve" smooth="yes"/>
      <point x="1192.2232558139535" y="417.968992248062"/>
      <point x="1139.405426356589" y="446.9186046511628"/>
      <point x="1145.1612403100776" y="510.55426356589146" type="curve"/>
      <point x="1293.1186046511627" y="1088.5697674418604" type="line"/>
      <point x="1144.268992248062" y="1088.5697674418604" type="line"/>
      <point x="1118.9821705426357" y="994.4418604651163" type="line"/>
      <point x="1094.656589147287" y="1077.0581395348838"/>
      <point x="1040.268992248062" y="1108.5697674418604"/>
      <point x="949.2883720930232" y="1108.5697674418604" type="curve" smooth="yes"/>
      <point x="680.6372093023256" y="1108.5697674418604"/>
      <point x="477.57906976744187" y="836.5697674418604"/>
      <point x="477.57906976744187" y="591.3488372093024" type="curve" smooth="yes"/>
      <point x="477.57906976744187" y="420.00387596899225"/>
      <point x="583.1488372093023" y="309.6782945736434"/>
      <point x="760.6565891472868" y="309.6782945736434" type="curve" smooth="yes"/>
      <point x="866.3503875968993" y="309.6782945736434"/>
      <point x="950.3744186046512" y="340.146511627907"/>
      <point x="1018.6565891472868" y="466.17054263565893" type="curve"/>
      <point x="1040.2263565891474" y="369.1085271317829"/>
      <point x="1094.2263565891474" y="322.6782945736434"/>
      <point x="1180.3697674418604" y="322.6782945736434" type="curve" smooth="yes"/>
      <point x="1252.5325581395348" y="322.6782945736434"/>
      <point x="1319.7767441860465" y="348.7596899224806"/>
      <point x="1380.4899224806202" y="395.00387596899225" type="curve" smooth="yes"/>
      <point x="1444.8968992248062" y="443.2480620155039"/>
      <point x="1489.284496124031" y="500.1666666666667"/>
      <point x="1526.222480620155" y="574.4108527131783" type="curve" smooth="yes"/>
      <point x="1565.7728682170543" y="654.6550387596899"/>
      <point x="1585.8542635658914" y="742.4302325581396"/>
      <point x="1585.8542635658914" y="832.4496124031008" type="curve" smooth="yes"/>
      <point x="1585.8542635658914" y="1210.2248062015503"/>
      <point x="1308.4472868217053" y="1460.6937984496124"/>
      <point x="914.6333333333333" y="1460.6937984496124" type="curve" smooth="yes"/>
      <point x="483.90077519379844" y="1460.6937984496124"/>
      <point x="136.7186046511628" y="1127.3875968992247"/>
      <point x="136.7186046511628" y="713.9186046511628" type="curve" smooth="yes"/>
      <point x="136.7186046511628" y="299.1434108527132"/>
      <point x="483.206976744186" y="-34.16279069767442"/>
    </contour>
    <contour>
      <point x="795.9503875968992" y="394.5124031007752" type="curve" smooth="yes"/>
      <point x="688.6209302325582" y="394.5124031007752"/>
      <point x="617.6100775193798" y="463.2302325581395"/>
      <point x="617.6100775193798" y="574.6736434108527" type="curve" smooth="yes"/>
      <point x="617.6100775193798" y="812.7162790697674"/>
      <point x="782.2279069767442" y="1028.0170542635658"/>
      <point x="968.4573643410853" y="1028.0170542635658" type="curve" smooth="yes"/>
      <point x="1042.5565891472868" y="1028.0170542635658"/>
      <point x="1067.4124031007752" y="962.0744186046512"/>
      <point x="1067.4124031007752" y="863.5558139534884" type="curve" smooth="yes"/>
      <point x="1067.4124031007752" y="693.5108527131783"/>
      <point x="959.0992248062015" y="394.5124031007752"/>
    </contour>
  </outline>
</glyph>
<glyph name="A" format="2">
  <advance width="1450.1356589147288"/>
  <unicode hex="0041"/>
  <note>
A
</note>
  <anchor x="706.5209302325582" y="14.813953488372093" name="bottom"/>
  <anchor x="1215.8046511627906" y="0.0" name="ogonek"/>
  <anchor x="722.6209302325582" y="1430.0" name="top"/>
  <outline>
    <contour>
      <point x="80.51860465116279" y="0.0" type="line"/>
      <point x="154.71472868217057" y="0.0" type="line"/>
      <point x="687.9" y="1256.6108527131782" type="line"/>
      <point x="666.0069767441861" y="1257.9480620155039" type="line"/>
      <point x="1186.9790697674418" y="0.0" type="line"/>
      <point x="1369.617054263566" y="0.0" type="line"/>
      <point x="723.7209302325581" y="1481.3627906976744" type="line"/>
    </contour>
    <contour>
      <point x="283.25581395348837" y="420.2271317829458" type="line"/>
      <point x="1078.1317829457364" y="420.2271317829458" type="line"/>
      <point x="1046.562015503876" y="500.37984496124034" type="line"/>
      <point x="316.90077519379844" y="500.37984496124034" type="line"/>
    </contour>
  </outline>
</glyph>
<glyph name="B" format="2">
  <advance width="1206.2744186046511"/>
  <unicode hex="0042"/>
  <note>
B
</note>
  <anchor x="573.6147286821705" y="14.813953488372093" name="bottom"/>
  <anchor x="573.6147286821705" y="1430.0" name="top"/>
  <outline>
    <contour>
      <point x="164.0124031007752" y="0.0" type="line"/>
      <point x="578.5077519379845" y="0.0" type="line" smooth="yes"/>
      <point x="913.0488372093023" y="0.0"/>
      <point x="1101.1620155038759" y="145.24341085271317"/>
      <point x="1101.1620155038759" y="402.98837209302326" type="curve" smooth="yes"/>
      <point x="1101.1620155038759" y="605.3883720930232"/>
      <point x="976.2186046511628" y="754.3875968992248"/>
      <point x="782.0806201550388" y="778.3131782945736" type="curve"/>
      <point x="776.8550387596899" y="735.4682170542636" type="line"/>
      <point x="940.5806201550388" y="776.6"/>
      <point x="1049.7302325581395" y="887.2806201550387"/>
      <point x="1049.7302325581395" y="1057.405426356589" type="curve" smooth="yes"/>
      <point x="1049.7302325581395" y="1281.0565891472868"/>
      <point x="875.5418604651163" y="1432.0813953488373"/>
      <point x="592.3573643410853" y="1432.0813953488373" type="curve" smooth="yes"/>
      <point x="164.0124031007752" y="1432.0813953488373" type="line"/>
    </contour>
    <contour>
      <point x="321.8" y="10.206201550387597" type="line"/>
      <point x="321.8" y="772.0069767441861" type="line"/>
      <point x="250.04186046511626" y="720.8612403100775" type="line"/>
      <point x="614.8643410852713" y="720.8612403100775" type="line" smooth="yes"/>
      <point x="799.0875968992248" y="720.8612403100775"/>
      <point x="928.1364341085272" y="612.9744186046512"/>
      <point x="928.1364341085272" y="409.9193798449612" type="curve" smooth="yes"/>
      <point x="928.1364341085272" y="216.25193798449612"/>
      <point x="808.4062015503876" y="75.98992248062015"/>
      <point x="550.208527131783" y="75.98992248062015" type="curve" smooth="yes"/>
      <point x="208.5937984496124" y="75.98992248062015" type="line"/>
    </contour>
    <contour>
      <point x="321.8" y="742.3992248062016" type="line"/>
      <point x="321.8" y="1417.3186046511628" type="line"/>
      <point x="201.68837209302325" y="1356.0914728682171" type="line"/>
      <point x="578.5077519379845" y="1356.0914728682171" type="line" smooth="yes"/>
      <point x="817.206976744186" y="1356.0914728682171"/>
      <point x="880.4860465116279" y="1194.703100775194"/>
      <point x="880.4860465116279" y="1048.7302325581395" type="curve" smooth="yes"/>
      <point x="880.4860465116279" y="852.0379844961241"/>
      <point x="762.9441860465116" y="793.5387596899225"/>
      <point x="592.3573643410853" y="793.5387596899225" type="curve" smooth="yes"/>
      <point x="262.6992248062015" y="793.5387596899225" type="line"/>
    </contour>
  </outline>
</glyph>
<glyph name="C" format="2">
  <advance width="1466.2054263565892"/>
  <unicode hex="0043"/>
  <note>
C
</note>
  <anchor x="726.5519379844961" y="14.813953488372093" name="bottom"/>
  <anchor x="741.5450000000001" y="1430.0" name="top"/>
  <outline>
    <contour>
      <point x="798.6519379844962" y="-17.606976744186046" type="curve" smooth="yes"/>
      <point x="1067.141085271318" y="-17.606976744186046"/>
      <point x="1259.5558139534883" y="108.61317829457364"/>
      <point x="1379.093023255814" y="348.05193798449613" type="curve"/>
      <point x="1223.5558139534883" y="348.05193798449613" type="line"/>
      <point x="1120.0937984496124" y="139.37054263565892"/>
      <point x="966.4883720930233" y="63.17054263565892"/>
      <point x="801.2767441860465" y="63.17054263565892" type="curve" smooth="yes"/>
      <point x="483.4038759689922" y="63.17054263565892"/>
      <point x="270.78682170542635" y="331.50077519379846"/>
      <point x="270.78682170542635" y="715.6186046511627" type="curve" smooth="yes"/>
      <point x="270.78682170542635" y="1106.3426356589148"/>
      <point x="487.3914728682171" y="1367.7542635658915"/>
      <point x="796.6581395348837" y="1367.7542635658915" type="curve" smooth="yes"/>
      <point x="961.5821705426357" y="1367.7542635658915"/>
      <point x="1128.2496124031009" y="1291.0418604651163"/>
      <point x="1223.0806201550388" y="1083.7852713178295" type="curve"/>
      <point x="1371.4426356589147" y="1083.7852713178295" type="line"/>
      <point x="1276.2434108527132" y="1323.4674418604652"/>
      <point x="1051.9782945736433" y="1447.8379844961241"/>
      <point x="797.2705426356589" y="1447.8379844961241" type="curve" smooth="yes"/>
      <point x="391.1635658914729" y="1447.8379844961241"/>
      <point x="106.31860465116279" y="1146.4434108527132"/>
      <point x="106.31860465116279" y="713.9124031007752" type="curve" smooth="yes"/>
      <point x="106.31860465116279" y="265.66279069767444"/>
      <point x="398.5387596899225" y="-17.606976744186046"/>
    </contour>
  </outline>
</glyph>
<glyph name="D" format="2">
  <advance width="1411.167441860465"/>
  <unicode hex="0044"/>
  <note>
D
</note>
  <anchor x="709.746511627907" y="0.24418604651162923" name="bottom"/>
  <anchor x="250.915503875969" y="715.0" name="center"/>
  <anchor x="709.746511627907" y="1430.0" name="top"/>
  <outline>
    <contour>
      <point x="164.0124031007752" y="0.0" type="line"/>
      <point x="535.0403100775194" y="0.0" type="line" smooth="yes"/>
      <point x="769.3364341085271" y="0.0"/>
      <point x="899.5976744186047" y="23.04341085271318"/>
      <point x="1034.85503875969" y="108.20077519379845" type="curve" smooth="yes"/>
      <point x="1193.3852713178294" y="205.32558139534885"/>
      <point x="1300.3488372093022" y="395.1565891472868"/>
      <point x="1300.3488372093022" y="716.0875968992248" type="curve" smooth="yes"/>
      <point x="1300.3488372093022" y="979.6744186046511"/>
      <point x="1226.3294573643411" y="1171.131007751938"/>
      <point x="1089.317054263566" y="1282.3248062015505" type="curve" smooth="yes"/>
      <point x="943.7410852713178" y="1400.706976744186"/>
      <point x="782.3116279069767" y="1432.0813953488373"/>
      <point x="472.7403100775194" y="1432.0813953488373" type="curve" smooth="yes"/>
      <point x="164.0124031007752" y="1432.0813953488373" type="line"/>
    </contour>
    <contour>
      <point x="331.1062015503876" y="10.443410852713178" type="line"/>
      <point x="331.1062015503876" y="1421.637984496124" type="line"/>
      <point x="214.6627906976744" y="1356.0914728682171" type="line"/>
      <point x="538.54496124031" y="1356.0914728682171" type="line" smooth="yes"/>
      <point x="961.7372093023256" y="1356.0914728682171"/>
      <point x="1141.9116279069767" y="1158.5302325581395"/>
      <point x="1141.9116279069767" y="721.0813953488372" type="curve" smooth="yes"/>
      <point x="1141.9116279069767" y="276.6263565891473"/>
      <point x="954.8496124031008" y="75.98992248062015"/>
      <point x="531.9201550387597" y="75.98992248062015" type="curve" smooth="yes"/>
      <point x="214.6627906976744" y="75.98992248062015" type="line"/>
    </contour>
  </outline>
</glyph>
<glyph name="E" format="2">
  <advance width="1098.1736434108527"/>
  <unicode hex="0045"/>
  <note>
E
</note>
  <anchor x="558.2581395348838" y="14.813953488372093" name="bottom"/>
  <anchor x="882.3007751937985" y="0.0" name="ogonek"/>
  <anchor x="573.0333333333333" y="1430.0" name="top"/>
  <anchor x="-2.9806201550387588" y="1430.0" name="topleft"/>
  <outline>
    <contour>
      <point x="164.0124031007752" y="0.0" type="line"/>
      <point x="999.1798449612403" y="0.0" type="line"/>
      <point x="999.1798449612403" y="75.98992248062015" type="line"/>
      <point x="241.484496124031" y="75.98992248062015" type="line"/>
      <point x="321.8" y="10.424806201550387" type="line"/>
      <point x="321.8" y="763.8201550387597" type="line"/>
      <point x="214.06356589147288" y="691.2426356589148" type="line"/>
      <point x="999.1798449612403" y="691.2426356589148" type="line"/>
      <point x="999.1798449612403" y="767.2325581395348" type="line"/>
      <point x="241.484496124031" y="767.2325581395348" type="line"/>
      <point x="321.8" y="701.6674418604651" type="line"/>
      <point x="321.8" y="1421.7813953488371" type="line"/>
      <point x="191.56279069767442" y="1356.0914728682171" type="line"/>
      <point x="999.1798449612403" y="1356.0914728682171" type="line"/>
      <point x="999.1798449612403" y="1432.0813953488373" type="line"/>
      <point x="164.0124031007752" y="1432.0813953488373" type="line"/>
    </contour>
  </outline>
</glyph>
<glyph name="F" format="2">
  <advance width="1069.991472868217"/>
  <unicode hex="0046"/>
  <note>
F
</note>
  <anchor x="551.5325581395349" y="14.813953488372093" name="bottom"/>
  <anchor x="551.5325581395349" y="1430.0" name="top"/>
  <outline>
    <contour>
      <point x="164.0124031007752" y="0.0" type="line"/>
      <point x="321.8" y="0.0" type="line"/>
      <point x="321.8" y="756.0945736434109" type="line"/>
      <point x="200.0" y="685.6922480620156" type="line"/>
      <point x="980.2976744186046" y="685.6922480620156" type="line"/>
      <point x="980.2976744186046" y="760.9883720930233" type="line"/>
      <point x="204.63798449612403" y="760.9883720930233" type="line"/>
      <point x="321.8" y="694.1294573643411" type="line"/>
      <point x="321.8" y="1417.6186046511627" type="line"/>
      <point x="191.56279069767442" y="1356.0914728682171" type="line"/>
      <point x="980.2976744186046" y="1356.0914728682171" type="line"/>
      <point x="980.2976744186046" y="1432.0813953488373" type="line"/>
      <point x="164.0124031007752" y="1432.0813953488373" type="line"/>
    </contour>
  </outline>
</glyph>
<glyph name="G" format="2">
  <advance width="1549.2922480620155"/>
  <unicode hex="0047"/>
  <note>
G
</note>
  <anchor x="761.7209302325581" y="14.813953488372093" name="bottom"/>
  <anchor x="761.7209302325581" y="1430.0" name="top"/>
  <outline>
    <contour>
      <point x="790.8899224806202" y="-17.606976744186046" type="curve" smooth="yes"/>
      <point x="1182.3534883720931" y="-17.606976744186046"/>
      <point x="1430.586046511628" y="253.91860465116278"/>
      <point x="1460.8798449612402" y="635.0813953488372" type="curve"/>
      <point x="1306.2426356589147" y="635.0813953488372" type="line"/>
      <point x="1275.2116279069767" y="295.61317829457363"/>
      <point x="1076.0441860465116" y="67.32635658914728"/>
      <point x="790.1961240310078" y="59.7015503875969" type="curve"/>
      <point x="481.13565891472865" y="68.32635658914728"/>
      <point x="274.25581395348837" y="333.72558139534885"/>
      <point x="274.25581395348837" y="714.9248062015504" type="curve" smooth="yes"/>
      <point x="274.25581395348837" y="1101.0178294573643"/>
      <point x="486.24186046511625" y="1365.2108527131784"/>
      <point x="790.1961240310078" y="1370.5294573643412" type="curve"/>
      <point x="980.3201550387597" y="1367.2170542635658"/>
      <point x="1132.6441860465115" y="1264.2046511627907"/>
      <point x="1221.331007751938" y="1087.2480620155038" type="curve"/>
      <point x="1390.2054263565892" y="1087.2480620155038" type="line"/>
      <point x="1287.7744186046511" y="1304.5992248062016"/>
      <point x="1061.2658914728681" y="1447.8379844961241"/>
      <point x="790.1961240310078" y="1447.8379844961241" type="curve" smooth="yes"/>
      <point x="376.4139534883721" y="1447.8379844961241"/>
      <point x="106.31860465116279" y="1130.343410852713"/>
      <point x="106.31860465116279" y="714.7" type="curve" smooth="yes"/>
      <point x="106.31860465116279" y="293.5186046511628"/>
      <point x="369.25116279069766" y="-17.606976744186046"/>
    </contour>
    <contour>
      <point x="908.9875968992249" y="558.791472868217" type="line"/>
      <point x="1385.239534883721" y="558.791472868217" type="line"/>
      <point x="1385.239534883721" y="634.7813953488372" type="line"/>
      <point x="908.9875968992249" y="634.7813953488372" type="line"/>
    </contour>
  </outline>
</glyph>
<glyph name="H" format="2">
  <advance width="1539.0782945736435"/>
  <unicode hex="0048"/>
  <note>
H
</note>
  <anchor x="769.6891472868217" y="14.813953488372093" name="bottom"/>
  <anchor x="769.6891472868217" y="715.0" name="center"/>
  <anchor x="769.6891472868217" y="1430.0" name="top"/>
  <anchor x="53.01937984496124" y="1430.0" name="topleft"/>
  <outline>
    <contour>
      <point x="164.0124031007752" y="0.0" type="line"/>
      <point x="322.24961240310074" y="0.0" type="line"/>
      <point x="322.24961240310074" y="762.3333333333334" type="line"/>
      <point x="219.84418604651162" y="695.2426356589148" type="line"/>
      <point x="1318.5968992248063" y="695.2426356589148" type="line"/>
      <point x="1216.4348837209302" y="762.3333333333334" type="line"/>
      <point x="1216.4348837209302" y="0.0" type="line"/>
      <point x="1375.0658914728683" y="0.0" type="line"/>
      <point x="1375.0658914728683" y="1432.0813953488373" type="line"/>
      <point x="1216.4348837209302" y="1432.0813953488373" type="line"/>
      <point x="1216.4348837209302" y="704.8356589147287" type="line"/>
      <point x="1318.5968992248063" y="771.9263565891473" type="line"/>
      <point x="219.84418604651162" y="771.9263565891473" type="line"/>
      <point x="322.24961240310074" y="704.8356589147287" type="line"/>
      <point x="322.24961240310074" y="1432.0813953488373" type="line"/>
      <point x="164.0124031007752" y="1432.0813953488373" type="line"/>
    </contour>
  </outline>
</glyph>
<glyph name="I" format="2">
  <advance width="485.1186046511628"/>
  <unicode hex="0049"/>
  <note>
I
</note>
  <anchor x="242.7093023255814" y="14.813953488372093" name="bottom"/>
  <anchor x="261.93565891472866" y="0.0" name="ogonek"/>
  <anchor x="242.7093023255814" y="1430.0" name="top"/>
  <anchor x="23.625581395348835" y="1430.0" name="topleft"/>
  <outline>
    <contour>
      <point x="164.0124031007752" y="0.0" type="line"/>
      <point x="321.8" y="0.0" type="line"/>
      <point x="321.8" y="1432.0813953488373" type="line"/>
      <point x="164.0124031007752" y="1432.0813953488373" type="line"/>
    </contour>
  </outline>
</glyph>
<glyph name="J" format="2">
  <advance width="770.6209302325582"/>
  <unicode hex="004A"/>
  <note>
J
</note>
  <anchor x="409.85503875968993" y="12.013953488372096" name="bottom"/>
  <anchor x="409.85503875968993" y="1434.2" name="top"/>
  <outline>
    <contour>
      <point x="80.4062015503876" y="-40.010852713178295" type="line"/>
      <point x="140.64418604651163" y="-114.88682170542636"/>
      <point x="246.515503875969" y="-153.2813953488372"/>
      <point x="328.9108527131783" y="-153.2813953488372" type="curve" smooth="yes"/>
      <point x="521.4387596899224" y="-153.2813953488372"/>
      <point x="608.9961240310078" y="8.389922480620157"/>
      <point x="608.9961240310078" y="308.4248062015504" type="curve" smooth="yes"/>
      <point x="608.9961240310078" y="1432.7813953488371" type="line"/>
      <point x="451.60232558139535" y="1432.7813953488371" type="line"/>
      <point x="451.60232558139535" y="231.63488372093025" type="line" smooth="yes"/>
      <point x="451.60232558139535" y="-42.47286821705426"/>
      <point x="370.92868217054263" y="-66.32248062015503"/>
      <point x="316.54108527131785" y="-66.32248062015503" type="curve" smooth="yes"/>
      <point x="226.59612403100775" y="-66.32248062015503"/>
      <point x="141.06976744186048" y="-3.2279069767441797"/>
      <point x="80.4062015503876" y="71.54186046511629" type="curve"/>
    </contour>
  </outline>
</glyph>
<glyph name="K" format="2">
  <advance width="1361.706976744186"/>
  <unicode hex="004B"/>
  <note>
K
</note>
  <anchor x="654.970542635659" y="14.813953488372093" name="bottom"/>
  <anchor x="654.970542635659" y="1430.0" name="top"/>
  <outline>
    <contour>
      <point x="164.0124031007752" y="0.0" type="line"/>
      <point x="321.8" y="0.0" type="line"/>
      <point x="321.8" y="1432.0813953488373" type="line"/>
      <point x="164.0124031007752" y="1432.0813953488373" type="line"/>
    </contour>
    <contour>
      <point x="297.3627906976744" y="385.03643410852715" type="line"/>
      <point x="1203.3062015503876" y="1432.0813953488373" type="line"/>
      <point x="1086.0139534883722" y="1432.0813953488373" type="line"/>
      <point x="241.53953488372093" y="447.93023255813955" type="line"/>
    </contour>
    <contour>
      <point x="1103.094573643411" y="0.0" type="line"/>
      <point x="1284.2883720930233" y="0.0" type="line"/>
      <point x="629.4077519379845" y="808.7705426356589" type="line"/>
      <point x="524.3596899224806" y="718.5240310077519" type="line"/>
    </contour>
  </outline>
</glyph>
<glyph name="L" format="2">
  <advance width="1004.6627906976744"/>
  <unicode hex="004C"/>
  <note>
L
</note>
  <anchor x="502.6782945736434" y="14.813953488372093" name="bottom"/>
  <anchor x="236.4341085271318" y="715.0" name="center"/>
  <anchor x="664.1813953488372" y="730.1007751937984" name="dot"/>
  <anchor x="913.5248062015504" y="10.0" name="ogonek"/>
  <anchor x="343.22868217054264" y="1430.0" name="top"/>
  <anchor x="-3.3813953488372164" y="1430.0" name="topleft"/>
  <anchor x="792.5232558139535" y="1430.0" name="topright"/>
  <outline>
    <contour>
      <point x="164.0124031007752" y="0.0" type="line"/>
      <point x="926.6565891472868" y="0.0" type="line"/>
      <point x="926.6565891472868" y="69.05193798449613" type="line"/>
      <point x="204.05658914728681" y="69.05193798449613" type="line"/>
      <point x="322.6062015503876" y="16.38139534883721" type="line"/>
      <point x="322.6062015503876" y="1430.0" type="line"/>
      <point x="164.0124031007752" y="1430.0" type="line"/>
    </contour>
  </outline>
</glyph>
<glyph name="M" format="2">
  <advance width="1652.5922480620154"/>
  <unicode hex="004D"/>
  <note>
M
</note>
  <anchor x="826.2961240310077" y="14.813953488372093" name="bottom"/>
  <anchor x="826.2961240310077" y="1430.0" name="top"/>
  <outline>
    <contour>
      <point x="164.0124031007752" y="0.0" type="line"/>
      <point x="271.63565891472865" y="0.0" type="line"/>
      <point x="271.63565891472865" y="1332.2255813953489" type="line"/>
      <point x="202.6325581395349" y="1313.4496124031007" type="line"/>
      <point x="817.2953488372093" y="50.94806201550388" type="line"/>
      <point x="1394.2387596899225" y="1335.2015503875969" type="line"/>
      <point x="1334.2612403100775" y="1303.7178294573644" type="line"/>
      <point x="1334.2612403100775" y="0.0" type="line"/>
      <point x="1488.5798449612403" y="0.0" type="line"/>
      <point x="1488.5798449612403" y="1432.0813953488373" type="line"/>
      <point x="1323.4240310077519" y="1432.0813953488373" type="line"/>
      <point x="780.4558139534884" y="229.27829457364342" type="line"/>
      <point x="888.3852713178295" y="256.44806201550387" type="line"/>
      <point x="318.21627906976744" y="1432.0813953488373" type="line"/>
      <point x="164.0124031007752" y="1432.0813953488373" type="line"/>
    </contour>
  </outline>
</glyph>
<glyph name="N" format="2">
  <advance width="1498.8767441860466"/>
  <unicode hex="004E"/>
  <note>
N
</note>
  <anchor x="749.5883720930233" y="14.813953488372093" name="bottom"/>
  <anchor x="749.5883720930233" y="1430.0" name="top"/>
  <outline>
    <contour>
      <point x="167.4813953488372" y="0.0" type="line"/>
      <point x="274.4108527131783" y="0.0" type="line"/>
      <point x="274.4108527131783" y="1277.8224806201551" type="line"/>
      <point x="198.07596899224805" y="1308.7124031007752" type="line"/>
      <point x="1192.7666666666667" y="0.0" type="line"/>
      <point x="1334.8643410852712" y="0.0" type="line"/>
      <point x="1334.8643410852712" y="1432.0813953488373" type="line"/>
      <point x="1227.2410852713178" y="1432.0813953488373" type="line"/>
      <point x="1227.2410852713178" y="106.3124031007752" type="line"/>
      <point x="1293.7131782945737" y="127.35581395348837" type="line"/>
      <point x="312.64728682170545" y="1432.0813953488373" type="line"/>
      <point x="164.0124031007752" y="1432.0813953488373" type="line"/>
    </contour>
  </outline>
</glyph>
<glyph name="O" format="2">
  <advance width="1578.3108527131783"/>
  <unicode hex="004F"/>
  <note>
O
</note>
  <anchor x="789.5023255813953" y="0.24418604651162923" name="bottom"/>
  <anchor x="789.5023255813953" y="715.0" name="center"/>
  <anchor x="897.2108527131783" y="0.0" name="ogonek"/>
  <anchor x="789.5023255813953" y="1430.0" name="top"/>
  <anchor x="55.01395348837209" y="1430.0" name="topleft"/>
  <anchor x="1392.0387596899225" y="1430.0" name="topright"/>
  <outline>
    <contour>
      <point x="789.5023255813953" y="-17.606976744186046" type="curve" smooth="yes"/>
      <point x="1208.3596899224806" y="-17.606976744186046"/>
      <point x="1471.9922480620155" y="294.2062015503876"/>
      <point x="1471.9922480620155" y="712.6186046511627" type="curve" smooth="yes"/>
      <point x="1471.9922480620155" y="1131.331007751938"/>
      <point x="1206.3658914728683" y="1447.8379844961241"/>
      <point x="789.5023255813953" y="1447.8379844961241" type="curve" smooth="yes"/>
      <point x="374.3325581395349" y="1447.8379844961241"/>
      <point x="106.31860465116279" y="1131.731007751938"/>
      <point x="106.31860465116279" y="712.6186046511627" type="curve" smooth="yes"/>
      <point x="106.31860465116279" y="294.9062015503876"/>
      <point x="370.6387596899225" y="-17.606976744186046"/>
    </contour>
    <contour>
      <point x="789.5023255813953" y="60.395348837209305" type="curve"/>
      <point x="481.13565891472865" y="69.0201550387597"/>
      <point x="274.25581395348837" y="334.4193798449612"/>
      <point x="274.25581395348837" y="714.231007751938" type="curve" smooth="yes"/>
      <point x="274.25581395348837" y="1099.6302325581396"/>
      <point x="486.24186046511625" y="1364.5170542635658"/>
      <point x="789.5023255813953" y="1370.5294573643412" type="curve"/>
      <point x="1092.7627906976745" y="1364.5170542635658"/>
      <point x="1304.7488372093023" y="1099.6302325581396"/>
      <point x="1304.7488372093023" y="714.231007751938" type="curve" smooth="yes"/>
      <point x="1304.7488372093023" y="333.72558139534885"/>
      <point x="1098.5627906976745" y="69.0201550387597"/>
    </contour>
  </outline>
</glyph>
<glyph name="P" format="2">
  <advance width="1079.4124031007752"/>
  <unicode hex="0050"/>
  <note>
P
</note>
  <anchor x="530.6837209302325" y="-40.689922480620154" name="bottom"/>
  <anchor x="530.6837209302325" y="1430.0" name="top"/>
  <outline>
    <contour>
      <point x="164.0124031007752" y="0.0" type="line"/>
      <point x="318.331007751938" y="0.0" type="line"/>
      <point x="318.331007751938" y="644.0116279069767" type="line"/>
      <point x="244.51007751937985" y="596.8038759689922" type="line"/>
      <point x="509.20542635658916" y="596.8038759689922" type="line" smooth="yes"/>
      <point x="643.6674418604651" y="596.8038759689922"/>
      <point x="744.0108527131783" y="623.2100775193799"/>
      <point x="826.2364341085272" y="674.8976744186047" type="curve" smooth="yes"/>
      <point x="931.193023255814" y="741.7100775193799"/>
      <point x="983.8" y="869.1612403100776"/>
      <point x="983.8" y="1014.05503875969" type="curve" smooth="yes"/>
      <point x="983.8" y="1149.55503875969"/>
      <point x="940.8496124031008" y="1257.1868217054264"/>
      <point x="860.5806201550388" y="1324.4744186046512" type="curve" smooth="yes"/>
      <point x="774.1984496124031" y="1395.1062015503876"/>
      <point x="656.8170542635659" y="1432.0813953488373"/>
      <point x="493.5480620155039" y="1432.0813953488373" type="curve" smooth="yes"/>
      <point x="164.0124031007752" y="1432.0813953488373" type="line"/>
    </contour>
    <contour>
      <point x="318.331007751938" y="614.4790697674418" type="line"/>
      <point x="318.331007751938" y="1416.6937984496124" type="line"/>
      <point x="184.97519379844962" y="1360.9480620155039" type="line"/>
      <point x="468.0178294573643" y="1360.9480620155039" type="line" smooth="yes"/>
      <point x="726.2077519379845" y="1360.9480620155039"/>
      <point x="826.2627906976744" y="1247.7852713178295"/>
      <point x="826.2627906976744" y="1007.2108527131783" type="curve" smooth="yes"/>
      <point x="826.2627906976744" y="798.0263565891473"/>
      <point x="731.7457364341085" y="671.4062015503876"/>
      <point x="468.0178294573643" y="671.4062015503876" type="curve" smooth="yes"/>
      <point x="270.27441860465115" y="671.4062015503876" type="line"/>
    </contour>
  </outline>
</glyph>
<glyph name="Q" format="2">
  <advance width="1578.3108527131783"/>
  <unicode hex="0051"/>
  <note>
Q
</note>
  <anchor x="774.1837209302325" y="33.41472868217055" name="bottom"/>
  <anchor x="774.1837209302325" y="1407.9302325581396" name="top"/>
  <anchor x="789.5023255813953" y="734.1064153100775" name="center"/>
  <anchor x="897.2108527131783" y="15.594573643410854" name="ogonek"/>
  <anchor x="55.01395348837209" y="1452.618256976744" name="topleft"/>
  <anchor x="1392.0387596899225" y="1452.618256976744" name="topright"/>
  <outline>
    <contour>
      <point x="1027.0906976744186" y="-382.84418604651165" type="curve" smooth="yes"/>
      <point x="1120.2992248062014" y="-382.84418604651165"/>
      <point x="1148.2372093023255" y="-372.2937984496124"/>
      <point x="1145.4744186046512" y="-300.10387596899227" type="curve"/>
      <point x="1118.398449612403" y="-300.10387596899227"/>
      <point x="1091.0162790697675" y="-300.10387596899227"/>
      <point x="1063.9403100775194" y="-300.10387596899227" type="curve" smooth="yes"/>
      <point x="921.6046511627907" y="-300.10387596899227"/>
      <point x="836.1806201550388" y="-260.71085271317827"/>
      <point x="836.1806201550388" y="-148.94341085271319" type="curve" smooth="yes"/>
      <point x="836.1806201550388" y="41.682945736434114" type="line"/>
      <point x="691.393023255814" y="41.682945736434114" type="line"/>
      <point x="691.393023255814" y="-155.51162790697674" type="line" smooth="yes"/>
      <point x="691.393023255814" y="-248.67441860465115"/>
      <point x="748.231007751938" y="-311.4875968992248"/>
      <point x="814.9077519379845" y="-343.2317829457364" type="curve" smooth="yes"/>
      <point x="872.2209302325581" y="-371.13798449612403"/>
      <point x="926.6961240310078" y="-382.84418604651165"/>
    </contour>
    <component base="O" yScale="1.0049116666666666" yOffset="15.594573643410854"/>
  </outline>
</glyph>
<glyph name="R" format="2">
  <advance width="1140.1062015503876"/>
  <unicode hex="0052"/>
  <note>
R
</note>
  <anchor x="564.6527131782946" y="14.813953488372093" name="bottom"/>
  <anchor x="564.6527131782946" y="1430.0" name="top"/>
  <outline>
    <contour>
      <point x="164.0124031007752" y="0.0" type="line"/>
      <point x="318.331007751938" y="0.0" type="line"/>
      <point x="318.331007751938" y="699.4821705426357" type="line"/>
      <point x="233.8968992248062" y="656.2302325581395" type="line"/>
      <point x="590.460465116279" y="656.2302325581395" type="line"/>
      <point x="613.6341085271317" y="656.2302325581395" type="line"/>
      <point x="796.6596899224807" y="684.6666666666666"/>
      <point x="983.8" y="772.9356589147287"/>
      <point x="983.8" y="1053.605426356589" type="curve" smooth="yes"/>
      <point x="983.8" y="1317.4992248062015"/>
      <point x="757.05503875969" y="1432.0813953488373"/>
      <point x="493.5480620155039" y="1432.0813953488373" type="curve" smooth="yes"/>
      <point x="164.0124031007752" y="1432.0813953488373" type="line"/>
    </contour>
    <contour>
      <point x="259.5674418604651" y="727.3635658914728" type="line"/>
      <point x="318.331007751938" y="677.1550387596899" type="line"/>
      <point x="318.331007751938" y="1418.8317829457364" type="line"/>
      <point x="187.41240310077518" y="1360.9480620155039" type="line"/>
      <point x="468.0178294573643" y="1360.9480620155039" type="line" smooth="yes"/>
      <point x="684.2077519379845" y="1360.9480620155039"/>
      <point x="826.2627906976744" y="1284.5294573643412"/>
      <point x="826.2627906976744" y="1056.4744186046512" type="curve" smooth="yes"/>
      <point x="826.2627906976744" y="828.5263565891473"/>
      <point x="696.7457364341085" y="727.3635658914728"/>
      <point x="496.0178294573643" y="727.3635658914728" type="curve" smooth="yes"/>
    </contour>
    <contour>
      <point x="463.5635658914729" y="656.2302325581395" type="line"/>
      <point x="522.2635658914729" y="656.2302325581395"/>
      <point x="607.8751937984496" y="653.7558139534883"/>
      <point x="674.9635658914729" y="610.3302325581395" type="curve" smooth="yes"/>
      <point x="739.8751937984496" y="568.2558139534883"/>
      <point x="773.2697674418605" y="539.1054263565892"/>
      <point x="837.2635658914729" y="232.98062015503876" type="curve" smooth="yes"/>
      <point x="840.675968992248" y="215.62480620155037"/>
      <point x="875.575968992248" y="43.224806201550386"/>
      <point x="885.2821705426356" y="0.0" type="curve"/>
      <point x="1038.9937984496123" y="0.0" type="line"/>
      <point x="1018.2875968992248" y="85.8124031007752"/>
      <point x="991.9875968992249" y="202.1186046511628"/>
      <point x="971.7751937984497" y="304.48062015503876" type="curve" smooth="yes"/>
      <point x="937.9813953488372" y="470.83720930232556"/>
      <point x="900.0682170542635" y="566.4372093023255"/>
      <point x="850.9751937984496" y="618.0302325581396" type="curve" smooth="yes"/>
      <point x="793.0116279069767" y="677.4"/>
      <point x="745.9116279069767" y="678.9744186046512"/>
      <point x="710.4736434108527" y="685.9930232558139" type="curve"/>
    </contour>
  </outline>
</glyph>
<glyph name="S" format="2">
  <advance width="1161.1418604651162"/>
  <unicode hex="0053"/>
  <note>
S
</note>
  <anchor x="571.6209302325582" y="14.813953488372093" name="bottom"/>
  <anchor x="571.6209302325582" y="1430.0" name="top"/>
  <outline>
    <contour>
      <point x="580.3147286821705" y="-30.55658914728682" type="curve" smooth="yes"/>
      <point x="915.1472868217054" y="-30.55658914728682"/>
      <point x="1059.229457364341" y="146.6062015503876"/>
      <point x="1059.229457364341" y="402.26356589147287" type="curve" smooth="yes"/>
      <point x="1059.229457364341" y="636.7635658914729"/>
      <point x="882.5744186046512" y="748.1325581395349"/>
      <point x="616.8713178294573" y="813.6139534883721" type="curve" smooth="yes"/>
      <point x="384.63643410852717" y="872.7751937984497"/>
      <point x="297.3612403100775" y="981.1821705426356"/>
      <point x="297.3612403100775" y="1112.824031007752" type="curve" smooth="yes"/>
      <point x="297.3612403100775" y="1281.0674418604651"/>
      <point x="405.37209302325584" y="1385.0286821705427"/>
      <point x="561.7333333333333" y="1385.0286821705427" type="curve" smooth="yes"/>
      <point x="748.570542635659" y="1385.0286821705427"/>
      <point x="879.6364341085272" y="1248.7162790697676"/>
      <point x="888.3612403100775" y="1108.5178294573643" type="curve"/>
      <point x="1028.160465116279" y="1108.5178294573643" type="line"/>
      <point x="999.9666666666667" y="1323.1744186046512"/>
      <point x="819.0542635658915" y="1464.3937984496124"/>
      <point x="572.1085271317829" y="1464.3937984496124" type="curve" smooth="yes"/>
      <point x="290.2496124031008" y="1464.3937984496124"/>
      <point x="146.85581395348837" y="1304.5627906976745"/>
      <point x="146.85581395348837" y="1086.0674418604651" type="curve" smooth="yes"/>
      <point x="146.85581395348837" y="878.9674418604651"/>
      <point x="298.837984496124" y="770.5472868217055"/>
      <point x="542.1263565891472" y="700.722480620155" type="curve" smooth="yes"/>
      <point x="778.2077519379845" y="629.2976744186046"/>
      <point x="910.1744186046511" y="567.2294573643411"/>
      <point x="910.1744186046511" y="361.67519379844964" type="curve" smooth="yes"/>
      <point x="910.1744186046511" y="192.6325581395349"/>
      <point x="825.7" y="51.58372093023256"/>
      <point x="586.9961240310078" y="51.58372093023256" type="curve" smooth="yes"/>
      <point x="386.80387596899226" y="51.58372093023256"/>
      <point x="258.4984496124031" y="158.38992248062016"/>
      <point x="233.74263565891474" y="395.1372093023256" type="curve"/>
      <point x="94.4124031007752" y="395.1372093023256" type="line"/>
      <point x="114.36821705426357" y="115.82558139534883"/>
      <point x="283.6186046511628" y="-30.55658914728682"/>
    </contour>
  </outline>
</glyph>
<glyph name="T" format="2">
  <advance width="1250.2782945736435"/>
  <unicode hex="0054"/>
  <note>
T
</note>
  <anchor x="625.2891472868217" y="14.813953488372093" name="bottom"/>
  <anchor x="625.2891472868217" y="715.0" name="center"/>
  <anchor x="625.2891472868217" y="1430.0" name="top"/>
  <outline>
    <contour>
      <point x="545.5922480620155" y="0.0" type="line"/>
      <point x="704.6860465116279" y="0.0" type="line"/>
      <point x="704.6860465116279" y="1413.5434108527131" type="line"/>
      <point x="587.9007751937985" y="1326.2581395348836" type="line"/>
      <point x="1171.5782945736435" y="1326.2581395348836" type="line"/>
      <point x="1171.5782945736435" y="1432.0813953488373" type="line"/>
      <point x="78.7" y="1432.0813953488373" type="line"/>
      <point x="78.7" y="1326.2581395348836" type="line"/>
      <point x="662.377519379845" y="1326.2581395348836" type="line"/>
      <point x="545.5922480620155" y="1413.5434108527131" type="line"/>
    </contour>
  </outline>
</glyph>
<glyph name="U" format="2">
  <advance width="1465.2100775193799"/>
  <unicode hex="0055"/>
  <note>
U
</note>
  <anchor x="733.4519379844961" y="14.813953488372093" name="bottom"/>
  <anchor x="876.415503875969" y="0.0" name="ogonek"/>
  <anchor x="733.4519379844961" y="1430.0" name="top"/>
  <anchor x="1373.9829457364342" y="1430.0" name="topright"/>
  <outline>
    <contour>
      <point x="733.1519379844962" y="-29.550387596899224" type="curve" smooth="yes"/>
      <point x="1059.4348837209302" y="-29.550387596899224"/>
      <point x="1325.0976744186046" y="236.4937984496124"/>
      <point x="1325.0976744186046" y="557.5798449612403" type="curve" smooth="yes"/>
      <point x="1325.0976744186046" y="1432.0813953488373" type="line"/>
      <point x="1216.993023255814" y="1432.0813953488373" type="line"/>
      <point x="1214.2178294573644" y="537.3046511627907" type="line" smooth="yes"/>
      <point x="1213.524031007752" y="261.23875968992246"/>
      <point x="983.2271317829458" y="47.13333333333334"/>
      <point x="731.7519379844962" y="47.13333333333334" type="curve" smooth="yes"/>
      <point x="491.977519379845" y="47.13333333333334"/>
      <point x="288.1992248062015" y="243.8937984496124"/>
      <point x="288.1992248062015" y="547.7116279069768" type="curve" smooth="yes"/>
      <point x="288.1992248062015" y="1432.0813953488373" type="line"/>
      <point x="141.5124031007752" y="1432.0813953488373" type="line"/>
      <point x="141.5124031007752" y="544.2116279069768" type="line" smooth="yes"/>
      <point x="141.5124031007752" y="197.97519379844962"/>
      <point x="429.9875968992248" y="-29.550387596899224"/>
    </contour>
  </outline>
</glyph>
<glyph name="V" format="2">
  <advance width="1413.2217054263565"/>
  <unicode hex="0056"/>
  <note>
V
</note>
  <anchor x="707.3077519379844" y="14.813953488372093" name="bottom"/>
  <anchor x="707.3077519379844" y="1430.0" name="top"/>
  <outline>
    <contour>
      <point x="711.2077519379845" y="-36.724806201550386" type="line"/>
      <point x="1331.3093023255815" y="1431.3813953488373" type="line"/>
      <point x="1246.9558139534884" y="1431.3813953488373" type="line"/>
      <point x="705.0891472868217" y="126.68217054263566" type="line"/>
      <point x="773.4658914728682" y="187.38372093023256" type="line"/>
      <point x="250.8124031007752" y="1432.0813953488373" type="line"/>
      <point x="81.21240310077519" y="1431.3813953488373" type="line"/>
    </contour>
  </outline>
</glyph>
<glyph name="W" format="2">
  <advance width="2013.182945736434"/>
  <unicode hex="0057"/>
  <note>
W
</note>
  <anchor x="1006.5883720930233" y="14.813953488372093" name="bottom"/>
  <anchor x="1006.5883720930233" y="1430.0" name="top"/>
  <outline>
    <contour>
      <point x="1342.7077519379845" y="-33.25581395348837" type="line"/>
      <point x="1931.270542635659" y="1431.3813953488373" type="line"/>
      <point x="1875.6813953488372" y="1431.3813953488373" type="line"/>
      <point x="1344.539534883721" y="115.6" type="line"/>
      <point x="1396.546511627907" y="208.31007751937986" type="line"/>
      <point x="884.4116279069767" y="1432.0813953488373" type="line"/>
      <point x="715.2054263565891" y="1431.3813953488373" type="line"/>
    </contour>
    <contour>
      <point x="706.6333333333333" y="-33.25581395348837" type="line"/>
      <point x="1046.9023255813954" y="815.4255813953489" type="line"/>
      <point x="1027.3333333333333" y="907.3480620155038" type="line"/>
      <point x="708.5589147286821" y="115.8813953488372" type="line"/>
      <point x="763.2472868217054" y="204.14728682170542" type="line"/>
      <point x="250.4186046511628" y="1432.0813953488373" type="line"/>
      <point x="81.21240310077519" y="1431.3813953488373" type="line"/>
    </contour>
    <contour>
      <point x="1064.577519379845" y="798.0806201550388" type="line"/>
      <point x="1314.1651162790697" y="1431.3813953488373" type="line"/>
      <point x="1257.8821705426355" y="1431.3813953488373" type="line"/>
      <point x="1044.6147286821706" y="890.0031007751938" type="line"/>
    </contour>
  </outline>
</glyph>
<glyph name="X" format="2">
  <advance width="1277.5007751937985"/>
  <unicode hex="0058"/>
  <note>
X
</note>
  <anchor x="638.5596899224806" y="14.813953488372093" name="bottom"/>
  <anchor x="638.5596899224806" y="1430.0" name="top"/>
  <outline>
    <contour>
      <point x="997.1682170542636" y="0.0" type="line"/>
      <point x="1194.1883720930232" y="0.0" type="line"/>
      <point x="285.53178294573644" y="1429.4" type="line"/>
      <point x="88.21162790697674" y="1429.4" type="line"/>
    </contour>
    <contour>
      <point x="93.76279069767442" y="0.0" type="line"/>
      <point x="191.78527131782946" y="0.0" type="line"/>
      <point x="660.5108527131783" y="730.0441860465116" type="line"/>
      <point x="604.4651162790698" y="796.0968992248062" type="line"/>
    </contour>
    <contour>
      <point x="649.6031007751938" y="689.3728682170542" type="line"/>
      <point x="1124.8798449612402" y="1432.0813953488373" type="line"/>
      <point x="1027.5511627906976" y="1432.0813953488373" type="line"/>
      <point x="592.8635658914728" y="755.4255813953488" type="line"/>
    </contour>
  </outline>
</glyph>
<glyph name="Y" format="2">
  <advance width="1089.9852713178295"/>
  <unicode hex="0059"/>
  <note>
Y
</note>
  <anchor x="549.6147286821706" y="6.937984496124031" name="bottom"/>
  <anchor x="544.6457364341086" y="1430.0" name="top"/>
  <anchor x="30.706201550387597" y="1430.0" name="topleft"/>
  <outline>
    <contour>
      <point x="476.49302325581397" y="0.0" type="line"/>
      <point x="634.2806201550388" y="0.0" type="line"/>
      <point x="634.2806201550388" y="621.4682170542636" type="line"/>
      <point x="1009.4728682170543" y="1432.0813953488373" type="line"/>
      <point x="929.6511627906976" y="1432.0813953488373" type="line"/>
      <point x="530.6883720930233" y="565.4829457364341" type="line"/>
      <point x="622.0922480620155" y="673.970542635659" type="line"/>
      <point x="268.4193798449612" y="1432.0813953488373" type="line"/>
      <point x="79.81860465116279" y="1432.0813953488373" type="line"/>
      <point x="476.49302325581397" y="612.1434108527131" type="line"/>
    </contour>
  </outline>
</glyph>
<glyph name="Z" format="2">
  <advance width="1258.679069767442"/>
  <unicode hex="005A"/>
  <note>
Z
</note>
  <anchor x="629.339534883721" y="14.813953488372093" name="bottom"/>
  <anchor x="629.339534883721" y="715.0" name="center"/>
  <anchor x="629.339534883721" y="1430.0" name="top"/>
  <outline>
    <contour>
      <point x="78.1124031007752" y="0.0" type="line"/>
      <point x="1164.1666666666667" y="0.0" type="line"/>
      <point x="1163.9542635658916" y="98.90387596899225" type="line"/>
      <point x="142.10697674418606" y="98.90387596899225" type="line"/>
      <point x="226.14961240310078" y="14.61860465116279" type="line"/>
      <point x="1160.6666666666667" y="1432.0813953488373" type="line"/>
      <point x="174.95658914728682" y="1432.0813953488373" type="line"/>
      <point x="174.95658914728682" y="1333.1775193798449" type="line"/>
      <point x="1076.632558139535" y="1333.1775193798449" type="line"/>
      <point x="1011.1480620155039" y="1414.9751937984497" type="line"/>
    </contour>
  </outline>
</glyph>
<glyph name="bracketleft" format="2">
  <advance width="610.2651162790697"/>
  <unicode hex="005B"/>
  <note>
bracketleft
</note>
  <outline>
    <contour>
      <point x="159.7062015503876" y="-396.4124031007752" type="line"/>
      <point x="530.3651162790698" y="-396.4124031007752" type="line"/>
      <point x="530.3651162790698" y="-292.8782945736434" type="line"/>
      <point x="261.4906976744186" y="-292.8782945736434" type="line"/>
      <point x="261.4906976744186" y="1360.2472868217055" type="line"/>
      <point x="530.3651162790698" y="1360.2472868217055" type="line"/>
      <point x="530.3651162790698" y="1463.0875968992248" type="line"/>
      <point x="159.7062015503876" y="1463.0875968992248" type="line"/>
    </contour>
  </outline>
</glyph>
<glyph name="bracketright" format="2">
  <advance width="610.2651162790697"/>
  <unicode hex="005D"/>
  <note>
bracketright
</note>
  <outline>
    <contour>
      <point x="79.9" y="-396.4124031007752" type="line"/>
      <point x="450.55891472868217" y="-396.4124031007752" type="line"/>
      <point x="450.55891472868217" y="1463.0875968992248" type="line"/>
      <point x="79.9" y="1463.0875968992248" type="line"/>
      <point x="79.9" y="1360.2472868217055" type="line"/>
      <point x="349.46821705426356" y="1360.2472868217055" type="line"/>
      <point x="349.46821705426356" y="-292.8782945736434" type="line"/>
      <point x="79.9" y="-292.8782945736434" type="line"/>
    </contour>
  </outline>
</glyph>
<glyph name="asciicircum" format="2">
  <advance width="1065.4503875968992"/>
  <unicode hex="005E"/>
  <note>
asciicircum
</note>
  <outline>
    <contour>
      <point x="123.4186046511628" y="825.5108527131783" type="line"/>
      <point x="238.9542635658915" y="825.5108527131783" type="line"/>
      <point x="568.2798449612403" y="1386.0480620155038" type="line"/>
      <point x="495.5953488372093" y="1387.117054263566" type="line"/>
      <point x="826.4961240310078" y="825.5108527131783" type="line"/>
      <point x="942.0317829457365" y="825.5108527131783" type="line"/>
      <point x="573.2116279069768" y="1451.6558139534884" type="line"/>
      <point x="490.23875968992246" y="1451.6558139534884" type="line"/>
    </contour>
  </outline>
</glyph>
<glyph name="underscore" format="2">
  <advance width="1375.3418604651163"/>
  <unicode hex="005F"/>
  <note>
underscore
</note>
  <outline>
    <contour>
      <point x="81.0875968992248" y="-357.7643410852713" type="line"/>
      <point x="1294.2542635658915" y="-357.7643410852713" type="line"/>
      <point x="1294.2542635658915" y="-261.54883720930235" type="line"/>
      <point x="81.0875968992248" y="-261.54883720930235" type="line"/>
    </contour>
  </outline>
</glyph>
<glyph name="a" format="2">
  <advance width="1130.0813953488373"/>
  <unicode hex="0061"/>
  <note>
a
</note>
  <anchor x="523.9519379844961" y="5.794573643410853" name="bottom"/>
  <anchor x="947.4170542635659" y="0.0" name="ogonek"/>
  <anchor x="526.9519379844961" y="947.3565891472869" name="top"/>
  <outline>
    <contour>
      <point x="506.2201550387597" y="-29.36279069767442" type="curve" smooth="yes"/>
      <point x="715.8961240310077" y="-29.36279069767442"/>
      <point x="850.4333333333334" y="88.13100775193799"/>
      <point x="901.8457364341085" y="295.18837209302325" type="curve"/>
      <point x="866.6255813953488" y="329.85193798449615" type="line"/>
      <point x="859.4945736434108" y="0.0" type="line"/>
      <point x="1007.4751937984496" y="0.0" type="line"/>
      <point x="1007.4751937984496" y="943.0317829457365" type="line"/>
      <point x="858.4069767441861" y="943.0317829457365" type="line"/>
      <point x="858.4069767441861" y="594.9612403100775" type="line"/>
      <point x="899.6705426356589" y="626.4372093023255" type="line"/>
      <point x="850.1271317829458" y="838.1317829457364"/>
      <point x="712.5147286821706" y="969.7255813953489"/>
      <point x="504.5325581395349" y="969.7255813953489" type="curve" smooth="yes"/>
      <point x="240.06279069767442" y="969.7255813953489"/>
      <point x="75.9124031007752" y="753.2193798449613"/>
      <point x="75.9124031007752" y="458.868992248062" type="curve" smooth="yes"/>
      <point x="75.9124031007752" y="166.91860465116278"/>
      <point x="241.04418604651164" y="-29.36279069767442"/>
    </contour>
    <contour>
      <point x="523.377519379845" y="51.30852713178295" type="curve" smooth="yes"/>
      <point x="331.4666666666667" y="51.30852713178295"/>
      <point x="221.41782945736435" y="194.18217054263567"/>
      <point x="221.41782945736435" y="467.4813953488372" type="curve" smooth="yes"/>
      <point x="221.41782945736435" y="745.2868217054264"/>
      <point x="336.67286821705426" y="888.3604651162791"/>
      <point x="521.6899224806201" y="888.3604651162791" type="curve" smooth="yes"/>
      <point x="710.8131782945736" y="888.3604651162791"/>
      <point x="840.7372093023256" y="715.6108527131782"/>
      <point x="840.7372093023256" y="457.4813953488372" type="curve" smooth="yes"/>
      <point x="840.7372093023256" y="198.23953488372092"/>
      <point x="706.7131782945737" y="51.30852713178295"/>
    </contour>
  </outline>
</glyph>
<glyph name="b" format="2">
  <advance width="1136.668992248062"/>
  <unicode hex="0062"/>
  <note>
b
</note>
  <anchor x="534.2720930232558" y="21.058139534883722" name="bottom"/>
  <anchor x="534.2720930232558" y="1516.7751937984497" name="top"/>
  <outline>
    <contour>
      <point x="631.1488372093023" y="-26.587596899224806" type="curve" smooth="yes"/>
      <point x="896.0248062015504" y="-26.587596899224806"/>
      <point x="1061.4565891472869" y="169.3937984496124"/>
      <point x="1061.4565891472869" y="460.25658914728683" type="curve" smooth="yes"/>
      <point x="1061.4565891472869" y="753.5193798449612"/>
      <point x="897.6062015503876" y="969.7255813953489"/>
      <point x="632.8364341085271" y="969.7255813953489" type="curve" smooth="yes"/>
      <point x="425.1542635658915" y="969.7255813953489"/>
      <point x="287.3356589147287" y="838.2255813953489"/>
      <point x="237.3984496124031" y="627.5248062015504" type="curve"/>
      <point x="278.962015503876" y="594.9612403100775" type="line"/>
      <point x="278.962015503876" y="1516.7751937984497" type="line"/>
      <point x="132.81240310077519" y="1516.7751937984497" type="line"/>
      <point x="132.81240310077519" y="0.0" type="line"/>
      <point x="277.27441860465115" y="0.0" type="line"/>
      <point x="277.27441860465115" y="329.55193798449613" type="line"/>
      <point x="235.3170542635659" y="297.38217054263566" type="line"/>
      <point x="287.02945736434106" y="91.5062015503876"/>
      <point x="421.66046511627906" y="-26.587596899224806"/>
    </contour>
    <contour>
      <point x="613.9914728682171" y="53.38992248062016" type="curve" smooth="yes"/>
      <point x="430.262015503876" y="53.38992248062016"/>
      <point x="296.237984496124" y="200.62093023255815"/>
      <point x="296.237984496124" y="459.5627906976744" type="curve" smooth="yes"/>
      <point x="296.237984496124" y="716.9046511627907"/>
      <point x="426.162015503876" y="889.3542635658914"/>
      <point x="615.6790697674419" y="889.3542635658914" type="curve" smooth="yes"/>
      <point x="800.3961240310077" y="889.3542635658914"/>
      <point x="921.5511627906977" y="746.6744186046511"/>
      <point x="921.5511627906977" y="468.868992248062" type="curve" smooth="yes"/>
      <point x="921.5511627906977" y="196.26356589147287"/>
      <point x="805.9023255813953" y="53.38992248062016"/>
    </contour>
  </outline>
</glyph>
<glyph name="c" format="2">
  <advance width="861.2790697674419"/>
  <unicode hex="0063"/>
  <note>
c
</note>
  <anchor x="475.2395348837209" y="-20.24418604651163" name="bottom"/>
  <anchor x="509.2395348837209" y="947.3565891472869" name="top"/>
  <outline>
    <contour>
      <point x="521.6829457364341" y="-32.86279069767442" type="curve" smooth="yes"/>
      <point x="622.4589147286822" y="-32.86279069767442"/>
      <point x="720.3472868217054" y="-3.0999999999999996"/>
      <point x="796.1852713178295" y="59.188372093023254" type="curve"/>
      <point x="796.1852713178295" y="157.8093023255814" type="line"/>
      <point x="721.4968992248062" y="92.05891472868217"/>
      <point x="620.208527131783" y="47.81472868217055"/>
      <point x="526.5333333333333" y="47.81472868217055" type="curve" smooth="yes"/>
      <point x="346.55348837209306" y="47.81472868217055"/>
      <point x="222.98062015503876" y="209.57596899224808"/>
      <point x="222.98062015503876" y="466.4124031007752" type="curve" smooth="yes"/>
      <point x="222.98062015503876" y="729.5744186046512"/>
      <point x="346.853488372093" y="888.3542635658914"/>
      <point x="526.1395348837209" y="888.3542635658914" type="curve" smooth="yes"/>
      <point x="620.9961240310078" y="888.3542635658914"/>
      <point x="721.4031007751938" y="844.4100775193798"/>
      <point x="795.8852713178295" y="778.9596899224806" type="curve"/>
      <point x="795.8852713178295" y="876.9806201550388" type="line"/>
      <point x="720.4410852713179" y="938.568992248062"/>
      <point x="621.2589147286822" y="969.7255813953489"/>
      <point x="522.0767441860465" y="969.7255813953489" type="curve" smooth="yes"/>
      <point x="282.1558139534884" y="969.7255813953489"/>
      <point x="75.9124031007752" y="791.9868217054263"/>
      <point x="75.9124031007752" y="466.8062015503876" type="curve" smooth="yes"/>
      <point x="75.9124031007752" y="141.40697674418604"/>
      <point x="282.54961240310075" y="-32.86279069767442"/>
    </contour>
  </outline>
</glyph>
<glyph name="d" format="2">
  <advance width="1136.6751937984495"/>
  <unicode hex="0064"/>
  <note>
d
</note>
  <anchor x="541.3410852713179" y="21.058139534883722" name="bottom"/>
  <anchor x="924.5410852713178" y="1310.8441860465116" name="center"/>
  <anchor x="601.9968992248062" y="1516.7751937984497" name="top"/>
  <anchor x="1169.0852713178294" y="1516.7751937984497" name="topright"/>
  <outline>
    <contour>
      <point x="506.2201550387597" y="-34.28759689922481" type="curve" smooth="yes"/>
      <point x="715.408527131783" y="-34.28759689922481"/>
      <point x="850.6395348837209" y="85.1875968992248"/>
      <point x="902.3519379844961" y="293.0635658914729" type="curve"/>
      <point x="859.4007751937985" y="325.6333333333333" type="line"/>
      <point x="859.4007751937985" y="-7.0" type="line"/>
      <point x="1003.8627906976744" y="-7.0" type="line"/>
      <point x="1003.8627906976744" y="1524.4751937984497" type="line"/>
      <point x="858.706976744186" y="1524.4751937984497" type="line"/>
      <point x="858.706976744186" y="593.95503875969" type="line"/>
      <point x="899.970542635659" y="626.2186046511628" type="line"/>
      <point x="850.0333333333333" y="839.5255813953488"/>
      <point x="712.5147286821706" y="971.337984496124"/>
      <point x="504.5325581395349" y="971.337984496124" type="curve" smooth="yes"/>
      <point x="240.06279069767442" y="971.337984496124"/>
      <point x="75.9124031007752" y="754.0255813953488"/>
      <point x="75.9124031007752" y="457.3627906976744" type="curve" smooth="yes"/>
      <point x="75.9124031007752" y="163.8875968992248"/>
      <point x="241.34418604651162" y="-34.28759689922481"/>
    </contour>
    <contour>
      <point x="523.377519379845" y="46.689922480620154" type="curve" smooth="yes"/>
      <point x="331.4666666666667" y="46.689922480620154"/>
      <point x="215.81782945736433" y="191.15116279069767"/>
      <point x="215.81782945736433" y="465.67519379844964" type="curve" smooth="yes"/>
      <point x="215.81782945736433" y="746.393023255814"/>
      <point x="336.67286821705426" y="890.3604651162791"/>
      <point x="521.6899224806201" y="890.3604651162791" type="curve" smooth="yes"/>
      <point x="711.1131782945737" y="890.3604651162791"/>
      <point x="840.7372093023256" y="716.9984496124031"/>
      <point x="840.7372093023256" y="456.25658914728683" type="curve" smooth="yes"/>
      <point x="840.7372093023256" y="195.00232558139535"/>
      <point x="706.7131782945737" y="46.689922480620154"/>
    </contour>
  </outline>
</glyph>
<glyph name="e" format="2">
  <advance width="1037.2984496124031"/>
  <unicode hex="0065"/>
  <note>
e
</note>
  <anchor x="523.7023255813954" y="-15.775193798449612" name="bottom"/>
  <anchor x="669.9596899224806" y="3.0" name="ogonek"/>
  <anchor x="523.7023255813954" y="947.3565891472869" name="top"/>
  <outline>
    <contour>
      <point x="525.9837209302326" y="-29.36279069767442" type="curve" smooth="yes"/>
      <point x="738.222480620155" y="-29.36279069767442"/>
      <point x="888.660465116279" y="85.44341085271319"/>
      <point x="946.2294573643411" y="270.68062015503875" type="curve"/>
      <point x="815.4875968992249" y="270.68062015503875" type="line"/>
      <point x="775.6007751937984" y="136.26434108527133"/>
      <point x="669.2077519379845" y="50.61472868217055"/>
      <point x="528.6651162790698" y="50.61472868217055" type="curve" smooth="yes"/>
      <point x="333.6162790697675" y="50.61472868217055"/>
      <point x="226.28682170542635" y="221.15271317829456"/>
      <point x="226.28682170542635" y="467.1813953488372" type="curve" smooth="yes"/>
      <point x="226.28682170542635" y="731.3046511627907"/>
      <point x="348.1418604651163" y="888.660465116279"/>
      <point x="525.9837209302326" y="888.660465116279" type="curve" smooth="yes"/>
      <point x="684.737984496124" y="888.660465116279"/>
      <point x="806.1550387596899" y="764.0612403100776"/>
      <point x="831.05503875969" y="498.3178294573643" type="curve"/>
      <point x="970.586046511628" y="498.3178294573643" type="line"/>
      <point x="944.8418604651163" y="801.6255813953488"/>
      <point x="771.2100775193799" y="969.7255813953489"/>
      <point x="523.9023255813953" y="969.7255813953489" type="curve" smooth="yes"/>
      <point x="242.83178294573645" y="969.7255813953489"/>
      <point x="75.9124031007752" y="751.106976744186"/>
      <point x="75.9124031007752" y="461.6441860465116" type="curve" smooth="yes"/>
      <point x="75.9124031007752" y="165.1062015503876"/>
      <point x="248.63798449612403" y="-29.36279069767442"/>
    </contour>
    <contour>
      <point x="202.4937984496124" y="497.6240310077519" type="line"/>
      <point x="929.4162790697675" y="498.3178294573643" type="line"/>
      <point x="929.2100775193799" y="563.9759689922481" type="line"/>
      <point x="179.5984496124031" y="563.9759689922481" type="line"/>
    </contour>
  </outline>
</glyph>
<glyph name="f" format="2">
  <advance width="606.2162790697674"/>
  <unicode hex="0066"/>
  <note>
f
</note>
  <anchor x="303.45503875968996" y="21.058139534883722" name="bottom"/>
  <anchor x="303.45503875968996" y="1516.7751937984497" name="top"/>
  <outline>
    <contour>
      <point x="203.26899224806203" y="0.0" type="line"/>
      <point x="347.731007751938" y="0.0" type="line"/>
      <point x="347.731007751938" y="1102.0658914728683" type="line" smooth="yes"/>
      <point x="347.731007751938" y="1342.2387596899225"/>
      <point x="335.0224806201551" y="1457.260465116279"/>
      <point x="440.35503875968993" y="1457.260465116279" type="curve" smooth="yes"/>
      <point x="503.3922480620155" y="1450.260465116279"/>
      <point x="536.9496124031008" y="1405.1108527131782"/>
      <point x="536.9496124031008" y="1347.0162790697675" type="curve" smooth="yes"/>
      <point x="536.9496124031008" y="1320.2286821705427"/>
      <point x="530.9434108527132" y="1285.641085271318"/>
      <point x="522.1558139534884" y="1261.415503875969" type="curve"/>
      <point x="618.9837209302325" y="1261.415503875969" type="line"/>
      <point x="633.7589147286822" y="1301.5596899224806"/>
      <point x="638.1651162790698" y="1346.9666666666667"/>
      <point x="638.1651162790698" y="1373.148062015504" type="curve" smooth="yes"/>
      <point x="638.1651162790698" y="1478.1813953488372"/>
      <point x="555.7627906976744" y="1543.094573643411"/>
      <point x="423.34186046511627" y="1543.094573643411" type="curve" smooth="yes"/>
      <point x="242.5906976744186" y="1543.094573643411"/>
      <point x="203.26899224806203" y="1378.8713178294574"/>
      <point x="203.26899224806203" y="1136.4558139534884" type="curve" smooth="yes"/>
    </contour>
    <contour>
      <point x="54.6" y="846.415503875969" type="line"/>
      <point x="514.8573643410853" y="846.415503875969" type="line"/>
      <point x="514.8573643410853" y="925.0868217054264" type="line"/>
      <point x="54.6" y="925.0868217054264" type="line"/>
    </contour>
  </outline>
</glyph>
<glyph name="g" format="2">
  <advance width="1139.9317829457364"/>
  <unicode hex="0067"/>
  <note>
g
</note>
  <anchor x="562.4658914728682" y="-504.9418604651163" name="bottom"/>
  <anchor x="536.3341085271318" y="947.3565891472869" name="top"/>
  <outline>
    <contour>
      <point x="534.6038759689923" y="-564.237984496124" type="curve" smooth="yes"/>
      <point x="873.6806201550388" y="-564.237984496124"/>
      <point x="1008.4193798449612" y="-318.9744186046512"/>
      <point x="1008.4193798449612" y="72.69457364341086" type="curve" smooth="yes"/>
      <point x="1008.4193798449612" y="943.0317829457365" type="line"/>
      <point x="859.6511627906976" y="943.0317829457365" type="line"/>
      <point x="859.6511627906976" y="658.6263565891472" type="line"/>
      <point x="883.7767441860465" y="689.2643410852713" type="line"/>
      <point x="822.6891472868217" y="861.3511627906977"/>
      <point x="692.570542635659" y="969.7255813953489"/>
      <point x="505.0077519379845" y="969.7255813953489" type="curve" smooth="yes"/>
      <point x="241.35038759689922" y="969.7255813953489"/>
      <point x="76.6124031007752" y="753.2193798449613"/>
      <point x="76.6124031007752" y="458.868992248062" type="curve" smooth="yes"/>
      <point x="76.6124031007752" y="166.6186046511628"/>
      <point x="242.62558139534883" y="-30.05658914728682"/>
      <point x="507.3891472868217" y="-30.05658914728682" type="curve" smooth="yes"/>
      <point x="700.7767441860465" y="-30.05658914728682"/>
      <point x="832.2139534883721" y="73.88604651162791"/>
      <point x="889.7829457364342" y="251.1108527131783" type="curve"/>
      <point x="866.8697674418605" y="280.35503875968993" type="line"/>
      <point x="861.3449612403101" y="33.493798449612406" type="line"/>
      <point x="861.3449612403101" y="-272.7852713178295"/>
      <point x="777.7519379844962" y="-483.8666666666667"/>
      <point x="516.5348837209302" y="-483.8666666666667" type="curve" smooth="yes"/>
      <point x="337.2728682170543" y="-483.8666666666667"/>
      <point x="256.3124031007752" y="-407.9612403100775"/>
      <point x="227.76201550387597" y="-308.00542635658917" type="curve"/>
      <point x="88.14418604651163" y="-308.00542635658917" type="line"/>
      <point x="154.5767441860465" y="-520.8317829457364"/>
      <point x="375.8891472868217" y="-564.237984496124"/>
    </contour>
    <contour>
      <point x="520.3837209302326" y="50.61472868217055" type="curve" smooth="yes"/>
      <point x="329.26666666666665" y="50.61472868217055"/>
      <point x="217.21162790697673" y="194.97596899224806"/>
      <point x="217.21162790697673" y="467.4813953488372" type="curve" smooth="yes"/>
      <point x="217.21162790697673" y="746.2868217054264"/>
      <point x="337.87286821705425" y="888.660465116279"/>
      <point x="518.6961240310078" y="888.660465116279" type="curve" smooth="yes"/>
      <point x="706.7255813953489" y="888.660465116279"/>
      <point x="834.0496124031008" y="714.8108527131783"/>
      <point x="834.0496124031008" y="457.4813953488372" type="curve" smooth="yes"/>
      <point x="834.0496124031008" y="197.13953488372093"/>
      <point x="700.2193798449613" y="50.61472868217055"/>
    </contour>
  </outline>
</glyph>
<glyph name="h" format="2">
  <advance width="1054.1496124031007"/>
  <unicode hex="0068"/>
  <note>
h
</note>
  <anchor x="525.8403100775193" y="0.0" name="bottom"/>
  <anchor x="210.684496124031" y="1308.7441860465117" name="center"/>
  <anchor x="525.8403100775193" y="1516.7751937984497" name="top"/>
  <outline>
    <contour>
      <point x="132.1124031007752" y="0.0" type="line"/>
      <point x="281.731007751938" y="0.0" type="line"/>
      <point x="281.731007751938" y="555.5565891472868" type="line" smooth="yes"/>
      <point x="281.731007751938" y="740.9480620155039"/>
      <point x="380.9612403100775" y="887.6666666666666"/>
      <point x="553.5341085271318" y="887.6666666666666" type="curve" smooth="yes"/>
      <point x="729.6627906976744" y="887.6666666666666"/>
      <point x="797.5248062015504" y="761.3922480620155"/>
      <point x="797.5248062015504" y="540.1992248062015" type="curve" smooth="yes"/>
      <point x="797.5248062015504" y="0.0" type="line"/>
      <point x="947.1434108527131" y="0.0" type="line"/>
      <point x="947.1434108527131" y="566.2635658914729" type="line" smooth="yes"/>
      <point x="947.1434108527131" y="800.4751937984496"/>
      <point x="851.6550387596899" y="969.0317829457365"/>
      <point x="588.3232558139534" y="969.0317829457365" type="curve" smooth="yes"/>
      <point x="393.2294573643411" y="969.0317829457365"/>
      <point x="279.1240310077519" y="857.0573643410853"/>
      <point x="247.51085271317828" y="654.3131782945736" type="curve"/>
      <point x="280.3434108527132" y="579.6573643410852" type="line"/>
      <point x="281.731007751938" y="1516.7751937984497" type="line"/>
      <point x="132.1124031007752" y="1516.7751937984497" type="line"/>
    </contour>
  </outline>
</glyph>
<glyph name="k" format="2">
  <advance width="1005.9643410852714"/>
  <unicode hex="006B"/>
  <note>
k
</note>
  <anchor x="495.23643410852713" y="0.0" name="bottom"/>
  <anchor x="494.97286821705427" y="1516.7751937984497" name="top"/>
  <outline>
    <contour>
      <point x="132.81240310077519" y="0.0" type="line"/>
      <point x="277.57441860465116" y="0.0" type="line"/>
      <point x="277.57441860465116" y="1516.7751937984497" type="line"/>
      <point x="132.81240310077519" y="1516.7751937984497" type="line"/>
    </contour>
    <contour>
      <point x="787.6527131782946" y="0.0" type="line"/>
      <point x="962.7519379844962" y="0.0" type="line"/>
      <point x="426.8782945736434" y="573.6317829457364" type="line"/>
      <point x="334.15038759689924" y="472.41550387596897" type="line"/>
    </contour>
    <contour>
      <point x="245.95426356589147" y="361.9899224806202" type="line"/>
      <point x="839.7015503875969" y="943.0317829457365" type="line"/>
      <point x="714.453488372093" y="943.0317829457365" type="line"/>
      <point x="250.11937984496123" y="491.815503875969" type="line"/>
    </contour>
  </outline>
</glyph>
<glyph name="l" format="2">
  <advance width="410.18062015503875"/>
  <unicode hex="006C"/>
  <note>
l
</note>
  <anchor x="175.39147286821705" y="0.0" name="bottom"/>
  <anchor x="204.95891472868217" y="791.4627906976744" name="center"/>
  <anchor x="485.5651162790698" y="792.8627906976744" name="dot"/>
  <anchor x="246.0906976744186" y="1511.9186046511627" name="top"/>
  <anchor x="391.11782945736434" y="1485.9372093023255" name="topright"/>
  <outline>
    <contour>
      <point x="132.81240310077519" y="0.0" type="line"/>
      <point x="277.3682170542636" y="0.0" type="line"/>
      <point x="277.3682170542636" y="1516.7751937984497" type="line"/>
      <point x="132.81240310077519" y="1516.7751937984497" type="line"/>
    </contour>
  </outline>
</glyph>
<glyph name="m" format="2">
  <advance width="1724.079069767442"/>
  <unicode hex="006D"/>
  <note>
m
</note>
  <anchor x="855.039534883721" y="0.0" name="bottom"/>
  <anchor x="862.039534883721" y="947.3565891472869" name="top"/>
  <outline>
    <contour>
      <point x="121.9124031007752" y="0.0" type="line"/>
      <point x="270.14341085271315" y="0.0" type="line"/>
      <point x="270.14341085271315" y="555.5565891472868" type="line" smooth="yes"/>
      <point x="270.14341085271315" y="740.460465116279"/>
      <point x="370.7046511627907" y="887.9666666666667"/>
      <point x="568.0519379844961" y="887.9666666666667" type="curve" smooth="yes"/>
      <point x="730.262015503876" y="887.9666666666667"/>
      <point x="794.9302325581396" y="790.6418604651162"/>
      <point x="794.9302325581396" y="582.2356589147287" type="curve" smooth="yes"/>
      <point x="794.9302325581396" y="0.0" type="line"/>
      <point x="943.1612403100776" y="0.0" type="line"/>
      <point x="943.1612403100776" y="555.5565891472868" type="line" smooth="yes"/>
      <point x="943.1612403100776" y="740.7604651162791"/>
      <point x="1041.8286821705426" y="887.7604651162791"/>
      <point x="1239.8697674418604" y="887.7604651162791" type="curve" smooth="yes"/>
      <point x="1401.386046511628" y="887.7604651162791"/>
      <point x="1467.5356589147286" y="791.0356589147286"/>
      <point x="1467.5356589147286" y="582.2356589147287" type="curve" smooth="yes"/>
      <point x="1467.5356589147286" y="1.0" type="line"/>
      <point x="1615.7666666666667" y="1.0" type="line"/>
      <point x="1615.7666666666667" y="622.3558139534883" type="line" smooth="yes"/>
      <point x="1615.7666666666667" y="824.3248062015504"/>
      <point x="1519.6968992248062" y="969.7255813953489"/>
      <point x="1273.477519379845" y="969.7255813953489" type="curve" smooth="yes"/>
      <point x="1059.9782945736433" y="969.7255813953489"/>
      <point x="939.8294573643411" y="860.6449612403101"/>
      <point x="906.6162790697674" y="661.737984496124" type="curve"/>
      <point x="936.3922480620155" y="672.9263565891473" type="line"/>
      <point x="921.0666666666667" y="847.6317829457364"/>
      <point x="828.353488372093" y="969.7255813953489"/>
      <point x="601.6596899224807" y="969.7255813953489" type="curve" smooth="yes"/>
      <point x="402.8108527131783" y="969.7255813953489"/>
      <point x="286.2682170542636" y="872.6077519379845"/>
      <point x="248.63643410852714" y="704.0333333333333" type="curve"/>
      <point x="269.4496124031008" y="676.9519379844961" type="line"/>
      <point x="270.14341085271315" y="943.0317829457365" type="line"/>
      <point x="121.9124031007752" y="943.0317829457365" type="line"/>
    </contour>
  </outline>
</glyph>
<glyph name="n" format="2">
  <advance width="1043.5558139534883"/>
  <unicode hex="006E"/>
  <note>
n
</note>
  <anchor x="520.046511627907" y="0.0" name="bottom"/>
  <anchor x="520.046511627907" y="947.3565891472869" name="top"/>
  <outline>
    <contour>
      <point x="122.3062015503876" y="0.0" type="line"/>
      <point x="271.531007751938" y="0.0" type="line"/>
      <point x="271.531007751938" y="555.5565891472868" type="line" smooth="yes"/>
      <point x="271.531007751938" y="740.9480620155039"/>
      <point x="370.7612403100775" y="888.4542635658914"/>
      <point x="543.6341085271317" y="888.4542635658914" type="curve" smooth="yes"/>
      <point x="719.4627906976744" y="888.4542635658914"/>
      <point x="787.3248062015504" y="761.3922480620155"/>
      <point x="787.3248062015504" y="540.1992248062015" type="curve" smooth="yes"/>
      <point x="787.3248062015504" y="0.0" type="line"/>
      <point x="936.5496124031008" y="0.0" type="line"/>
      <point x="936.5496124031008" y="565.8697674418605" type="line" smooth="yes"/>
      <point x="936.5496124031008" y="800.4751937984496"/>
      <point x="841.45503875969" y="969.7255813953489"/>
      <point x="578.1232558139535" y="969.7255813953489" type="curve" smooth="yes"/>
      <point x="382.8046511627907" y="969.7255813953489"/>
      <point x="269.2806201550388" y="857.3201550387597"/>
      <point x="237.3108527131783" y="654.6131782945737" type="curve"/>
      <point x="270.14341085271315" y="579.7511627906977" type="line"/>
      <point x="271.531007751938" y="943.0317829457365" type="line"/>
      <point x="122.3062015503876" y="943.0317829457365" type="line"/>
    </contour>
  </outline>
</glyph>
<glyph name="o" format="2">
  <advance width="1062.5736434108528"/>
  <unicode hex="006F"/>
  <note>
o
</note>
  <anchor x="531.2837209302326" y="8.59457364341085" name="bottom"/>
  <anchor x="531.9837209302326" y="470.4813953488372" name="center"/>
  <anchor x="667.8596899224806" y="0.0" name="ogonek"/>
  <anchor x="531.9837209302326" y="947.3565891472869" name="top"/>
  <anchor x="1031.0736434108528" y="941.3565891472869" name="topright"/>
  <outline>
    <contour>
      <point x="530.9837209302326" y="-29.36279069767442" type="curve" smooth="yes"/>
      <point x="807.8666666666667" y="-29.36279069767442"/>
      <point x="987.3612403100775" y="166.43100775193798"/>
      <point x="987.3612403100775" y="459.5627906976744" type="curve" smooth="yes"/>
      <point x="987.3612403100775" y="752.4069767441861"/>
      <point x="806.0666666666667" y="969.7255813953489"/>
      <point x="530.9837209302326" y="969.7255813953489" type="curve" smooth="yes"/>
      <point x="255.50697674418603" y="969.7255813953489"/>
      <point x="75.9124031007752" y="752.0131782945737"/>
      <point x="75.9124031007752" y="459.5627906976744" type="curve" smooth="yes"/>
      <point x="75.9124031007752" y="166.8248062015504"/>
      <point x="254.40077519379844" y="-29.36279069767442"/>
    </contour>
    <contour>
      <point x="530.9837209302326" y="50.91472868217055" type="curve" smooth="yes"/>
      <point x="359.0984496124031" y="50.91472868217055"/>
      <point x="234.4496124031008" y="199.0767441860465"/>
      <point x="234.4496124031008" y="465.0875968992248" type="curve" smooth="yes"/>
      <point x="234.4496124031008" y="722.4860465116279"/>
      <point x="358.5108527131783" y="889.7480620155038"/>
      <point x="530.9837209302326" y="889.7480620155038" type="curve" smooth="yes"/>
      <point x="703.8503875968993" y="889.7480620155038"/>
      <point x="827.5116279069767" y="714.6922480620156"/>
      <point x="827.5116279069767" y="459.5627906976744" type="curve" smooth="yes"/>
      <point x="827.5116279069767" y="194.4519379844961"/>
      <point x="703.0751937984496" y="50.91472868217055"/>
    </contour>
  </outline>
</glyph>
<glyph name="p" format="2">
  <advance width="1136.2193798449612"/>
  <unicode hex="0070"/>
  <note>
p
</note>
  <anchor x="568.4410852713179" y="21.058139534883722" name="bottom"/>
  <anchor x="568.4410852713179" y="941.3565891472869" name="top"/>
  <outline>
    <contour>
      <point x="132.81240310077519" y="-577.8" type="line"/>
      <point x="278.962015503876" y="-577.8" type="line"/>
      <point x="278.962015503876" y="346.3015503875969" type="line"/>
      <point x="237.0046511627907" y="313.73798449612406" type="line"/>
      <point x="287.0356589147287" y="103.03720930232558"/>
      <point x="425.04186046511626" y="-28.462790697674418"/>
      <point x="632.6116279069768" y="-28.462790697674418" type="curve" smooth="yes"/>
      <point x="897.268992248062" y="-28.462790697674418"/>
      <point x="1061.006976744186" y="188.04341085271318"/>
      <point x="1061.006976744186" y="481.0062015503876" type="curve" smooth="yes"/>
      <point x="1061.006976744186" y="772.9565891472869"/>
      <point x="895.6875968992248" y="969.7255813953489"/>
      <point x="630.924031007752" y="969.7255813953489" type="curve" smooth="yes"/>
      <point x="421.8480620155039" y="969.7255813953489"/>
      <point x="286.7294573643411" y="851.1441860465117"/>
      <point x="234.9232558139535" y="644.8744186046512" type="curve"/>
      <point x="277.27441860465115" y="613.398449612403" type="line"/>
      <point x="277.27441860465115" y="943.0317829457365" type="line"/>
      <point x="132.81240310077519" y="943.0317829457365" type="line"/>
    </contour>
    <contour>
      <point x="615.4542635658914" y="52.20852713178295" type="curve" smooth="yes"/>
      <point x="426.34961240310076" y="52.20852713178295"/>
      <point x="296.237984496124" y="224.65813953488373"/>
      <point x="296.237984496124" y="482.3937984496124" type="curve" smooth="yes"/>
      <point x="296.237984496124" y="742.3294573643411"/>
      <point x="430.4496124031008" y="889.3542635658914"/>
      <point x="613.7666666666667" y="889.3542635658914" type="curve" smooth="yes"/>
      <point x="805.9589147286822" y="889.3542635658914"/>
      <point x="921.101550387597" y="746.293023255814"/>
      <point x="921.101550387597" y="473.0875968992248" type="curve" smooth="yes"/>
      <point x="921.101550387597" y="194.98217054263566"/>
      <point x="800.7527131782946" y="52.20852713178295"/>
    </contour>
  </outline>
</glyph>
<glyph name="q" format="2">
  <advance width="1126.7131782945737"/>
  <unicode hex="0071"/>
  <note>
q
</note>
  <anchor x="569.8658914728683" y="21.058139534883722" name="bottom"/>
  <anchor x="569.8658914728683" y="941.3565891472869" name="top"/>
  <outline>
    <contour>
      <point x="858.2573643410852" y="-577.8" type="line"/>
      <point x="1004.1069767441861" y="-577.8" type="line"/>
      <point x="1004.1069767441861" y="944.4317829457365" type="line"/>
      <point x="859.6449612403101" y="944.4317829457365" type="line"/>
      <point x="859.6449612403101" y="612.0108527131783" type="line"/>
      <point x="902.2961240310077" y="643.8806201550387" type="line"/>
      <point x="850.4899224806202" y="850.4503875968992"/>
      <point x="715.3713178294573" y="969.7255813953489"/>
      <point x="505.9953488372093" y="969.7255813953489" type="curve" smooth="yes"/>
      <point x="241.23178294573643" y="969.7255813953489"/>
      <point x="75.9124031007752" y="771.868992248062"/>
      <point x="75.9124031007752" y="481.0062015503876" type="curve" smooth="yes"/>
      <point x="75.9124031007752" y="188.04341085271318"/>
      <point x="239.95038759689922" y="-28.462790697674418"/>
      <point x="504.3077519379845" y="-28.462790697674418" type="curve" smooth="yes"/>
      <point x="712.177519379845" y="-28.462790697674418"/>
      <point x="849.8837209302326" y="102.73720930232558"/>
      <point x="899.9147286821706" y="314.13178294573646" type="curve"/>
      <point x="858.2573643410852" y="346.3015503875969" type="line"/>
    </contour>
    <contour>
      <point x="521.4651162790698" y="52.20852713178295" type="curve" smooth="yes"/>
      <point x="336.4666666666667" y="52.20852713178295"/>
      <point x="215.81782945736433" y="194.98217054263566"/>
      <point x="215.81782945736433" y="473.0875968992248" type="curve" smooth="yes"/>
      <point x="215.81782945736433" y="745.2992248062016"/>
      <point x="330.96046511627907" y="889.3542635658914"/>
      <point x="523.1527131782946" y="889.3542635658914" type="curve" smooth="yes"/>
      <point x="707.1635658914729" y="889.3542635658914"/>
      <point x="840.9813953488372" y="740.9418604651163"/>
      <point x="840.9813953488372" y="482.3937984496124" type="curve" smooth="yes"/>
      <point x="840.9813953488372" y="224.65813953488373"/>
      <point x="710.8697674418605" y="52.20852713178295"/>
    </contour>
  </outline>
</glyph>
<glyph name="r" format="2">
  <advance width="856.7255813953489"/>
  <unicode hex="0072"/>
  <note>
r
</note>
  <anchor x="166.93488372093023" y="0.0" name="bottom"/>
  <anchor x="533.5434108527131" y="947.3565891472869" name="top"/>
  <outline>
    <contour>
      <point x="121.9124031007752" y="0.0" type="line"/>
      <point x="271.531007751938" y="0.0" type="line"/>
      <point x="271.531007751938" y="569.2558139534884" type="line" smooth="yes"/>
      <point x="271.531007751938" y="752.4728682170543"/>
      <point x="372.04883720930235" y="887.6666666666666"/>
      <point x="512.9472868217055" y="887.6666666666666" type="curve" smooth="yes"/>
      <point x="589.9643410852714" y="887.6666666666666"/>
      <point x="696.5658914728682" y="852.8550387596899"/>
      <point x="684.077519379845" y="750.9286821705426" type="curve" smooth="yes"/>
      <point x="683.3837209302326" y="720.1162790697674"/>
      <point x="667.208527131783" y="679.791472868217"/>
      <point x="656.5147286821706" y="665.6542635658915" type="curve"/>
      <point x="770.6689922480621" y="637.8410852713179" type="line"/>
      <point x="789.575968992248" y="675.086046511628"/>
      <point x="801.5193798449612" y="736.4"/>
      <point x="801.5193798449612" y="779.2558139534884" type="curve" smooth="yes"/>
      <point x="801.5193798449612" y="919.913953488372"/>
      <point x="663.1984496124031" y="969.7255813953489"/>
      <point x="550.1426356589147" y="969.7255813953489" type="curve" smooth="yes"/>
      <point x="376.63565891472865" y="969.7255813953489"/>
      <point x="281.1496124031008" y="856.4883720930233"/>
      <point x="243.65503875968994" y="660.9124031007752" type="curve"/>
      <point x="270.14341085271315" y="579.3325581395349" type="line"/>
      <point x="271.531007751938" y="943.0317829457365" type="line"/>
      <point x="121.9124031007752" y="943.0317829457365" type="line"/>
    </contour>
  </outline>
</glyph>
<glyph name="s" format="2">
  <advance width="827.5798449612403"/>
  <unicode hex="0073"/>
  <note>
s
</note>
  <anchor x="401.02868217054265" y="0.24418604651162923" name="bottom"/>
  <anchor x="400.9899224806202" y="944.5813953488372" name="top"/>
  <outline>
    <contour>
      <point x="395.4341085271318" y="-26.38139534883721" type="curve" smooth="yes"/>
      <point x="626.7170542635658" y="-25.687596899224808"/>
      <point x="763.6674418604651" y="78.18062015503875"/>
      <point x="762.9736434108527" y="259.837984496124" type="curve" smooth="yes"/>
      <point x="762.9736434108527" y="431.02713178294573"/>
      <point x="642.9217054263565" y="493.5077519379845"/>
      <point x="411.7031007751938" y="543.3015503875969" type="curve" smooth="yes"/>
      <point x="240.11007751937984" y="580.1139534883721"/>
      <point x="197.03488372093022" y="618.4751937984496"/>
      <point x="197.03488372093022" y="723.9682170542636" type="curve" smooth="yes"/>
      <point x="197.03488372093022" y="823.9480620155039"/>
      <point x="280.07751937984494" y="884.1038759689923"/>
      <point x="411.44573643410854" y="882.6976744186046" type="curve" smooth="yes"/>
      <point x="528.570542635659" y="880.5976744186047"/>
      <point x="612.715503875969" y="851.3922480620155"/>
      <point x="704.6984496124031" y="760.3604651162791" type="curve"/>
      <point x="704.0046511627907" y="870.6689922480621" type="line"/>
      <point x="617.6596899224807" y="939.7441860465117"/>
      <point x="543.7782945736434" y="969.7255813953489"/>
      <point x="412.2395348837209" y="969.7255813953489" type="curve" smooth="yes"/>
      <point x="206.87596899224806" y="969.0317829457365"/>
      <point x="82.81860465116279" y="886.3759689922481"/>
      <point x="83.5124031007752" y="703.7054263565891" type="curve" smooth="yes"/>
      <point x="84.2062015503876" y="551.4108527131783"/>
      <point x="168.91937984496124" y="488.34263565891473"/>
      <point x="367.80697674418604" y="446.4612403100775" type="curve" smooth="yes"/>
      <point x="568.9751937984496" y="404.4612403100775"/>
      <point x="635.4317829457365" y="372.7317829457364"/>
      <point x="635.4317829457365" y="249.51937984496124" type="curve" smooth="yes"/>
      <point x="635.4317829457365" y="125.7139534883721"/>
      <point x="506.8054263565891" y="65.72790697674418"/>
      <point x="390.27131782945736" y="65.72790697674418" type="curve" smooth="yes"/>
      <point x="260.77131782945736" y="65.03410852713179"/>
      <point x="160.93953488372094" y="111.03333333333333"/>
      <point x="72.5" y="211.715503875969" type="curve"/>
      <point x="73.5875968992248" y="87.95038759689922" type="line"/>
      <point x="149.48837209302326" y="7.649612403100775"/>
      <point x="245.36356589147286" y="-27.07519379844961"/>
    </contour>
  </outline>
</glyph>
<glyph name="t" format="2">
  <advance width="577.5093023255814"/>
  <unicode hex="0074"/>
  <note>
t
</note>
  <anchor x="309.9891472868217" y="-3.0" name="bottom"/>
  <anchor x="269.55891472868217" y="548.322480620155" name="center"/>
  <anchor x="297.9891472868217" y="941.3565891472869" name="top"/>
  <anchor x="536.6341085271317" y="1326.6007751937984" name="topright"/>
  <outline>
    <contour>
      <point x="332.9573643410853" y="-27.687596899224808" type="curve" smooth="yes"/>
      <point x="392.65193798449616" y="-27.687596899224808"/>
      <point x="484.2906976744186" y="-12.612403100775193"/>
      <point x="523.7031007751938" y="8.06279069767442" type="curve"/>
      <point x="523.7031007751938" y="98.04651162790698" type="line"/>
      <point x="465.9263565891473" y="65.24573643410854"/>
      <point x="410.2705426356589" y="55.08372093023256"/>
      <point x="375.55891472868217" y="55.08372093023256" type="curve" smooth="yes"/>
      <point x="305.7720930232558" y="55.08372093023256"/>
      <point x="316.5100775193798" y="103.51472868217056"/>
      <point x="316.5100775193798" y="283.3503875968992" type="curve" smooth="yes"/>
      <point x="316.5100775193798" y="864.2294573643411" type="line"/>
      <point x="466.5581395348837" y="864.2294573643411" type="line"/>
      <point x="466.5581395348837" y="944.5131782945737" type="line"/>
      <point x="316.5100775193798" y="944.5131782945737" type="line"/>
      <point x="316.5100775193798" y="1226.7759689922482" type="line"/>
      <point x="245.00155038759692" y="1226.7759689922482" type="line"/>
      <point x="260.1713178294574" y="991.4217054263565"/>
      <point x="211.91162790697675" y="943.5193798449612"/>
      <point x="55.3" y="944.5131782945737" type="curve"/>
      <point x="55.3" y="864.2294573643411" type="line"/>
      <point x="180.4674418604651" y="864.2294573643411" type="line"/>
      <point x="180.4674418604651" y="209.23798449612403" type="line" smooth="yes"/>
      <point x="180.4674418604651" y="37.16124031007752"/>
      <point x="209.04418604651164" y="-27.687596899224808"/>
    </contour>
  </outline>
</glyph>
<glyph name="u" format="2">
  <advance width="1067.6744186046512"/>
  <unicode hex="0075"/>
  <note>
u
</note>
  <anchor x="510.3457364341085" y="0.24418604651162923" name="bottom"/>
  <anchor x="884.1348837209302" y="0.0" name="ogonek"/>
  <anchor x="531.3651162790698" y="944.8255813953489" name="top"/>
  <anchor x="1156.393023255814" y="944.8255813953489" name="topright"/>
  <outline>
    <contour>
      <point x="458.45813953488374" y="-25.906201550387596" type="curve" smooth="yes"/>
      <point x="700.3883720930232" y="-25.906201550387596"/>
      <point x="788.6186046511627" y="152.84418604651162"/>
      <point x="821.0627906976745" y="337.7170542635659" type="curve"/>
      <point x="797.1372093023256" y="398.5612403100775" type="line"/>
      <point x="796.4434108527132" y="0.0" type="line"/>
      <point x="944.9744186046512" y="0.0" type="line"/>
      <point x="944.9744186046512" y="943.0317829457365" type="line"/>
      <point x="796.4434108527132" y="943.0317829457365" type="line"/>
      <point x="796.4434108527132" y="471.7542635658915" type="line" smooth="yes"/>
      <point x="796.4434108527132" y="237.43953488372094"/>
      <point x="699.2565891472868" y="54.67131782945737"/>
      <point x="478.07751937984494" y="54.67131782945737" type="curve" smooth="yes"/>
      <point x="325.71162790697673" y="54.67131782945737"/>
      <point x="257.2372093023256" y="152.5767441860465"/>
      <point x="257.2372093023256" y="361.0023255813953" type="curve" smooth="yes"/>
      <point x="257.2372093023256" y="943.0317829457365" type="line"/>
      <point x="108.01240310077519" y="943.0317829457365" type="line"/>
      <point x="108.01240310077519" y="321.2573643410853" type="line" smooth="yes"/>
      <point x="108.01240310077519" y="119.11937984496124"/>
      <point x="224.4139534883721" y="-25.906201550387596"/>
    </contour>
  </outline>
</glyph>
<glyph name="v" format="2">
  <advance width="1065.1806201550387"/>
  <unicode hex="0076"/>
  <note>
v
</note>
  <anchor x="532.9403100775194" y="21.058139534883722" name="bottom"/>
  <anchor x="532.9403100775194" y="941.3565891472869" name="top"/>
  <outline>
    <contour>
      <point x="518.9829457364341" y="-38.90620155038759" type="line"/>
      <point x="556.6038759689923" y="-38.90620155038759" type="line"/>
      <point x="1011.5054263565892" y="943.0317829457365" type="line"/>
      <point x="935.9961240310078" y="943.0317829457365" type="line"/>
      <point x="561.3480620155038" y="108.8813953488372" type="line"/>
      <point x="593.5170542635659" y="132.41162790697675" type="line"/>
      <point x="217.43720930232558" y="943.0317829457365" type="line"/>
      <point x="53.67519379844961" y="943.0317829457365" type="line"/>
    </contour>
  </outline>
</glyph>
<glyph name="w" format="2">
  <advance width="1600.1906976744185"/>
  <unicode hex="0077"/>
  <note>
w
</note>
  <anchor x="800.7922480620155" y="0.0" name="bottom"/>
  <anchor x="800.7922480620155" y="944.8255813953489" name="top"/>
  <outline>
    <contour>
      <point x="1056.5736434108528" y="-24.68139534883721" type="line"/>
      <point x="1094.8883720930232" y="-24.68139534883721" type="line"/>
      <point x="1550.3782945736434" y="943.4255813953489" type="line"/>
      <point x="1473.9813953488372" y="943.4255813953489" type="line"/>
      <point x="1102.4643410852714" y="126.59457364341085" type="line"/>
      <point x="1144.139534883721" y="140.69302325581396" type="line"/>
      <point x="762.4775193798449" y="943.0317829457365" type="line"/>
      <point x="598.2279069767442" y="943.4255813953489" type="line"/>
    </contour>
    <contour>
      <point x="508.45813953488374" y="-24.68139534883721" type="line"/>
      <point x="546.7728682170542" y="-24.68139534883721" type="line"/>
      <point x="837.8062015503876" y="613.1968992248062" type="line"/>
      <point x="799.9108527131783" y="689.3310077519379" type="line"/>
      <point x="552.1736434108527" y="126.59457364341085" type="line"/>
      <point x="583.5356589147286" y="140.69302325581396" type="line"/>
      <point x="214.06201550387595" y="943.0317829457365" type="line"/>
      <point x="49.8124031007752" y="943.4255813953489" type="line"/>
    </contour>
    <contour>
      <point x="857.4069767441861" y="631.2356589147287" type="line"/>
      <point x="1003.6372093023256" y="943.4255813953489" type="line"/>
      <point x="925.8527131782946" y="943.4255813953489" type="line"/>
      <point x="802.4666666666667" y="675.45503875969" type="line"/>
    </contour>
  </outline>
</glyph>
<glyph name="x" format="2">
  <advance width="956.2565891472868"/>
  <unicode hex="0078"/>
  <note>
x
</note>
  <anchor x="478.2782945736434" y="21.058139534883722" name="bottom"/>
  <anchor x="478.2782945736434" y="941.3565891472869" name="top"/>
  <outline>
    <contour>
      <point x="717.0565891472868" y="0.0" type="line"/>
      <point x="883.3441860465116" y="0.0" type="line"/>
      <point x="265.4248062015504" y="943.0317829457365" type="line"/>
      <point x="99.13720930232557" y="943.0317829457365" type="line"/>
    </contour>
    <contour>
      <point x="61.194573643410855" y="0.0" type="line"/>
      <point x="160.1170542635659" y="0.0" type="line"/>
      <point x="497.61007751937984" y="444.4984496124031" type="line"/>
      <point x="451.3403100775194" y="513.5015503875969" type="line"/>
    </contour>
    <contour>
      <point x="517.8480620155038" y="457.15503875968994" type="line"/>
      <point x="887.768992248062" y="943.0317829457365" type="line"/>
      <point x="785.8403100775193" y="943.0317829457365" type="line"/>
      <point x="472.7527131782946" y="525.8449612403101" type="line"/>
    </contour>
  </outline>
</glyph>
<glyph name="y" format="2">
  <advance width="1010.1294573643411"/>
  <unicode hex="0079"/>
  <note>
y
</note>
  <anchor x="727.7790697674419" y="0.0" name="bottom"/>
  <anchor x="522.7596899224807" y="944.8255813953489" name="top"/>
  <outline>
    <contour>
      <point x="280.02713178294573" y="-558.1255813953488" type="curve" smooth="yes"/>
      <point x="381.18527131782946" y="-558.1255813953488"/>
      <point x="420.6108527131783" y="-470.0108527131783"/>
      <point x="466.5984496124031" y="-344.7728682170543" type="curve" smooth="yes"/>
      <point x="626.398449612403" y="100.11472868217055"/>
      <point x="611.0108527131783" y="60.42713178294571"/>
      <point x="654.4922480620155" y="171.83333333333334" type="curve"/>
      <point x="957.5232558139535" y="943.4255813953489" type="line"/>
      <point x="882.0077519379845" y="943.4255813953489" type="line"/>
      <point x="548.008527131783" y="75.67829457364341" type="line"/>
      <point x="610.6054263565892" y="88.27829457364342" type="line"/>
      <point x="212.58062015503876" y="943.0317829457365" type="line"/>
      <point x="49.8124031007752" y="943.4255813953489" type="line"/>
      <point x="539.0217054263566" y="-88.68992248062014" type="line"/>
      <point x="527.3333333333334" y="23.64651162790699" type="line"/>
      <point x="422.73333333333335" y="-291.34883720930236" type="line" smooth="yes"/>
      <point x="390.184496124031" y="-387.70852713178294"/>
      <point x="357.69612403100774" y="-502.10542635658913"/>
      <point x="283.9395348837209" y="-502.10542635658913" type="curve" smooth="yes"/>
      <point x="229.18217054263565" y="-502.10542635658913"/>
      <point x="201.6325581395349" y="-470.4550387596899"/>
      <point x="197.7449612403101" y="-429.96821705426356" type="curve"/>
      <point x="128.5" y="-429.96821705426356" type="line"/>
      <point x="137.3875968992248" y="-514.8565891472869"/>
      <point x="195.168992248062" y="-558.1255813953488"/>
    </contour>
  </outline>
</glyph>
<glyph name="z" format="2">
  <advance width="863.8806201550387"/>
  <unicode hex="007A"/>
  <note>
z
</note>
  <anchor x="431.94031007751937" y="0.0" name="bottom"/>
  <anchor x="431.94031007751937" y="472.5627906976744" name="center"/>
  <anchor x="431.94031007751937" y="944.8255813953489" name="top"/>
  <outline>
    <contour>
      <point x="57.512403100775195" y="0.0" type="line"/>
      <point x="799.0372093023256" y="0.0" type="line"/>
      <point x="799.0372093023256" y="83.67751937984497" type="line"/>
      <point x="220.97519379844962" y="83.67751937984497" type="line"/>
      <point x="224.53023255813955" y="29.30077519379845" type="line"/>
      <point x="802.2806201550388" y="943.0317829457365" type="line"/>
      <point x="79.59379844961241" y="943.0317829457365" type="line"/>
      <point x="79.59379844961241" y="860.0480620155039" type="line"/>
      <point x="648.4434108527132" y="860.0480620155039" type="line"/>
      <point x="634.2627906976744" y="911.0248062015504" type="line"/>
    </contour>
  </outline>
</glyph>
<glyph name="braceleft" format="2">
  <advance width="662.2852713178295"/>
  <unicode hex="007B"/>
  <note>
braceleft
</note>
  <outline>
    <contour>
      <point x="582.3852713178295" y="-394.031007751938" type="curve"/>
      <point x="582.3852713178295" y="-289.8031007751938" type="line"/>
      <point x="402.8736434108527" y="-304.67286821705426"/>
      <point x="313.51085271317834" y="-188.44806201550387"/>
      <point x="313.51085271317834" y="25.906976744186046" type="curve" smooth="yes"/>
      <point x="313.51085271317834" y="338.75658914728683" type="line" smooth="yes"/>
      <point x="313.51085271317834" y="405.34418604651165"/>
      <point x="266.7860465116279" y="452.2503875968992"/>
      <point x="227.63023255813954" y="482.78139534883724" type="curve"/>
      <point x="266.7860465116279" y="515.3124031007752"/>
      <point x="313.51085271317834" y="560.9124031007752"/>
      <point x="313.51085271317834" y="626.9" type="curve" smooth="yes"/>
      <point x="313.51085271317834" y="1041.462015503876" type="line" smooth="yes"/>
      <point x="313.51085271317834" y="1256.3612403100776"/>
      <point x="402.8170542635659" y="1372.0418604651163"/>
      <point x="582.3852713178295" y="1356.4782945736433" type="curve"/>
      <point x="582.3852713178295" y="1461.4" type="line"/>
      <point x="347.89612403100773" y="1473.0255813953488"/>
      <point x="211.7263565891473" y="1330.156589147287"/>
      <point x="211.7263565891473" y="1109.4744186046512" type="curve" smooth="yes"/>
      <point x="211.7263565891473" y="626.9" type="line" smooth="yes"/>
      <point x="211.7263565891473" y="565.2813953488372"/>
      <point x="165.6953488372093" y="533.5007751937984"/>
      <point x="83.31860465116279" y="483.868992248062" type="curve"/>
      <point x="165.5829457364341" y="432.47441860465113"/>
      <point x="211.7263565891473" y="401.16279069767444"/>
      <point x="211.7263565891473" y="338.75658914728683" type="curve" smooth="yes"/>
      <point x="211.7263565891473" y="-41.41162790697674" type="line" smooth="yes"/>
      <point x="211.7263565891473" y="-263.78139534883724"/>
      <point x="346.19612403100774" y="-405.3565891472868"/>
    </contour>
  </outline>
</glyph>
<glyph name="bar" format="2">
  <advance width="534.691472868217"/>
  <unicode hex="007C"/>
  <note>
bar
</note>
  <outline>
    <contour>
      <point x="203.0124031007752" y="-300.0" type="line"/>
      <point x="331.6790697674419" y="-300.0" type="line"/>
      <point x="331.6790697674419" y="1664.0" type="line"/>
      <point x="203.0124031007752" y="1664.0" type="line"/>
    </contour>
  </outline>
</glyph>
<glyph name="braceright" format="2">
  <advance width="662.9790697674418"/>
  <unicode hex="007D"/>
  <note>
braceright
</note>
  <outline>
    <contour>
      <point x="79.9" y="-394.031007751938" type="line"/>
      <point x="316.7829457364341" y="-405.3565891472868"/>
      <point x="450.55891472868217" y="-263.78139534883724"/>
      <point x="450.55891472868217" y="-41.41162790697674" type="curve" smooth="yes"/>
      <point x="450.55891472868217" y="338.75658914728683" type="line" smooth="yes"/>
      <point x="450.55891472868217" y="401.16279069767444"/>
      <point x="496.70232558139537" y="431.7806201550388"/>
      <point x="579.660465116279" y="483.17519379844964" type="curve"/>
      <point x="495.89612403100773" y="533.5007751937984"/>
      <point x="450.55891472868217" y="565.2813953488372"/>
      <point x="450.55891472868217" y="626.9" type="curve" smooth="yes"/>
      <point x="450.55891472868217" y="1109.4744186046512" type="line" smooth="yes"/>
      <point x="450.55891472868217" y="1330.156589147287"/>
      <point x="315.0829457364341" y="1473.0255813953488"/>
      <point x="79.9" y="1461.4" type="curve"/>
      <point x="79.9" y="1356.4782945736433" type="line"/>
      <point x="260.8558139534884" y="1372.0418604651163"/>
      <point x="349.46821705426356" y="1256.3612403100776"/>
      <point x="349.46821705426356" y="1041.462015503876" type="curve" smooth="yes"/>
      <point x="349.46821705426356" y="626.9" type="line" smooth="yes"/>
      <point x="349.46821705426356" y="560.2186046511628"/>
      <point x="396.19302325581396" y="515.3124031007752"/>
      <point x="435.3488372093023" y="482.78139534883724" type="curve"/>
      <point x="396.19302325581396" y="452.2503875968992"/>
      <point x="349.46821705426356" y="405.34418604651165"/>
      <point x="349.46821705426356" y="338.75658914728683" type="curve" smooth="yes"/>
      <point x="349.46821705426356" y="25.906976744186046" type="line" smooth="yes"/>
      <point x="349.46821705426356" y="-188.44806201550387"/>
      <point x="260.10542635658913" y="-304.67286821705426"/>
      <point x="79.9" y="-289.8031007751938" type="curve"/>
    </contour>
  </outline>
</glyph>
<glyph name="asciitilde" format="2">
  <advance width="1219.9031007751937"/>
  <unicode hex="007E"/>
  <note>
asciitilde
</note>
  <outline>
    <contour>
      <point x="787.2744186046511" y="598.3782945736434" type="curve" smooth="yes"/>
      <point x="913.1821705426356" y="598.3782945736434"/>
      <point x="1025.7852713178295" y="669.3488372093024"/>
      <point x="1087.484496124031" y="738.5651162790698" type="curve"/>
      <point x="1024.6945736434109" y="826.2131782945736" type="line"/>
      <point x="963.062015503876" y="763.6131782945737"/>
      <point x="869.2372093023256" y="715.5635658914729"/>
      <point x="783.6558139534884" y="715.5635658914729" type="curve" smooth="yes"/>
      <point x="718.8806201550387" y="715.5635658914729"/>
      <point x="677.4992248062016" y="745.6635658914729"/>
      <point x="635.8550387596899" y="773.0573643410853" type="curve" smooth="yes"/>
      <point x="572.0666666666666" y="812.4387596899224"/>
      <point x="512.2658914728682" y="846.4387596899224"/>
      <point x="424.14728682170545" y="846.4387596899224" type="curve" smooth="yes"/>
      <point x="318.54108527131785" y="846.4387596899224"/>
      <point x="212.7449612403101" y="791.7007751937984"/>
      <point x="132.41860465116278" y="692.6511627906976" type="curve"/>
      <point x="193.34573643410852" y="610.3720930232558" type="line"/>
      <point x="268.6480620155039" y="684.2604651162791"/>
      <point x="352.44806201550387" y="726.953488372093"/>
      <point x="426.153488372093" y="726.953488372093" type="curve" smooth="yes"/>
      <point x="487.44031007751937" y="726.953488372093"/>
      <point x="535.284496124031" y="695.0038759689922"/>
      <point x="593.3480620155038" y="660.053488372093" type="curve" smooth="yes"/>
      <point x="653.3860465116279" y="624.453488372093"/>
      <point x="705.5302325581396" y="598.3782945736434"/>
    </contour>
  </outline>
</glyph>
<glyph name=".notdef" format="2">
  <advance width="1260.9"/>
  <unicode hex="007F"/>
  <note>
.notdef
</note>
  <outline>
    <contour>
      <point x="100.42945736434109" y="-349.1434108527132" type="line"/>
      <point x="1160.4705426356588" y="-349.1434108527132" type="line"/>
      <point x="1160.4705426356588" y="1412.7751937984497" type="line"/>
      <point x="100.42945736434109" y="1412.7751937984497" type="line"/>
    </contour>
    <contour>
      <point x="265.36434108527135" y="-189.96511627906978" type="line"/>
      <point x="265.36434108527135" y="1253.5968992248063" type="line"/>
      <point x="996.529457364341" y="1253.5968992248063" type="line"/>
      <point x="996.529457364341" y="-189.96511627906978" type="line"/>
    </contour>
  </outline>
</glyph>
<glyph name="Euro" format="2">
  <advance width="1590.4713178294573"/>
  <unicode hex="0080"/>
  <note>
Euro
</note>
  <outline>
    <contour>
      <point x="944.5116279069767" y="-20.982170542635657" type="curve" smooth="yes"/>
      <point x="1186.34496124031" y="-20.982170542635657"/>
      <point x="1347.7403100775193" y="105.72558139534884"/>
      <point x="1452.6465116279069" y="333.6519379844961" type="curve"/>
      <point x="1328.4550387596898" y="333.6519379844961" type="line"/>
      <point x="1227.0604651162791" y="111.31860465116279"/>
      <point x="1076.753488372093" y="57.320155038759694"/>
      <point x="951.8992248062016" y="57.320155038759694" type="curve" smooth="yes"/>
      <point x="663.8124031007752" y="57.320155038759694"/>
      <point x="477.7015503875969" y="345.4767441860465"/>
      <point x="477.7015503875969" y="711.5496124031008" type="curve" smooth="yes"/>
      <point x="477.7015503875969" y="1095.898449612403"/>
      <point x="679.2007751937984" y="1365.1666666666667"/>
      <point x="942.3364341085271" y="1365.1666666666667" type="curve" smooth="yes"/>
      <point x="1069.7596899224807" y="1365.1666666666667"/>
      <point x="1241.8294573643411" y="1301.4302325581396"/>
      <point x="1324.6046511627908" y="1085.6031007751938" type="curve"/>
      <point x="1445.2837209302324" y="1085.6031007751938" type="line"/>
      <point x="1353.1899224806202" y="1323.2612403100775"/>
      <point x="1176.163565891473" y="1442.7751937984497"/>
      <point x="945.5116279069767" y="1442.7751937984497" type="curve" smooth="yes"/>
      <point x="584.4604651162791" y="1442.7751937984497"/>
      <point x="325.20852713178294" y="1155.1813953488372"/>
      <point x="325.50852713178296" y="710.2372093023256" type="curve" smooth="yes"/>
      <point x="325.11472868217055" y="254.76821705426357"/>
      <point x="588.2666666666667" y="-20.982170542635657"/>
    </contour>
    <contour>
      <point x="130.5186046511628" y="514.7364341085271" type="line"/>
      <point x="985.3728682170542" y="514.7364341085271" type="line"/>
      <point x="1004.3860465116279" y="590.7263565891473" type="line"/>
      <point x="150.91937984496124" y="590.7263565891473" type="line"/>
    </contour>
    <contour>
      <point x="179.2124031007752" y="807.4922480620155" type="line"/>
      <point x="1034.0666666666666" y="807.4922480620155" type="line"/>
      <point x="1052.5922480620154" y="882.7883720930232" type="line"/>
      <point x="199.12558139534883" y="882.7883720930232" type="line"/>
    </contour>
  </outline>
</glyph>
<glyph name="sterling" format="2">
  <advance width="1246.2178294573644"/>
  <unicode hex="00A3"/>
  <note>
sterling
</note>
  <outline>
    <contour>
      <point x="349.57751937984494" y="68.35193798449612" type="curve" smooth="yes"/>
      <point x="514.5100775193798" y="68.35193798449612"/>
      <point x="723.4031007751938" y="244.6705426356589"/>
      <point x="723.4031007751938" y="459.90077519379844" type="curve" smooth="yes"/>
      <point x="723.4031007751938" y="658.2860465116279"/>
      <point x="632.4666666666667" y="732.393023255814"/>
      <point x="507.62248062015505" y="826.231007751938" type="curve" smooth="yes"/>
      <point x="394.12790697674416" y="911.9255813953488"/>
      <point x="331.8356589147287" y="1016.1751937984496"/>
      <point x="331.8356589147287" y="1148.5116279069769" type="curve" smooth="yes"/>
      <point x="331.8356589147287" y="1308.4674418604652"/>
      <point x="448.5480620155039" y="1391.0666666666666"/>
      <point x="602.4519379844961" y="1391.0666666666666" type="curve" smooth="yes"/>
      <point x="775.8263565891473" y="1391.0666666666666"/>
      <point x="927.968992248062" y="1246.9705426356588"/>
      <point x="937.9124031007752" y="1082.8077519379844" type="curve"/>
      <point x="1062.2984496124031" y="1082.8077519379844" type="line"/>
      <point x="1035.8488372093022" y="1318.260465116279"/>
      <point x="861.0666666666666" y="1465.068992248062"/>
      <point x="612.1333333333333" y="1465.068992248062" type="curve" smooth="yes"/>
      <point x="349.3263565891473" y="1465.068992248062"/>
      <point x="187.10542635658913" y="1316.3426356589148"/>
      <point x="187.10542635658913" y="1109.491472868217" type="curve" smooth="yes"/>
      <point x="187.10542635658913" y="913.0612403100776"/>
      <point x="305.7922480620155" y="818.5364341085271"/>
      <point x="432.82403100775196" y="727.5674418604651" type="curve" smooth="yes"/>
      <point x="531.9054263565891" y="656.9674418604651"/>
      <point x="574.0666666666667" y="612.2480620155038"/>
      <point x="574.0666666666667" y="438.64496124031007" type="curve" smooth="yes"/>
      <point x="574.0666666666667" y="279.615503875969"/>
      <point x="398.6356589147287" y="115.15426356589148"/>
      <point x="158.69379844961242" y="115.92325581395349" type="curve"/>
      <point x="229.28837209302327" y="63.30852713178295"/>
      <point x="293.4976744186047" y="68.35193798449612"/>
    </contour>
    <contour>
      <point x="148.8937984496124" y="0.0" type="line"/>
      <point x="1107.7116279069767" y="0.0" type="line"/>
      <point x="1107.7116279069767" y="115.92325581395349" type="line"/>
      <point x="148.8937984496124" y="115.92325581395349" type="line"/>
    </contour>
    <contour>
      <point x="163.1751937984496" y="676.5728682170543" type="line"/>
      <point x="996.3651162790698" y="676.5728682170543" type="line"/>
      <point x="996.3651162790698" y="753.9503875968992" type="line"/>
      <point x="163.1751937984496" y="753.9503875968992" type="line"/>
    </contour>
  </outline>
</glyph>
<glyph name="currency" format="2">
  <advance width="1225.4085271317829"/>
  <unicode hex="00A4"/>
  <note>
currency
</note>
  <outline>
    <contour>
      <point x="208.2891472868217" y="227.42713178294574" type="line"/>
      <point x="388.40232558139536" y="414.5403100775194" type="line"/>
      <point x="451.5279069767442" y="365.47131782945735"/>
      <point x="531.3410852713179" y="336.08992248062015"/>
      <point x="617.4542635658914" y="336.08992248062015" type="curve" smooth="yes"/>
      <point x="701.1612403100776" y="336.08992248062015"/>
      <point x="777.4744186046512" y="363.3713178294574"/>
      <point x="839.2" y="408.2403100775194" type="curve"/>
      <point x="1014.7131782945737" y="227.42713178294574" type="line"/>
      <point x="1078.4899224806202" y="292.29767441860463" type="line"/>
      <point x="905.070542635659" y="472.0108527131783" type="line"/>
      <point x="959.039534883721" y="536.5302325581396"/>
      <point x="991.2209302325582" y="619.1496124031007"/>
      <point x="991.2209302325582" y="709.8565891472869" type="curve" smooth="yes"/>
      <point x="991.2209302325582" y="801.5697674418604"/>
      <point x="957.6395348837209" y="885.5829457364341"/>
      <point x="902.970542635659" y="950.1085271317829" type="curve"/>
      <point x="1078.8837209302326" y="1131.6217054263566" type="line"/>
      <point x="1013.0131782945737" y="1196.0922480620154" type="line"/>
      <point x="836.4" y="1013.1790697674419" type="line"/>
      <point x="775.3744186046512" y="1057.7418604651164"/>
      <point x="699.7612403100775" y="1083.6232558139534"/>
      <point x="617.4542635658914" y="1083.6232558139534" type="curve" smooth="yes"/>
      <point x="533.0410852713178" y="1083.6232558139534"/>
      <point x="453.92790697674417" y="1055.6418604651162"/>
      <point x="391.50852713178296" y="1007.5790697674419" type="curve"/>
      <point x="209.2953488372093" y="1195.7922480620155" type="line"/>
      <point x="144.1186046511628" y="1131.6217054263566" type="line"/>
      <point x="326.33178294573645" y="943.1085271317829" type="line"/>
      <point x="274.468992248062" y="879.9829457364341"/>
      <point x="243.6875968992248" y="798.7697674418605"/>
      <point x="243.6875968992248" y="709.8565891472869" type="curve" smooth="yes"/>
      <point x="243.6875968992248" y="621.9496124031008"/>
      <point x="273.76899224806203" y="542.1302325581395"/>
      <point x="323.9317829457364" y="479.0108527131783" type="curve"/>
      <point x="144.1186046511628" y="292.59767441860464" type="line"/>
    </contour>
    <contour>
      <point x="617.4542635658914" y="427.8488372093023" type="curve" smooth="yes"/>
      <point x="461.7596899224806" y="427.8488372093023"/>
      <point x="335.446511627907" y="554.162015503876"/>
      <point x="335.446511627907" y="709.8565891472869" type="curve" smooth="yes"/>
      <point x="335.446511627907" y="865.5511627906977"/>
      <point x="461.7596899224806" y="991.8643410852713"/>
      <point x="617.4542635658914" y="991.8643410852713" type="curve" smooth="yes"/>
      <point x="773.1488372093023" y="991.8643410852713"/>
      <point x="899.4620155038759" y="865.5511627906977"/>
      <point x="899.4620155038759" y="709.8565891472869" type="curve" smooth="yes"/>
      <point x="899.4620155038759" y="554.162015503876"/>
      <point x="773.1488372093023" y="427.8488372093023"/>
    </contour>
  </outline>
</glyph>
<glyph name="brokenbar" format="2">
  <advance width="534.691472868217"/>
  <unicode hex="00A6"/>
  <note>
brokenbar
</note>
  <outline>
    <contour>
      <point x="203.0124031007752" y="-300.0" type="line"/>
      <point x="331.6790697674419" y="-300.0" type="line"/>
      <point x="331.6790697674419" y="530.9612403100775" type="line"/>
      <point x="203.0124031007752" y="530.9612403100775" type="line"/>
    </contour>
    <contour>
      <point x="203.0124031007752" y="861.0387596899225" type="line"/>
      <point x="331.6790697674419" y="861.0387596899225" type="line"/>
      <point x="331.6790697674419" y="1664.0" type="line"/>
      <point x="203.0124031007752" y="1664.0" type="line"/>
    </contour>
  </outline>
</glyph>
<glyph name="section" format="2">
  <advance width="1118.832558139535"/>
  <unicode hex="00A7"/>
  <note>
section
</note>
  <outline>
    <contour>
      <point x="530.9131782945736" y="-404.61162790697676" type="curve" smooth="yes"/>
      <point x="749.4325581395349" y="-404.61162790697676"/>
      <point x="924.2263565891473" y="-301.13023255813954"/>
      <point x="922.1263565891472" y="-101.11085271317829" type="curve" smooth="yes"/>
      <point x="920.0263565891473" y="90.63333333333333"/>
      <point x="764.5077519379845" y="168.15193798449613"/>
      <point x="571.2131782945737" y="218.0581395348837" type="curve"/>
      <point x="564.4503875968992" y="155.85581395348837" type="line"/>
      <point x="810.5449612403102" y="159.84961240310076"/>
      <point x="987.8201550387597" y="301.6372093023256"/>
      <point x="985.0201550387596" y="522.8565891472869" type="curve" smooth="yes"/>
      <point x="982.2201550387597" y="732.6635658914729"/>
      <point x="842.3821705426358" y="815.8511627906977"/>
      <point x="645.1821705426356" y="884.8883720930232" type="curve" smooth="yes"/>
      <point x="459.11162790697676" y="951.3325581395349"/>
      <point x="349.98837209302326" y="1004.1697674418605"/>
      <point x="347.1883720930233" y="1131.4302325581396" type="curve" smooth="yes"/>
      <point x="345.0883720930233" y="1284.593023255814"/>
      <point x="438.9751937984496" y="1354.8720930232557"/>
      <point x="574.1255813953488" y="1354.8720930232557" type="curve" smooth="yes"/>
      <point x="727.7387596899225" y="1354.8720930232557"/>
      <point x="794.5379844961241" y="1266.0116279069766"/>
      <point x="787.1565891472868" y="1108.9038759689922" type="curve"/>
      <point x="924.3263565891473" y="1108.9038759689922" type="line"/>
      <point x="924.3263565891473" y="1150.7364341085272" type="line" smooth="yes"/>
      <point x="924.3263565891473" y="1331.1620155038759"/>
      <point x="807.5449612403102" y="1435.631007751938"/>
      <point x="584.4193798449612" y="1435.631007751938" type="curve" smooth="yes"/>
      <point x="361.9062015503876" y="1435.631007751938"/>
      <point x="193.91240310077518" y="1334.4496124031007"/>
      <point x="196.0124031007752" y="1133.4302325581396" type="curve" smooth="yes"/>
      <point x="198.1124031007752" y="969.5922480620155"/>
      <point x="300.0682170542636" y="874.3550387596899"/>
      <point x="575.1705426356589" y="806.4922480620155" type="curve"/>
      <point x="543.1627906976744" y="872.2759689922481" type="line"/>
      <point x="321.1" y="880.9883720930233"/>
      <point x="132.0186046511628" y="752.106976744186"/>
      <point x="134.8186046511628" y="508.16279069767444" type="curve" smooth="yes"/>
      <point x="136.2186046511628" y="342.6496124031008"/>
      <point x="242.1" y="220.84961240310076"/>
      <point x="511.33178294573645" y="137.13720930232557" type="curve" smooth="yes"/>
      <point x="663.5883720930233" y="90.43720930232558"/>
      <point x="771.0503875968992" y="5.099999999999998"/>
      <point x="772.4503875968992" y="-94.41085271317829" type="curve" smooth="yes"/>
      <point x="773.8503875968993" y="-227.3798449612403"/>
      <point x="682.6945736434109" y="-323.85271317829455"/>
      <point x="534.2131782945736" y="-323.85271317829455" type="curve" smooth="yes"/>
      <point x="380.51860465116283" y="-323.85271317829455"/>
      <point x="301.71317829457365" y="-226.3046511627907"/>
      <point x="310.4821705426357" y="-69.884496124031" type="curve"/>
      <point x="173.1124031007752" y="-69.884496124031" type="line"/>
      <point x="173.1124031007752" y="-112.41085271317829" type="line" smooth="yes"/>
      <point x="173.1124031007752" y="-282.13023255813954"/>
      <point x="300.0" y="-404.61162790697676"/>
    </contour>
    <contour>
      <point x="562.5193798449612" y="228.2953488372093" type="curve" smooth="yes"/>
      <point x="409.59457364341085" y="228.2953488372093"/>
      <point x="282.09457364341085" y="376.34496124031006"/>
      <point x="279.99457364341083" y="522.1627906976744" type="curve" smooth="yes"/>
      <point x="277.89457364341087" y="667.8744186046512"/>
      <point x="400.50077519379846" y="807.7240310077519"/>
      <point x="555.5193798449612" y="807.7240310077519" type="curve" smooth="yes"/>
      <point x="710.837984496124" y="807.7240310077519"/>
      <point x="837.7441860465117" y="672.7868217054264"/>
      <point x="839.8441860465116" y="529.1627906976744" type="curve" smooth="yes"/>
      <point x="841.9441860465116" y="384.34496124031006"/>
      <point x="715.1441860465117" y="228.2953488372093"/>
    </contour>
  </outline>
</glyph>
<glyph name="copyright" format="2">
  <advance width="1749.8767441860466"/>
  <unicode hex="00A9"/>
  <note>
copyright
</note>
  <outline>
    <contour>
      <point x="873.5883720930233" y="-14.856589147286822" type="curve" smooth="yes"/>
      <point x="1066.3883720930232" y="-14.856589147286822"/>
      <point x="1253.3573643410853" y="59.58682170542636"/>
      <point x="1399.1077519379844" y="198.54341085271318" type="curve" smooth="yes"/>
      <point x="1538.401550387597" y="332.0434108527132"/>
      <point x="1612.4581395348837" y="509.95581395348836"/>
      <point x="1612.4581395348837" y="706.6124031007752" type="curve" smooth="yes"/>
      <point x="1612.4581395348837" y="904.3372093023256"/>
      <point x="1536.0953488372093" y="1084.4875968992249"/>
      <point x="1399.801550387597" y="1217.4813953488372" type="curve" smooth="yes"/>
      <point x="1259.4325581395349" y="1354.8503875968993"/>
      <point x="1075.2697674418605" y="1428.0813953488373"/>
      <point x="873.5883720930233" y="1428.0813953488373" type="curve" smooth="yes"/>
      <point x="673.4503875968992" y="1428.0813953488373"/>
      <point x="496.33178294573645" y="1358.737984496124"/>
      <point x="357.0751937984496" y="1219.4813953488372" type="curve" smooth="yes"/>
      <point x="217.3751937984496" y="1079.3875968992247"/>
      <point x="136.7186046511628" y="900.6689922480621"/>
      <point x="136.7186046511628" y="706.6124031007752" type="curve" smooth="yes"/>
      <point x="136.7186046511628" y="513.8"/>
      <point x="213.5937984496124" y="334.831007751938"/>
      <point x="355.67519379844964" y="197.23720930232557" type="curve" smooth="yes"/>
      <point x="500.9441860465116" y="56.15581395348838"/>
      <point x="681.3255813953489" y="-14.856589147286822"/>
    </contour>
    <contour>
      <point x="870.9131782945736" y="290.97054263565894" type="curve" smooth="yes"/>
      <point x="1068.2263565891474" y="290.97054263565894"/>
      <point x="1186.675968992248" y="405.8209302325581"/>
      <point x="1210.156589147287" y="559.470542635659" type="curve"/>
      <point x="1116.1666666666667" y="559.470542635659" type="line"/>
      <point x="1084.317054263566" y="429.49612403100775"/>
      <point x="1003.4372093023255" y="357.97829457364344"/>
      <point x="878.9193798449612" y="357.97829457364344" type="curve" smooth="yes"/>
      <point x="714.9519379844961" y="357.97829457364344"/>
      <point x="605.6224806201551" y="480.2201550387597"/>
      <point x="605.6224806201551" y="703.9124031007752" type="curve" smooth="yes"/>
      <point x="605.6224806201551" y="923.2294573643411"/>
      <point x="708.7891472868217" y="1058.5527131782947"/>
      <point x="878.9193798449612" y="1058.5527131782947" type="curve" smooth="yes"/>
      <point x="994.8434108527132" y="1058.5527131782947"/>
      <point x="1071.1356589147288" y="995.3038759689922"/>
      <point x="1106.2480620155038" y="877.0728682170543" type="curve"/>
      <point x="1200.8503875968993" y="877.0728682170543" type="line"/>
      <point x="1177.0697674418604" y="1017.322480620155"/>
      <point x="1069.2201550387597" y="1123.860465116279"/>
      <point x="880.2193798449613" y="1123.860465116279" type="curve" smooth="yes"/>
      <point x="647.5821705426357" y="1123.860465116279"/>
      <point x="495.08217054263565" y="960.5488372093023"/>
      <point x="495.08217054263565" y="703.3062015503876" type="curve" smooth="yes"/>
      <point x="495.08217054263565" y="453.46356589147285"/>
      <point x="636.7945736434109" y="290.97054263565894"/>
    </contour>
    <contour>
      <point x="873.5883720930233" y="83.05193798449612" type="curve" smooth="yes"/>
      <point x="705.44496124031" y="83.05193798449612"/>
      <point x="544.4077519379845" y="149.27674418604653"/>
      <point x="421.9891472868217" y="269.2077519379845" type="curve" smooth="yes"/>
      <point x="297.25813953488375" y="391.1511627906977"/>
      <point x="233.13333333333333" y="545.9441860465116"/>
      <point x="233.13333333333333" y="706.6124031007752" type="curve" smooth="yes"/>
      <point x="233.13333333333333" y="873.6868217054264"/>
      <point x="298.5581395348837" y="1026.8612403100776"/>
      <point x="424.0829457364341" y="1150.2984496124031" type="curve" smooth="yes"/>
      <point x="543.6077519379845" y="1268.0356589147286"/>
      <point x="696.2635658914729" y="1332.2666666666667"/>
      <point x="873.5883720930233" y="1332.2666666666667" type="curve" smooth="yes"/>
      <point x="1049.106976744186" y="1332.2666666666667"/>
      <point x="1209.2751937984497" y="1267.0232558139535"/>
      <point x="1331.3937984496124" y="1148.2984496124031" type="curve" smooth="yes"/>
      <point x="1453.4248062015504" y="1029.9612403100775"/>
      <point x="1518.1372093023256" y="871.9806201550388"/>
      <point x="1518.1372093023256" y="706.6124031007752" type="curve" smooth="yes"/>
      <point x="1518.1372093023256" y="533.106976744186"/>
      <point x="1452.812403100775" y="384.0449612403101"/>
      <point x="1334.1813953488372" y="271.2077519379845" type="curve" smooth="yes"/>
      <point x="1212.1627906976744" y="155.37674418604652"/>
      <point x="1048.5255813953488" y="83.05193798449612"/>
    </contour>
  </outline>
</glyph>
<glyph name="ordfeminine" format="2">
  <advance width="804.6573643410852"/>
  <unicode hex="00AA"/>
  <note>
ordfeminine
</note>
  <outline>
    <contour>
      <point x="371.2348837209302" y="813.0852713178294" type="curve" smooth="yes"/>
      <point x="428.42713178294576" y="813.0852713178294"/>
      <point x="559.7891472868217" y="832.1968992248062"/>
      <point x="580.2209302325581" y="992.0891472868217" type="curve"/>
      <point x="580.2209302325581" y="826.922480620155" type="line"/>
      <point x="657.6744186046511" y="826.922480620155" type="line"/>
      <point x="657.6744186046511" y="1438.468992248062" type="line"/>
      <point x="578.6147286821705" y="1438.468992248062" type="line"/>
      <point x="578.6147286821705" y="1270.6899224806202" type="line"/>
      <point x="558.8767441860465" y="1432.9697674418605"/>
      <point x="425.41472868217056" y="1453.7751937984497"/>
      <point x="366.93488372093026" y="1453.7751937984497" type="curve" smooth="yes"/>
      <point x="206.61472868217055" y="1453.7751937984497"/>
      <point x="109.82635658914728" y="1322.2248062015503"/>
      <point x="109.82635658914728" y="1131.4302325581396" type="curve" smooth="yes"/>
      <point x="109.82635658914728" y="934.5356589147286"/>
      <point x="210.00852713178296" y="813.0852713178294"/>
    </contour>
    <contour>
      <point x="377.92868217054263" y="884.5069767441861" type="curve" smooth="yes"/>
      <point x="257.7108527131783" y="884.5069767441861"/>
      <point x="209.23023255813953" y="994.1875968992248"/>
      <point x="209.23023255813953" y="1135.593023255814" type="curve" smooth="yes"/>
      <point x="209.23023255813953" y="1272.7418604651164"/>
      <point x="252.91085271317831" y="1382.3534883720931"/>
      <point x="374.92868217054263" y="1382.3534883720931" type="curve" smooth="yes"/>
      <point x="493.277519379845" y="1382.3534883720931"/>
      <point x="555.5891472868217" y="1298.4666666666667"/>
      <point x="555.5891472868217" y="1130.7364341085272" type="curve" smooth="yes"/>
      <point x="555.5891472868217" y="965.6937984496124"/>
      <point x="495.67751937984497" y="884.5069767441861"/>
    </contour>
    <contour>
      <point x="112.22635658914729" y="673.1085271317829" type="line"/>
      <point x="685.9937984496124" y="673.1085271317829" type="line"/>
      <point x="685.9937984496124" y="735.7790697674419" type="line"/>
      <point x="112.22635658914729" y="735.7790697674419" type="line"/>
    </contour>
  </outline>
</glyph>
<glyph name="logicalnot" format="2">
  <advance width="1056.2147286821705"/>
  <unicode hex="00AC"/>
  <note>
logicalnot
</note>
  <outline>
    <contour>
      <point x="1082.8410852713178" y="335.3054263565891" type="line"/>
      <point x="1197.6767441860466" y="335.3054263565891" type="line"/>
      <point x="1197.6767441860466" y="871.7441860465116" type="line"/>
      <point x="126.68759689922481" y="871.7441860465116" type="line"/>
      <point x="126.68759689922481" y="771.4341085271318" type="line"/>
      <point x="1082.8410852713178" y="771.4341085271318" type="line"/>
    </contour>
  </outline>
</glyph>
<glyph name="degree" format="2">
  <advance width="737.8472868217054"/>
  <unicode hex="00B0"/>
  <note>
degree
</note>
  <outline>
    <contour>
      <point x="367.47054263565894" y="977.9147286821706" type="curve" smooth="yes"/>
      <point x="492.746511627907" y="977.9147286821706"/>
      <point x="594.5348837209302" y="1079.0093023255813"/>
      <point x="594.5348837209302" y="1203.3728682170542" type="curve" smooth="yes"/>
      <point x="594.5348837209302" y="1327.0426356589148"/>
      <point x="492.746511627907" y="1428.1372093023256"/>
      <point x="369.07674418604654" y="1428.1372093023256" type="curve" smooth="yes"/>
      <point x="243.40697674418604" y="1428.1372093023256"/>
      <point x="143.6186046511628" y="1328.3488372093022"/>
      <point x="143.6186046511628" y="1203.3728682170542" type="curve" smooth="yes"/>
      <point x="143.6186046511628" y="1077.703100775194"/>
      <point x="243.10077519379846" y="977.9147286821706"/>
    </contour>
    <contour>
      <point x="369.07674418604654" y="1030.9658914728682" type="curve" smooth="yes"/>
      <point x="273.52635658914727" y="1030.9658914728682"/>
      <point x="197.36356589147286" y="1107.8224806201551"/>
      <point x="197.36356589147286" y="1203.3728682170542" type="curve" smooth="yes"/>
      <point x="197.36356589147286" y="1297.9232558139536"/>
      <point x="273.52635658914727" y="1374.086046511628"/>
      <point x="369.07674418604654" y="1374.086046511628" type="curve" smooth="yes"/>
      <point x="464.62713178294575" y="1374.086046511628"/>
      <point x="540.4837209302326" y="1297.9232558139536"/>
      <point x="540.4837209302326" y="1203.3728682170542" type="curve" smooth="yes"/>
      <point x="540.4837209302326" y="1107.8224806201551"/>
      <point x="464.62713178294575" y="1030.9658914728682"/>
    </contour>
  </outline>
</glyph>
<glyph name="plusminus" format="2">
  <advance width="1056.2147286821705"/>
  <unicode hex="00B1"/>
  <note>
plusminus
</note>
  <outline>
    <contour>
      <point x="435.22635658914726" y="375.82403100775196" type="line"/>
      <point x="522.8798449612403" y="375.82403100775196" type="line"/>
      <point x="522.8798449612403" y="608.3658914728683" type="line"/>
      <point x="816.631007751938" y="608.3658914728683" type="line"/>
      <point x="816.631007751938" y="727.2403100775193" type="line"/>
      <point x="522.8798449612403" y="727.2403100775193" type="line"/>
      <point x="522.8798449612403" y="959.3883720930232" type="line"/>
      <point x="435.22635658914726" y="959.3883720930232" type="line"/>
      <point x="435.22635658914726" y="727.2403100775193" type="line"/>
      <point x="141.86899224806203" y="727.2403100775193" type="line"/>
      <point x="141.86899224806203" y="608.3658914728683" type="line"/>
      <point x="435.22635658914726" y="608.3658914728683" type="line"/>
    </contour>
    <contour>
      <point x="141.168992248062" y="177.86976744186046" type="line"/>
      <point x="815.2372093023256" y="177.86976744186046" type="line"/>
      <point x="815.2372093023256" y="296.0503875968992" type="line"/>
      <point x="141.168992248062" y="296.0503875968992" type="line"/>
    </contour>
  </outline>
</glyph>
<glyph name="paragraph" format="2">
  <advance width="1143.4317829457364"/>
  <unicode hex="00B6"/>
  <note>
paragraph
</note>
  <outline>
    <contour>
      <point x="496.0124031007752" y="0.0" type="line"/>
      <point x="618.8666666666667" y="0.0" type="line"/>
      <point x="618.8666666666667" y="1357.9782945736433" type="line"/>
      <point x="776.4651162790698" y="1357.9782945736433" type="line"/>
      <point x="776.4651162790698" y="0.0" type="line"/>
      <point x="898.6255813953488" y="0.0" type="line"/>
      <point x="898.6255813953488" y="1357.9782945736433" type="line"/>
      <point x="1021.8255813953489" y="1357.9782945736433" type="line"/>
      <point x="1021.8255813953489" y="1445.7813953488371" type="line"/>
      <point x="540.3767441860465" y="1445.7813953488371" type="line" smooth="yes"/>
      <point x="293.78837209302327" y="1445.7813953488371"/>
      <point x="126.71240310077519" y="1292.624031007752"/>
      <point x="126.71240310077519" y="1071.3542635658914" type="curve" smooth="yes"/>
      <point x="126.71240310077519" y="862.6410852713178"/>
      <point x="275.45038759689925" y="708.3147286821705"/>
      <point x="496.0124031007752" y="698.3147286821705" type="curve"/>
    </contour>
  </outline>
</glyph>
<glyph name="ordmasculine" format="2">
  <advance width="851.413953488372"/>
  <unicode hex="00BA"/>
  <note>
ordmasculine
</note>
  <outline>
    <contour>
      <point x="424.81007751937983" y="822.5348837209302" type="curve" smooth="yes"/>
      <point x="590.3496124031008" y="822.5348837209302"/>
      <point x="721.1565891472868" y="939.3294573643411"/>
      <point x="721.1565891472868" y="1132.4302325581396" type="curve" smooth="yes"/>
      <point x="721.1565891472868" y="1325.8372093023256"/>
      <point x="591.3496124031008" y="1445.6317829457364"/>
      <point x="424.81007751937983" y="1445.6317829457364" type="curve" smooth="yes"/>
      <point x="257.57674418604654" y="1445.6317829457364"/>
      <point x="130.06976744186045" y="1326.8372093023256"/>
      <point x="130.06976744186045" y="1132.4302325581396" type="curve" smooth="yes"/>
      <point x="130.06976744186045" y="938.3294573643411"/>
      <point x="258.57674418604654" y="822.5348837209302"/>
    </contour>
    <contour>
      <point x="425.1162790697674" y="892.7627906976744" type="curve" smooth="yes"/>
      <point x="314.9666666666667" y="892.7627906976744"/>
      <point x="227.3798449612403" y="984.7937984496124"/>
      <point x="227.3798449612403" y="1132.4302325581396" type="curve" smooth="yes"/>
      <point x="227.3798449612403" y="1280.0666666666666"/>
      <point x="315.9666666666667" y="1375.0976744186046"/>
      <point x="425.1162790697674" y="1375.0976744186046" type="curve" smooth="yes"/>
      <point x="534.2658914728682" y="1375.0976744186046"/>
      <point x="623.1527131782946" y="1280.0666666666666"/>
      <point x="623.1527131782946" y="1132.4302325581396" type="curve" smooth="yes"/>
      <point x="623.1527131782946" y="984.7937984496124"/>
      <point x="534.5720930232558" y="892.7627906976744"/>
    </contour>
    <contour>
      <point x="138.0077519379845" y="673.1085271317829" type="line"/>
      <point x="712.4124031007752" y="673.1085271317829" type="line"/>
      <point x="712.4124031007752" y="735.7790697674419" type="line"/>
      <point x="138.0077519379845" y="735.7790697674419" type="line"/>
    </contour>
  </outline>
</glyph>
<glyph name="AE" format="2">
  <advance width="1857.3217054263566"/>
  <unicode hex="00C6"/>
  <note>
AE
</note>
  <anchor x="979.0496124031008" y="0.8139534883720927" name="bottom"/>
  <anchor x="979.0496124031008" y="1444.0" name="top"/>
  <outline>
    <contour>
      <point x="77.71860465116279" y="-7.0" type="line"/>
      <point x="198.0968992248062" y="-7.0" type="line"/>
      <point x="1089.8612403100776" y="1439.0813953488373" type="line"/>
      <point x="970.1767441860466" y="1439.0813953488373" type="line"/>
    </contour>
    <contour>
      <point x="436.8906976744186" y="442.70542635658916" type="line"/>
      <point x="1129.5" y="442.70542635658916" type="line"/>
      <point x="1129.5" y="519.6953488372093" type="line"/>
      <point x="436.8906976744186" y="519.6953488372093" type="line"/>
    </contour>
    <contour>
      <point x="1016.2635658914729" y="-7.0" type="line"/>
      <point x="1757.6341085271317" y="-7.0" type="line"/>
      <point x="1757.6341085271317" y="69.29612403100776" type="line"/>
      <point x="1054.032558139535" y="69.29612403100776" type="line"/>
      <point x="1173.6573643410852" y="3.6000000000000014" type="line"/>
      <point x="1173.6573643410852" y="766.4511627906977" type="line"/>
      <point x="1091.5410852713178" y="690.5488372093023" type="line"/>
      <point x="1757.6341085271317" y="690.5488372093023" type="line"/>
      <point x="1757.6341085271317" y="766.8449612403101" type="line"/>
      <point x="1091.7480620155038" y="766.8449612403101" type="line"/>
      <point x="1173.6573643410852" y="697.6612403100776" type="line"/>
      <point x="1173.6573643410852" y="1434.9" type="line"/>
      <point x="1054.1658914728682" y="1362.7852713178295" type="line"/>
      <point x="1757.6341085271317" y="1362.7852713178295" type="line"/>
      <point x="1757.6341085271317" y="1439.0813953488373" type="line"/>
      <point x="1016.2635658914729" y="1439.0813953488373" type="line"/>
    </contour>
  </outline>
</glyph>
<glyph name="Thorn" format="2">
  <advance width="1086.125581395349"/>
  <unicode hex="00DE"/>
  <note>
Thorn
</note>
  <anchor x="543.0596899224806" y="14.813953488372093" name="bottom"/>
  <anchor x="543.0596899224806" y="1430.0" name="top"/>
  <outline>
    <contour>
      <point x="240.02713178294573" y="321.00542635658917" type="line"/>
      <point x="493.7170542635659" y="321.00542635658917" type="line" smooth="yes"/>
      <point x="642.05503875969" y="321.00542635658917"/>
      <point x="763.2124031007752" y="352.2682170542636"/>
      <point x="835.031007751938" y="400.48682170542634" type="curve" smooth="yes"/>
      <point x="949.706976744186" y="478.3937984496124"/>
      <point x="990.5131782945737" y="582.9558139534884"/>
      <point x="990.5131782945737" y="733.4" type="curve" smooth="yes"/>
      <point x="990.5131782945737" y="875.1441860465117"/>
      <point x="953.806976744186" y="966.8186046511628"/>
      <point x="865.2124031007752" y="1043.125581395349" type="curve" smooth="yes"/>
      <point x="791.2937984496124" y="1106.8441860465116"/>
      <point x="657.9488372093024" y="1143.7945736434108"/>
      <point x="494.0170542635659" y="1143.7945736434108" type="curve" smooth="yes"/>
      <point x="246.02713178294573" y="1143.7945736434108" type="line"/>
      <point x="246.02713178294573" y="1072.6612403100776" type="line"/>
      <point x="442.12248062015505" y="1072.6612403100776" type="line" smooth="yes"/>
      <point x="737.0837209302325" y="1072.6612403100776"/>
      <point x="837.8325581395349" y="979.6186046511627"/>
      <point x="837.8325581395349" y="732.8" type="curve" smooth="yes"/>
      <point x="837.8325581395349" y="483.37519379844963"/>
      <point x="735.6837209302325" y="392.1387596899225"/>
      <point x="442.12248062015505" y="392.1387596899225" type="curve" smooth="yes"/>
      <point x="240.02713178294573" y="392.1387596899225" type="line"/>
    </contour>
    <contour>
      <point x="164.0124031007752" y="0.0" type="line"/>
      <point x="318.331007751938" y="0.0" type="line"/>
      <point x="318.331007751938" y="1432.0813953488373" type="line"/>
      <point x="164.0124031007752" y="1432.0813953488373" type="line"/>
    </contour>
  </outline>
</glyph>
<glyph name="germandbls" format="2">
  <advance width="1120.620930232558"/>
  <unicode hex="00DF"/>
  <note>
germandbls
</note>
  <anchor x="560.660465116279" y="21.058139534883722" name="bottom"/>
  <anchor x="560.660465116279" y="941.3565891472869" name="top"/>
  <outline>
    <contour>
      <point x="708.6751937984496" y="-27.281395348837208" type="curve" smooth="yes"/>
      <point x="931.2007751937984" y="-27.281395348837208"/>
      <point x="1059.9085271317829" y="71.76821705426356"/>
      <point x="1059.9085271317829" y="260.83178294573645" type="curve" smooth="yes"/>
      <point x="1059.9085271317829" y="428.2705426356589"/>
      <point x="979.0209302325582" y="490.00077519379846"/>
      <point x="747.8209302325581" y="541.0697674418604" type="curve" smooth="yes"/>
      <point x="590.591472868217" y="574.9007751937985"/>
      <point x="569.1852713178295" y="613.937984496124"/>
      <point x="569.1852713178295" y="716.0930232558139" type="curve" smooth="yes"/>
      <point x="569.1852713178295" y="802.3364341085271"/>
      <point x="629.4596899224806" y="841.0542635658915"/>
      <point x="712.5728682170543" y="904.6860465116279" type="curve" smooth="yes"/>
      <point x="788.7410852713178" y="966.5108527131783"/>
      <point x="886.3031007751938" y="1038.886046511628"/>
      <point x="886.3031007751938" y="1204.417054263566" type="curve" smooth="yes"/>
      <point x="886.3031007751938" y="1383.7062015503875"/>
      <point x="766.6077519379845" y="1549.3387596899224"/>
      <point x="527.1046511627907" y="1549.3387596899224" type="curve" smooth="yes"/>
      <point x="322.346511627907" y="1549.3387596899224"/>
      <point x="200.64418604651163" y="1355.8992248062016"/>
      <point x="200.64418604651163" y="1130.905426356589" type="curve" smooth="yes"/>
      <point x="200.64418604651163" y="0.0" type="line"/>
      <point x="344.01860465116283" y="0.0" type="line"/>
      <point x="344.01860465116283" y="1095.5217054263567" type="line" smooth="yes"/>
      <point x="344.01860465116283" y="1347.0209302325582"/>
      <point x="415.32248062015503" y="1467.9674418604652"/>
      <point x="535.7922480620155" y="1467.9674418604652" type="curve" smooth="yes"/>
      <point x="669.6038759689923" y="1467.9674418604652"/>
      <point x="761.5488372093023" y="1348.2317829457365"/>
      <point x="761.5488372093023" y="1190.4736434108527" type="curve" smooth="yes"/>
      <point x="761.5488372093023" y="1073.9240310077519"/>
      <point x="704.2496124031007" y="1005.9108527131783"/>
      <point x="630.8186046511628" y="948.6860465116279" type="curve" smooth="yes"/>
      <point x="556.0441860465116" y="889.0364341085271"/>
      <point x="459.1317829457364" y="834.5744186046512"/>
      <point x="459.1317829457364" y="685.7418604651162" type="curve" smooth="yes"/>
      <point x="459.1317829457364" y="558.1992248062015"/>
      <point x="511.6565891472868" y="489.0550387596899"/>
      <point x="705.2186046511628" y="447.77364341085274" type="curve" smooth="yes"/>
      <point x="869.4658914728682" y="414.11782945736434"/>
      <point x="931.7666666666667" y="381.39457364341087"/>
      <point x="931.7666666666667" y="250.90697674418604" type="curve" smooth="yes"/>
      <point x="931.7666666666667" y="127.88914728682171"/>
      <point x="856.0674418604651" y="63.25271317829458"/>
      <point x="710.1503875968992" y="63.25271317829458" type="curve" smooth="yes"/>
      <point x="606.8457364341085" y="63.25271317829458"/>
      <point x="525.408527131783" y="101.45193798449613"/>
      <point x="445.38837209302324" y="187.80852713178297" type="curve"/>
      <point x="440.53178294573644" y="71.67519379844961" type="line"/>
      <point x="514.1635658914729" y="3.31860465116279"/>
      <point x="606.9263565891473" y="-27.281395348837208"/>
    </contour>
    <contour>
      <point x="46.900000000000006" y="866.460465116279" type="line"/>
      <point x="269.84186046511627" y="866.460465116279" type="line"/>
      <point x="269.84186046511627" y="945.8255813953489" type="line"/>
      <point x="46.900000000000006" y="945.8255813953489" type="line"/>
    </contour>
  </outline>
</glyph>
<glyph name="ae" format="2">
  <advance width="1840.4837209302325"/>
  <unicode hex="00E6"/>
  <note>
ae
</note>
  <anchor x="911.2286821705427" y="21.058139534883722" name="bottom"/>
  <anchor x="917.2093023255813" y="941.3565891472869" name="top"/>
  <outline>
    <contour>
      <point x="508.07674418604654" y="-27.281395348837208" type="curve" smooth="yes"/>
      <point x="717.9403100775194" y="-27.281395348837208"/>
      <point x="854.446511627907" y="92.6"/>
      <point x="907.246511627907" y="298.9697674418605" type="curve"/>
      <point x="870.7325581395348" y="331.94573643410854" type="line"/>
      <point x="863.9015503875969" y="0.0" type="line"/>
      <point x="998.7" y="0.0" type="line"/>
      <point x="998.7" y="948.6317829457364" type="line"/>
      <point x="862.5139534883721" y="948.6317829457364" type="line"/>
      <point x="862.5139534883721" y="602.4302325581396" type="line"/>
      <point x="905.1651162790698" y="635.3875968992248" type="line"/>
      <point x="854.4403100775194" y="847.6945736434109"/>
      <point x="710.8837209302326" y="974.6255813953488"/>
      <point x="506.3891472868217" y="974.6255813953488" type="curve" smooth="yes"/>
      <point x="236.96899224806202" y="974.6255813953488"/>
      <point x="75.9124031007752" y="755.237984496124"/>
      <point x="75.9124031007752" y="462.5627906976744" type="curve" smooth="yes"/>
      <point x="75.9124031007752" y="165.331007751938"/>
      <point x="242.31937984496125" y="-27.281395348837208"/>
    </contour>
    <contour>
      <point x="517.6023255813953" y="53.38992248062016" type="curve" smooth="yes"/>
      <point x="333.5294573643411" y="53.38992248062016"/>
      <point x="221.36821705426357" y="196.26976744186047"/>
      <point x="221.36821705426357" y="470.4813953488372" type="curve" smooth="yes"/>
      <point x="221.36821705426357" y="748.1116279069768"/>
      <point x="336.67286821705426" y="893.2542635658915"/>
      <point x="515.9147286821706" y="893.2542635658915" type="curve" smooth="yes"/>
      <point x="704.1379844961241" y="893.2542635658915"/>
      <point x="834.7372093023256" y="725.2612403100775"/>
      <point x="834.7372093023256" y="464.6441860465116" type="curve" smooth="yes"/>
      <point x="834.7372093023256" y="200.42093023255813"/>
      <point x="703.0945736434109" y="53.38992248062016"/>
    </contour>
    <contour>
      <point x="1349.4627906976743" y="-25.2" type="curve" smooth="yes"/>
      <point x="1554.4829457364342" y="-25.2"/>
      <point x="1695.151937984496" y="94.06899224806202"/>
      <point x="1758.7403100775193" y="311.61472868217055" type="curve"/>
      <point x="1640.0178294573643" y="311.61472868217055" type="line"/>
      <point x="1620.563565891473" y="166.49147286821704"/>
      <point x="1496.4875968992249" y="54.77751937984497"/>
      <point x="1351.8441860465116" y="54.77751937984497" type="curve" smooth="yes"/>
      <point x="1176.4147286821706" y="54.77751937984497"/>
      <point x="1064.3782945736434" y="217.28992248062016"/>
      <point x="1064.3782945736434" y="468.56899224806205" type="curve" smooth="yes"/>
      <point x="1064.3782945736434" y="724.3666666666667"/>
      <point x="1178.4519379844962" y="888.660465116279"/>
      <point x="1349.4627906976743" y="888.660465116279" type="curve" smooth="yes"/>
      <point x="1498.917054263566" y="888.660465116279"/>
      <point x="1616.5031007751938" y="765.4488372093023"/>
      <point x="1640.703100775194" y="499.70542635658916" type="curve"/>
      <point x="1773.7713178294573" y="499.70542635658916" type="line"/>
      <point x="1748.7271317829457" y="803.3131782945736"/>
      <point x="1582.8891472868218" y="969.7255813953489"/>
      <point x="1347.7751937984497" y="969.7255813953489" type="curve" smooth="yes"/>
      <point x="1080.5798449612403" y="969.7255813953489"/>
      <point x="920.7728682170542" y="748.9131782945736"/>
      <point x="920.7728682170542" y="463.03178294573644" type="curve" smooth="yes"/>
      <point x="920.7728682170542" y="167.3751937984496"/>
      <point x="1089.2736434108526" y="-25.2"/>
    </contour>
    <contour>
      <point x="1040.8976744186048" y="499.01162790697674" type="line"/>
      <point x="1733.601550387597" y="499.70542635658916" type="line"/>
      <point x="1733.3953488372092" y="574.3829457364341" type="line"/>
      <point x="1020.9837209302326" y="574.3829457364341" type="line"/>
    </contour>
  </outline>
</glyph>
